<?xml version="1.0" encoding="utf-8"?>
<!-- Generator: Adobe Illustrator 23.0.1, SVG Export Plug-In . SVG Version: 6.00 Build 0)  -->
<svg version="1.1" id="图层_1" xmlns="http://www.w3.org/2000/svg" xmlns:xlink="http://www.w3.org/1999/xlink" x="0px" y="0px"
	 viewBox="0 0 300 300" style="enable-background:new 0 0 300 300;" xml:space="preserve">
<style type="text/css">
	.st0{fill:#7ECEF4;}
	.st1{fill:#125488;}
	.st2{fill:#51A4F6;}
	.st3{fill:#007CC3;}
	.st4{fill:#4694D1;}
	.st5{fill:#384248;}
	.st6{fill:#FFFFFF;}
	.st7{fill:#B5B5B6;}
</style>
<title>ico2 [已恢复]</title>
<g>
	<path class="st0" d="M149.9,16.2c-27.2,0-53.8,8.3-76.1,24l48.5,68.7c16.9-11.2,38.9-10.9,55.5,0.7L227.3,41
		C204.7,24.8,177.7,16.1,149.9,16.2z"/>
	<path class="st1" d="M100.3,150c0-15.4,7.1-29.9,19.3-39.2L71.1,42.1c-45.8,33.8-65,93-47.7,147.2l78.8-25.8
		C100.9,159.1,100.3,154.6,100.3,150z"/>
	<path class="st2" d="M103.2,166.8l-78.8,25.8c18.5,53.1,68.3,88.8,124.4,89.2l0.4-82.4C128.6,199.2,110.3,186.2,103.2,166.8z"/>
	<path class="st3" d="M275.7,192l-79.4-25.6c-6.6,18.7-23.8,31.7-43.6,32.9l-0.4,82.5C208.2,280.8,257.6,244.9,275.7,192z"/>
	<path class="st4" d="M282.8,149c0-41.7-19.5-80.9-52.8-106l-49.3,68.5c15.4,12.3,21.9,32.6,16.7,51.7l79.3,25.6
		C280.7,175.9,282.8,162.5,282.8,149z"/>
	<path class="st5" d="M131.3,148.8v-6.5h1.4v2.5h2.5v-2.5h1.3v6.5h-1.3v-2.9h-2.5v2.9H131.3z"/>
	<path class="st5" d="M139.9,142.3h1.4v4c0,0.3,0,0.7,0.2,1c0.2,0.4,0.6,0.6,1.1,0.5c0.4,0.1,0.9-0.2,1.1-0.5c0.1-0.3,0.2-0.7,0.2-1
		v-4h1.4v4c0,0.6-0.1,1.1-0.3,1.6c-1.1,1.3-3,1.4-4.2,0.3c-0.1-0.1-0.2-0.2-0.3-0.3c-0.2-0.5-0.3-1.1-0.3-1.6v-4H139.9z"/>
	<path class="st5" d="M150.4,142.3h1.5l2.3,6.5h-1.5l-0.4-1.3h-2.4l-0.4,1.3h-1.4L150.4,142.3z M150.4,146.3h1.6l-0.8-2.6
		L150.4,146.3z"/>
	<path class="st5" d="M157.3,142.3h1.4v4c0,0.3,0,0.7,0.2,1c0.2,0.4,0.6,0.6,1.1,0.5c0.4,0.1,0.9-0.2,1.1-0.5c0.1-0.3,0.2-0.7,0.2-1
		v-4h1.4v4c0,0.6-0.1,1.1-0.3,1.6c-1.1,1.3-3,1.4-4.2,0.3c-0.1-0.1-0.2-0.2-0.3-0.3c-0.2-0.5-0.3-1.1-0.3-1.6v-4H157.3z"/>
	<path class="st5" d="M165.9,142.3h1.4l2.6,4.5v-4.5h1.3v6.5h-1.4l-2.6-4.6v4.6h-1.3V142.3z"/>
	<path class="st5" d="M122,157.6c0,0.2,0.1,0.5,0.2,0.7c0.3,0.3,0.7,0.4,1.2,0.4c0.3,0,0.5,0,0.8-0.1s0.6-0.4,0.6-0.8
		c0-0.2-0.1-0.4-0.3-0.5c-0.3-0.1-0.6-0.2-0.9-0.3l-0.7-0.1c-0.5-0.1-1-0.3-1.4-0.5c-0.4-0.3-0.7-0.9-0.7-1.4c0-0.6,0.2-1.1,0.6-1.4
		c0.5-0.4,1.2-0.6,1.9-0.6c0.6,0,1.2,0.2,1.8,0.5c0.5,0.4,0.8,1,0.8,1.6h-1.3c0-0.4-0.2-0.7-0.5-0.8s-0.5-0.2-0.8-0.2
		s-0.6,0.1-0.8,0.2c-0.2,0.1-0.3,0.3-0.3,0.6c0,0.2,0.1,0.4,0.3,0.5c0.3,0.1,0.6,0.2,0.9,0.3l1.1,0.3c0.4,0.1,0.8,0.2,1.1,0.5
		c0.4,0.3,0.6,0.8,0.6,1.3c0,0.6-0.2,1.1-0.7,1.5c-0.6,0.4-1.2,0.6-1.9,0.6c-0.7,0-1.4-0.2-2-0.6c-0.5-0.4-0.8-1-0.7-1.6L122,157.6z
		"/>
	<path class="st5" d="M134,154.3h-3.4v1.4h3.2v1.1h-3.1v1.7h3.6v1.2h-4.9v-6.5h4.8L134,154.3z"/>
	<path class="st5" d="M137.9,153.8c1.2-1.1,3.1-1.1,4.2,0.2l0.1,0.1c0.3,0.3,0.4,0.8,0.4,1.2h-1.4c-0.1-0.3-0.2-0.5-0.3-0.7
		c-0.6-0.6-1.5-0.6-2.1,0c0,0-0.1,0.1-0.1,0.2c-0.3,0.5-0.5,1.1-0.4,1.7c0,0.6,0.1,1.2,0.4,1.6c0.3,0.3,0.7,0.6,1.1,0.6
		c0.4,0,0.8-0.2,1.1-0.5c0.2-0.2,0.3-0.5,0.3-0.8h1.3c-0.1,0.7-0.4,1.3-0.9,1.7c-0.5,0.5-1.2,0.7-1.8,0.7c-0.8,0-1.6-0.3-2.2-0.9
		C136.7,157.4,136.8,155.3,137.9,153.8L137.9,153.8z"/>
	<path class="st5" d="M146,153.1h1.4v4c0,0.3,0,0.7,0.1,1c0.4,0.6,1.3,0.7,1.9,0.3c0.1-0.1,0.2-0.2,0.3-0.3c0.1-0.3,0.2-0.7,0.1-1
		v-4h1.4v4c0,0.6-0.1,1.1-0.3,1.6c-1.1,1.3-3,1.4-4.2,0.3c-0.1-0.1-0.2-0.2-0.3-0.3c-0.2-0.5-0.3-1.1-0.3-1.6L146,153.1z"/>
	<path class="st5" d="M158.8,153.3c0.2,0.1,0.4,0.3,0.6,0.5c0.1,0.2,0.2,0.3,0.3,0.5s0.1,0.4,0.1,0.7s-0.1,0.6-0.2,0.9
		c-0.2,0.3-0.4,0.5-0.8,0.6c0.3,0.1,0.5,0.3,0.6,0.5c0.1,0.3,0.2,0.7,0.2,1v0.4c0,0.2,0,0.4,0,0.6c0,0.2,0.1,0.3,0.2,0.4v0.2h-1.5
		c-0.1-0.3-0.1-0.6-0.1-0.9v-0.6c0-0.3,0-0.6-0.2-0.8s-0.5-0.2-0.8-0.2h-1.3v2.5h-1.2v-6.5h3.1C158.1,153.1,158.5,153.2,158.8,153.3
		z M156,154.3v1.7h1.5c0.2,0,0.4,0,0.6-0.1c0.3-0.1,0.4-0.4,0.4-0.7s-0.1-0.6-0.4-0.8c-0.2-0.1-0.4-0.1-0.6-0.1L156,154.3z"/>
	<path class="st5" d="M164.5,159.6h-1.3v-6.5h1.3V159.6z"/>
	<path class="st5" d="M172.7,153.1v1.1h-2v5.3h-1.4v-5.3h-2v-1.1H172.7z"/>
	<path class="st5" d="M179.3,153.1h1.5l-2.2,4v2.4h-1.4v-2.4l-2.2-4h1.6l1.4,2.8L179.3,153.1z"/>
	<path class="st6" d="M136.1,40.3c-0.3,1.7-0.8,3.3-1.6,4.8v0.1c0.3,0.7,0.5,1,0.8,1s0.3-0.7,0.5-1.8l1.1,0.7
		c-0.2,0.6-0.4,1.1-0.6,1.7c-0.3,0.5-0.6,0.8-0.9,0.8s-0.9-0.4-1.3-1.2c-0.1-0.1-0.1-0.2-0.2-0.4c-0.4,0.6-0.9,1.1-1.4,1.5l-0.6-0.9
		c0.6-0.5,1.2-1.1,1.6-1.8c-0.2-0.5-0.3-1.1-0.5-1.8c-0.2-1.3-0.4-2.7-0.4-4h-4.9v2.4c0,2.1-0.3,4.2-0.9,6.1l-1-0.9
		c0.6-1.7,0.9-3.5,0.8-5.3V38h5.9c0-0.4,0-0.9,0-1.3h1.1c0,0.5,0,0.9,0,1.3h1c-0.1-0.3-0.3-0.7-0.5-1l1-0.2c0.2,0.4,0.4,0.8,0.5,1.2
		h0.8v1.1h-2.7c0,1.1,0.1,2.1,0.3,3.1c0.1,0.5,0.1,0.8,0.2,1.2c0.4-1.2,0.8-2.4,1-3.6L136.1,40.3z M128.1,41v-1h3.9v1h-1.5
		c-0.1,0.4-0.2,0.8-0.3,1.1h1.9V43c-0.1,0.8-0.4,1.5-0.8,2.2c0.3,0.2,0.5,0.4,0.8,0.5l-0.6,0.9c-0.2-0.2-0.5-0.4-0.8-0.6
		c-0.7,0.7-1.5,1.3-2.4,1.6l-0.6-1c0.7-0.3,1.4-0.7,2-1.3c-0.4-0.3-1-0.5-1.5-0.8c0.2-0.5,0.4-1,0.6-1.6h-0.7v-1h1.1
		c0.1-0.4,0.2-0.8,0.3-1.1L128.1,41z M131.1,43h-1.2c-0.1,0.4-0.3,0.8-0.4,1.1c0.3,0.1,0.6,0.3,0.9,0.5
		C130.7,44.1,130.9,43.6,131.1,43L131.1,43z"/>
	<path class="st6" d="M138.6,47.8l-0.9-0.8c0.5-1.3,0.8-2.6,0.8-4v-6h3.3v9.4c0,0.8-0.4,1.2-1,1.2H140l-0.3-1.1c0.3,0,0.5,0,0.7,0
		s0.3-0.2,0.3-0.6v-2.2h-1.2C139.4,45.2,139.1,46.5,138.6,47.8z M140.6,38.1h-1.1V40h1.1V38.1z M139.4,42.8h1.1V41h-1.1V42.8z
		 M145.2,36.7v1.8h2.2c0,4.1-0.1,6.7-0.2,7.7c-0.1,0.9-0.8,1.5-1.7,1.5h-0.1c-0.2,0-0.6,0-1.1-0.1l-0.3-1.1c0.5,0,0.8,0,1.2,0
		c0.5,0,0.8-0.3,0.9-0.9c0.1-0.6,0.1-2.6,0.1-6h-1.1v0.7c0,3.4-0.9,5.8-2.5,7.4l-0.9-0.7c1.5-1.4,2.3-3.6,2.3-6.6v-0.7h-2v-1.1h2
		v-1.9H145.2z M143.3,41.3c-0.1,1.1-0.2,2.2-0.5,3.2l-1-0.3c0.3-1,0.6-2,0.6-3L143.3,41.3z M148.9,44l-0.9,0.4
		c-0.2-1.2-0.4-2.2-0.6-3.2l0.8-0.2C148.4,42,148.7,43,148.9,44z"/>
	<path class="st6" d="M150.9,39.1c0,1.2-0.1,2.3-0.4,3.4l-0.9-0.2c0.2-1.1,0.4-2.2,0.4-3.2H150.9z M157.8,36.7v0.7h2.7v0.9h-2.7v0.6
		h2.3v0.9h-2.3v0.6h3v0.9h-7.2V41l-0.6,0.1c-0.2-0.7-0.4-1.3-0.6-2v8.6h-1.1v-11h1.1V39l0.7-0.2c0.2,0.5,0.4,1.1,0.6,1.7h3v-0.6
		h-2.3V39h2.4v-0.6h-2.7v-0.9h2.7v-0.7L157.8,36.7L157.8,36.7z M155.4,47.7h-1.1v-5.8h5.7v4.7c0,0.7-0.4,1.1-1.2,1.1h-0.9l-0.3-1
		l0.9,0.1c0.2,0,0.4-0.1,0.4-0.3c0,0,0,0,0-0.1v-0.5h-3.6L155.4,47.7z M159,42.8h-3.6v0.7h3.6V42.8z M155.4,45h3.6v-0.6h-3.6V45z"/>
	<path class="st6" d="M165.9,42.5c-0.4,0.2-0.9,0.4-1.3,0.6v3.4c0,0.8-0.4,1.2-1.1,1.2h-1.1l-0.3-1.1c0.3,0,0.7,0.1,1,0.1
		c0.2,0,0.4-0.1,0.4-0.3v-0.1v-2.7c-0.5,0.2-1,0.4-1.6,0.5l-0.3-1.1c0.6-0.1,1.3-0.3,1.9-0.5V40h-1.6v-1.1h1.6v-2.1h1.1v2.1h1.2V40
		h-1.1v2c0.4-0.2,0.9-0.4,1.3-0.6L165.9,42.5z M167.5,47.8h-1.1V37.1h5.5c0,0.9,0,1.9-0.2,2.8c-0.2,0.5-0.6,0.7-1.4,0.7h-0.9l-0.3-1
		h0.7c0.2,0,0.4,0,0.6,0c0.1,0,0.2-0.1,0.3-0.2c0.1-0.4,0.2-0.8,0.1-1.2h-3.4v3.2h4.5v1c-0.2,1.1-0.5,2.2-1.1,3.2
		c0.6,0.5,1.3,1,2,1.4l-0.8,0.9c-0.7-0.4-1.3-0.9-1.8-1.4c-0.6,0.6-1.3,1.1-2,1.4l-0.6-1c0.7-0.3,1.3-0.8,1.8-1.3
		c-0.7-0.9-1.2-1.9-1.4-3.1h-0.5L167.5,47.8z M170.1,44.7c0.4-0.7,0.7-1.5,0.9-2.2h-1.9C169.2,43.2,169.6,44,170.1,44.7z"/>
	<path class="st6" d="M111,64.2L111,64.2v6.3h-0.7v-7.2h0.8l4.2,6.3l0,0v-6.3h0.7v7.2h-0.8L111,64.2z"/>
	<path class="st6" d="M116.9,63.3h0.8l2.2,6.4l2.2-6.4h0.7l-2.5,7.2h-0.8L116.9,63.3z"/>
	<path class="st6" d="M123.7,70.5v-7.2h2.5h0.6c0.2,0,0.4,0,0.6,0.1c0.2,0,0.4,0.1,0.6,0.2c0.2,0.1,0.4,0.2,0.5,0.3
		c0.2,0.2,0.4,0.4,0.6,0.6s0.3,0.5,0.4,0.8c0.1,0.3,0.2,0.6,0.2,0.8c0,0.3,0,0.5,0,0.8c0,0.2,0,0.5,0,0.7s-0.1,0.5-0.1,0.7
		c-0.1,0.2-0.2,0.5-0.3,0.7c-0.1,0.2-0.3,0.4-0.4,0.6c-0.2,0.2-0.3,0.3-0.5,0.4s-0.4,0.2-0.6,0.3c-0.2,0.1-0.5,0.1-0.7,0.1
		s-0.5,0-0.7,0L123.7,70.5z M124.4,69.9h1.6c0.3,0,0.6,0,0.9-0.1c0.3,0,0.6-0.1,0.8-0.3c0.2-0.1,0.4-0.3,0.6-0.5s0.3-0.4,0.4-0.7
		c0.1-0.2,0.2-0.5,0.2-0.8s0.1-0.5,0.1-0.8s0-0.5,0-0.8s-0.1-0.5-0.2-0.8c-0.1-0.2-0.2-0.5-0.4-0.7c-0.2-0.2-0.4-0.4-0.6-0.5
		c-0.2-0.1-0.5-0.2-0.8-0.2s-0.6,0-0.9,0h-1.6L124.4,69.9z"/>
	<path class="st6" d="M137.8,68.7c0.1-0.2,0.2-0.4,0.2-0.7c0-0.2,0-0.5,0-0.7h0.6c0,0.3,0,0.7-0.1,1s-0.2,0.6-0.4,0.9l1.2,1.4h-0.8
		l-0.7-0.8c-0.3,0.3-0.6,0.6-1,0.8c-0.4,0.2-0.8,0.2-1.3,0.2c-0.3,0-0.6,0-0.9-0.2c-0.5-0.2-1-0.6-1.2-1.1c-0.1-0.3-0.2-0.6-0.2-0.9
		s0-0.5,0.1-0.7s0.2-0.4,0.4-0.6s0.3-0.4,0.6-0.5c0.2-0.1,0.4-0.3,0.7-0.4c-0.2-0.2-0.4-0.5-0.5-0.7c-0.2-0.3-0.2-0.6-0.2-0.9
		c0-0.2,0-0.4,0.1-0.6s0.2-0.3,0.4-0.4c0.1-0.1,0.3-0.2,0.5-0.3c0.2-0.1,0.4-0.1,0.6-0.1c0.2,0,0.4,0,0.6,0.1
		c0.2,0.1,0.3,0.2,0.5,0.3c0.1,0.1,0.2,0.3,0.3,0.4c0.1,0.2,0.1,0.3,0.1,0.5s0,0.4-0.1,0.6s-0.2,0.3-0.3,0.5
		c-0.1,0.1-0.3,0.3-0.5,0.4s-0.4,0.2-0.5,0.3L137.8,68.7z M135.4,66.8c-0.2,0.1-0.4,0.2-0.6,0.3c-0.2,0.1-0.3,0.3-0.4,0.4
		c-0.1,0.2-0.2,0.3-0.3,0.5s-0.1,0.4-0.1,0.6s0,0.4,0.1,0.7c0.1,0.2,0.2,0.3,0.3,0.5c0.1,0.1,0.3,0.2,0.5,0.3
		c0.2,0.1,0.4,0.1,0.6,0.1c0.4,0,0.7-0.1,1-0.3c0.3-0.2,0.6-0.4,0.8-0.7L135.4,66.8z M136.6,65.1c0.1-0.1,0.1-0.3,0.1-0.4
		s-0.1-0.3-0.1-0.4c-0.1-0.1-0.2-0.2-0.3-0.3c-0.1-0.1-0.3-0.1-0.5-0.1c-0.1,0-0.3,0-0.4,0.1c-0.1,0-0.2,0.1-0.3,0.2
		s-0.2,0.2-0.2,0.3c-0.1,0.1-0.1,0.2-0.1,0.4c0,0.1,0,0.2,0.1,0.3c0,0.1,0.1,0.3,0.2,0.4l0.2,0.3l0.2,0.3c0.2-0.1,0.4-0.2,0.6-0.4
		C136.4,65.5,136.5,65.3,136.6,65.1z"/>
	<path class="st6" d="M145.4,67.3l-2.1,3.2h-0.8l2.5-3.7l-2.4-3.5h0.8l2,3l2-3h0.8l-2.4,3.5l2.5,3.7h-0.8L145.4,67.3z"/>
	<path class="st6" d="M148.6,70.5l2.8-7.2h0.8l2.8,7.2h-0.7l-0.8-2.3h-3.3l-0.9,2.3H148.6z M150.4,67.7h2.8l-1.4-3.8L150.4,67.7z"/>
	<path class="st6" d="M156.1,70.5v-7.2h0.7v7.2H156.1z"/>
	<path class="st6" d="M162.1,70.5h-0.6v-7.2h0.6v2.8c0.2-0.3,0.5-0.6,0.8-0.7c0.3-0.2,0.7-0.2,1-0.2s0.7,0.1,1,0.2s0.5,0.3,0.7,0.6
		c0.2,0.3,0.3,0.6,0.4,0.9c0.1,0.3,0.1,0.7,0.1,1c0,0.4,0,0.7-0.1,1.1c-0.1,0.3-0.2,0.6-0.4,0.9c-0.2,0.2-0.4,0.4-0.7,0.6
		c-0.3,0.1-0.7,0.2-1.1,0.2c-0.2,0-0.3,0-0.5-0.1c-0.4-0.1-0.7-0.3-0.9-0.5c-0.1-0.1-0.3-0.3-0.3-0.5l0,0V70.5z M162.1,67.9
		c0,0.3,0,0.6,0.1,0.9c0.1,0.2,0.2,0.5,0.3,0.7s0.3,0.3,0.6,0.5c0.2,0.1,0.5,0.2,0.8,0.2c0.2,0,0.5,0,0.7-0.1s0.4-0.2,0.6-0.4
		c0.2-0.2,0.3-0.4,0.4-0.6c0.1-0.3,0.1-0.6,0.1-0.9s0-0.6-0.1-0.9s-0.2-0.5-0.3-0.8c-0.1-0.2-0.3-0.4-0.6-0.5
		c-0.2-0.1-0.5-0.2-0.8-0.2s-0.5,0.1-0.7,0.2s-0.4,0.3-0.6,0.5c-0.2,0.2-0.3,0.4-0.4,0.7C162.1,67.3,162.1,67.6,162.1,67.9z"/>
	<path class="st6" d="M169.9,67.5l0.4-0.1c0.1,0,0.3-0.1,0.4-0.1c0.1,0,0.2-0.1,0.2-0.2s0-0.2,0-0.3c0-0.3-0.1-0.6-0.3-0.8
		c-0.3-0.2-0.6-0.3-1-0.3c-0.2,0-0.4,0-0.6,0.1c-0.2,0-0.3,0.1-0.4,0.2c-0.1,0.1-0.2,0.2-0.3,0.4c-0.1,0.2-0.1,0.4-0.2,0.6h-0.6
		c0-0.3,0.1-0.5,0.2-0.8c0.1-0.2,0.3-0.4,0.5-0.5s0.4-0.2,0.7-0.3c0.3-0.1,0.5-0.1,0.8-0.1c0.2,0,0.5,0,0.7,0.1
		c0.2,0,0.4,0.1,0.6,0.3c0.2,0.1,0.3,0.3,0.4,0.5c0.1,0.2,0.2,0.5,0.1,0.8v2.8c0,0.2,0,0.3,0.1,0.4s0.2,0.1,0.5,0v0.5l-0.2,0.1
		c-0.1,0-0.2,0-0.3,0s-0.2,0-0.3,0s-0.2,0-0.2-0.1c-0.1,0-0.1-0.1-0.1-0.2s-0.1-0.1-0.1-0.2s0-0.2,0-0.3c-0.5,0.6-1.2,0.9-1.9,0.9
		c-0.2,0-0.4,0-0.7-0.1c-0.2-0.1-0.4-0.1-0.6-0.3c-0.2-0.1-0.3-0.3-0.4-0.5c-0.1-0.2-0.2-0.4-0.1-0.7c0-0.9,0.6-1.4,1.8-1.6
		L169.9,67.5z M170.9,67.8c-0.2,0.1-0.5,0.2-0.8,0.2s-0.5,0.1-0.8,0.1c-0.4,0-0.8,0.1-1.1,0.3c-0.3,0.2-0.4,0.5-0.4,0.8
		c0,0.1,0,0.3,0.1,0.4s0.1,0.2,0.2,0.3c0.1,0.1,0.2,0.1,0.4,0.2c0.1,0,0.3,0,0.4,0c0.2,0,0.5,0,0.7-0.1s0.4-0.1,0.6-0.3
		c0.4-0.3,0.6-0.7,0.6-1.2L170.9,67.8z"/>
	<path class="st6" d="M173.4,68.9c0,0.4,0.2,0.7,0.5,1c0.3,0.2,0.6,0.3,1,0.3c0.2,0,0.4,0,0.6-0.1c0.1,0,0.3-0.1,0.4-0.2
		c0.1-0.1,0.2-0.2,0.2-0.3c0.1-0.1,0.1-0.2,0.1-0.4c0-0.2-0.1-0.4-0.2-0.6c-0.2-0.1-0.4-0.2-0.6-0.3c-0.3-0.1-0.5-0.1-0.8-0.2
		c-0.3,0-0.5-0.1-0.8-0.2c-0.2-0.1-0.4-0.2-0.6-0.4c-0.2-0.2-0.3-0.5-0.2-0.8c0-0.4,0.2-0.8,0.5-1.1c0.4-0.3,0.9-0.4,1.3-0.4
		c0.5,0,1,0.1,1.4,0.4s0.6,0.8,0.6,1.2h-0.6c0-0.3-0.1-0.7-0.4-0.9c-0.3-0.2-0.6-0.3-0.9-0.2c-0.3,0-0.6,0.1-0.9,0.2
		c-0.2,0.2-0.3,0.4-0.3,0.6s0.1,0.4,0.2,0.5c0.2,0.1,0.4,0.2,0.6,0.3c0.2,0.1,0.5,0.1,0.8,0.2s0.5,0.1,0.8,0.3
		c0.2,0.1,0.5,0.2,0.6,0.4c0.2,0.2,0.3,0.5,0.2,0.8c0,0.2,0,0.5-0.2,0.7c-0.1,0.2-0.3,0.4-0.4,0.5c-0.2,0.1-0.4,0.2-0.7,0.3
		c-0.3,0.1-0.6,0.1-0.9,0.1c-0.3,0-0.5,0-0.8-0.1c-0.2-0.1-0.4-0.2-0.6-0.4c-0.2-0.2-0.3-0.4-0.4-0.6c-0.1-0.2-0.1-0.5-0.2-0.7
		L173.4,68.9z"/>
	<path class="st6" d="M178.4,68.1c0,0.3,0,0.5,0.1,0.8c0.1,0.2,0.2,0.5,0.3,0.7s0.3,0.3,0.5,0.4s0.5,0.2,0.8,0.2
		c0.4,0,0.7-0.1,1-0.3c0.3-0.2,0.5-0.5,0.6-0.9h0.7c-0.1,0.2-0.2,0.5-0.3,0.7s-0.3,0.4-0.4,0.6c-0.2,0.2-0.4,0.3-0.6,0.4
		c-0.3,0.1-0.6,0.1-0.9,0.1c-0.4,0-0.7-0.1-1.1-0.2c-0.3-0.1-0.5-0.3-0.7-0.6c-0.2-0.3-0.3-0.5-0.4-0.9c-0.1-0.3-0.1-0.7-0.1-1.1
		s0.1-0.7,0.2-1.1c0.1-0.3,0.3-0.6,0.5-0.9c0.2-0.2,0.5-0.5,0.7-0.6c0.3-0.2,0.7-0.2,1-0.2c0.6,0,1.3,0.2,1.7,0.7
		c0.4,0.6,0.7,1.4,0.6,2.1L178.4,68.1z M181.8,67.6c0-0.2,0-0.5-0.1-0.7s-0.2-0.4-0.3-0.6s-0.3-0.3-0.5-0.4c-0.4-0.2-1-0.2-1.4,0
		c-0.2,0.1-0.4,0.2-0.5,0.4c-0.1,0.2-0.3,0.4-0.4,0.6c-0.1,0.2-0.1,0.5-0.2,0.7H181.8z"/>
	<path class="st6" d="M187.6,63.3h0.6v7.2h-0.6v-0.9l0,0c-0.1,0.2-0.2,0.3-0.3,0.5c-0.1,0.1-0.3,0.2-0.4,0.3
		c-0.2,0.1-0.3,0.2-0.5,0.2s-0.3,0.1-0.5,0.1c-0.4,0-0.7-0.1-1.1-0.2c-0.3-0.1-0.5-0.3-0.7-0.6c-0.2-0.3-0.3-0.6-0.4-0.9
		c-0.1-0.4-0.1-0.7-0.1-1.1c0-0.3,0.1-0.7,0.1-1c0.1-0.3,0.2-0.6,0.4-0.9s0.4-0.5,0.7-0.6c0.3-0.2,0.7-0.2,1-0.2
		c0.4,0,0.7,0.1,1.1,0.2c0.3,0.2,0.6,0.4,0.8,0.7L187.6,63.3z M187.6,67.9c0-0.3,0-0.6-0.1-0.8c-0.1-0.2-0.2-0.5-0.3-0.7
		s-0.3-0.4-0.6-0.5c-0.2-0.1-0.5-0.2-0.7-0.2c-0.3,0-0.6,0.1-0.8,0.2s-0.4,0.3-0.6,0.5c-0.1,0.2-0.3,0.5-0.3,0.8
		c-0.1,0.3-0.1,0.6-0.1,0.9s0,0.6,0.1,0.9c0.1,0.2,0.2,0.4,0.4,0.6s0.3,0.3,0.6,0.4c0.2,0.1,0.5,0.1,0.7,0.1c0.3,0,0.5-0.1,0.8-0.2
		c0.2-0.1,0.4-0.3,0.6-0.5c0.2-0.2,0.3-0.4,0.3-0.7C187.6,68.5,187.6,68.2,187.6,67.9z"/>
	<path class="st6" d="M108,75.3h5.2v0.6h-2.3v6.6h-0.7v-6.6h-2.3L108,75.3z"/>
	<path class="st6" d="M114.1,82.5v-7.2h0.6V78c0.2-0.2,0.5-0.4,0.7-0.6c0.3-0.2,0.6-0.2,0.9-0.2s0.6,0.1,0.9,0.2s0.5,0.3,0.7,0.6
		c0.1,0.2,0.2,0.4,0.2,0.6s0,0.4,0,0.6v3.4h-0.4v-3.4c0-0.4-0.1-0.7-0.3-1c-0.3-0.3-0.6-0.4-1-0.3c-0.3,0-0.7,0.1-0.9,0.3
		c-0.1,0.1-0.2,0.2-0.3,0.3c-0.1,0.1-0.2,0.2-0.2,0.4c-0.1,0.2-0.1,0.3-0.1,0.5s0,0.3,0,0.5v2.8L114.1,82.5z"/>
	<path class="st6" d="M120.3,82.5h-0.6v-5.2h0.6v1l0,0c0.1-0.3,0.3-0.6,0.6-0.9c0.3-0.2,0.7-0.3,1-0.2v0.7c-0.3,0-0.6,0-0.8,0.2
		c-0.2,0.1-0.4,0.3-0.5,0.5s-0.2,0.4-0.3,0.7c0,0.3-0.1,0.5-0.1,0.8L120.3,82.5z"/>
	<path class="st6" d="M123.4,80.1c0,0.3,0,0.5,0.1,0.8c0.1,0.2,0.2,0.5,0.3,0.7c0.1,0.2,0.3,0.3,0.6,0.4c0.2,0.1,0.5,0.2,0.8,0.2
		c0.4,0,0.7-0.1,1-0.3c0.3-0.2,0.5-0.5,0.6-0.9h0.7c-0.1,0.2-0.2,0.5-0.3,0.7c-0.1,0.2-0.3,0.4-0.5,0.6s-0.4,0.3-0.6,0.4
		c-0.6,0.2-1.3,0.2-1.9-0.1c-0.3-0.1-0.5-0.3-0.7-0.6c-0.2-0.3-0.4-0.5-0.4-0.9c-0.1-0.3-0.1-0.7-0.1-1.1s0.1-0.7,0.2-1.1
		c0.1-0.3,0.3-0.6,0.5-0.9c0.2-0.2,0.5-0.5,0.7-0.6c0.3-0.2,0.7-0.2,1-0.2c0.6,0,1.3,0.2,1.7,0.7c0.4,0.6,0.7,1.4,0.6,2.1
		L123.4,80.1z M126.8,79.6c0-0.2,0-0.5-0.1-0.7s-0.2-0.4-0.3-0.6c-0.1-0.2-0.3-0.3-0.5-0.4c-0.4-0.2-1-0.2-1.4,0
		c-0.2,0.1-0.4,0.2-0.5,0.4c-0.1,0.2-0.3,0.4-0.3,0.6c-0.1,0.2-0.1,0.5-0.2,0.7H126.8z"/>
	<path class="st6" d="M131,79.5l0.4-0.1c0.1,0,0.3-0.1,0.4-0.1c0.1,0,0.2-0.1,0.2-0.2s0-0.2,0-0.3c0-0.3-0.1-0.6-0.3-0.8
		c-0.3-0.2-0.6-0.3-1-0.3c-0.2,0-0.4,0-0.6,0.1c-0.2,0-0.3,0.1-0.4,0.2c-0.1,0.1-0.2,0.2-0.3,0.4c-0.1,0.2-0.1,0.4-0.2,0.6h-0.6
		c0-0.3,0.1-0.5,0.2-0.8c0.1-0.2,0.3-0.4,0.5-0.5s0.4-0.2,0.7-0.3c0.3-0.1,0.5-0.1,0.8-0.1c0.2,0,0.5,0,0.7,0.1
		c0.2,0,0.4,0.1,0.6,0.3c0.2,0.1,0.3,0.3,0.4,0.5c0.1,0.2,0.2,0.5,0.1,0.8v2.8c0,0.2,0,0.4,0.1,0.4s0.2,0.1,0.5,0v0.5l-0.2,0.1
		c-0.1,0-0.2,0-0.3,0s-0.2,0-0.3,0s-0.2,0-0.2-0.1c-0.1-0.1-0.1-0.1-0.1-0.2s-0.1-0.2-0.1-0.2c0-0.1,0-0.2,0-0.3
		c-0.2,0.3-0.5,0.5-0.9,0.6c-0.3,0.1-0.7,0.2-1.1,0.2c-0.2,0-0.4,0-0.7-0.1c-0.2-0.1-0.4-0.1-0.6-0.3c-0.2-0.1-0.3-0.3-0.4-0.5
		c-0.1-0.2-0.1-0.4-0.1-0.7c0-0.9,0.6-1.4,1.8-1.6L131,79.5z M132,79.8c-0.2,0.1-0.5,0.2-0.8,0.2s-0.5,0.1-0.8,0.1
		c-0.4,0-0.7,0.1-1.1,0.3c-0.3,0.2-0.4,0.5-0.4,0.8c0,0.1,0,0.3,0.1,0.4c0.1,0.1,0.1,0.2,0.2,0.3c0.1,0.1,0.2,0.1,0.4,0.2
		c0.1,0,0.3,0,0.4,0c0.2,0,0.5,0,0.7-0.1s0.4-0.1,0.6-0.3c0.2-0.1,0.3-0.3,0.4-0.5c0.1-0.2,0.2-0.4,0.1-0.7v-0.7
		C131.8,79.8,132,79.8,132,79.8z"/>
	<path class="st6" d="M136,82.5l-0.3,0.1c-0.1,0-0.3,0-0.4,0.1c-0.2,0-0.5-0.1-0.7-0.2c-0.2-0.2-0.3-0.5-0.2-0.8v-3.8h-0.7v-0.5h0.7
		V76h0.6v1.4h1v0.5h-1v3.9c0,0.1,0,0.2,0.1,0.2c0,0.1,0.1,0.1,0.1,0.1c0.1,0,0.2,0,0.3,0s0.2,0,0.2,0h0.2L136,82.5z"/>
	<path class="st6" d="M140.1,82.5v-7.2h0.6v7.2H140.1z"/>
	<path class="st6" d="M143.1,82.5h-0.6v-5.2h0.6V78c0.2-0.2,0.5-0.4,0.7-0.6c0.3-0.2,0.6-0.2,0.9-0.2c0.3,0,0.6,0.1,0.9,0.2
		c0.3,0.1,0.5,0.3,0.7,0.6c0.1,0.2,0.2,0.4,0.2,0.6s0,0.4,0,0.6v3.4h-0.6v-3.4c0-0.4-0.1-0.7-0.3-1c-0.3-0.3-0.6-0.4-1-0.3
		c-0.3,0-0.7,0-1,0.2c-0.1,0.1-0.2,0.2-0.3,0.3c-0.1,0.1-0.2,0.2-0.2,0.4c0,0.2-0.1,0.3-0.1,0.5s0,0.3,0,0.5L143.1,82.5z"/>
	<path class="st6" d="M149.9,82.5l-0.3,0.1c-0.1,0-0.3,0.1-0.4,0.1c-0.2,0-0.5-0.1-0.7-0.2c-0.2-0.2-0.3-0.5-0.2-0.8v-3.8h-0.7v-0.5
		h0.7V76h0.6v1.4h1v0.5h-1v3.6c0,0.1,0,0.2,0,0.3c0,0.1,0,0.2,0,0.2c0,0.1,0.1,0.1,0.2,0.1c0.1,0,0.2,0,0.3,0s0.2,0,0.2,0h0.2
		L149.9,82.5z"/>
	<path class="st6" d="M151.2,80.1c0,0.3,0,0.5,0.1,0.8c0.1,0.2,0.2,0.5,0.3,0.7s0.3,0.3,0.5,0.4s0.5,0.2,0.8,0.2
		c0.4,0,0.7-0.1,1-0.3c0.3-0.2,0.5-0.5,0.6-0.9h0.7c-0.1,0.2-0.2,0.5-0.3,0.7s-0.3,0.4-0.4,0.6c-0.2,0.2-0.4,0.3-0.6,0.4
		c-0.3,0.1-0.6,0.1-0.9,0.1c-0.4,0-0.7-0.1-1.1-0.2c-0.3-0.1-0.5-0.3-0.7-0.6c-0.2-0.3-0.3-0.6-0.4-0.9c-0.1-0.3-0.1-0.7-0.1-1.1
		s0.1-0.7,0.2-1.1c0.1-0.3,0.3-0.6,0.5-0.9s0.5-0.5,0.8-0.6c0.3-0.2,0.7-0.2,1-0.2c0.6,0,1.3,0.2,1.7,0.7c0.4,0.6,0.6,1.4,0.6,2.1
		L151.2,80.1z M154.6,79.6c0-0.2,0-0.5-0.1-0.7s-0.2-0.4-0.3-0.6s-0.3-0.3-0.5-0.4s-0.5-0.2-0.7-0.2s-0.5,0-0.7,0.2
		c-0.2,0.1-0.4,0.2-0.5,0.4c-0.1,0.2-0.3,0.4-0.3,0.6c-0.1,0.2-0.1,0.5-0.2,0.7H154.6z"/>
	<path class="st6" d="M156.5,82.5v-7.2h0.6v7.2H156.5z"/>
	<path class="st6" d="M158.7,82.5v-7.2h0.6v7.2H158.7z"/>
	<path class="st6" d="M160.9,76.2v-0.9h0.7v0.9H160.9z M160.9,82.5v-5.2h0.6v5.2H160.9z"/>
	<path class="st6" d="M167.1,77.3h0.6V82c0,0.3,0,0.7-0.1,1s-0.2,0.6-0.4,0.8c-0.2,0.3-0.4,0.5-0.7,0.6c-0.4,0.2-0.8,0.2-1.2,0.2
		c-0.3,0-0.7,0-1-0.1c-0.2-0.1-0.5-0.2-0.7-0.4c-0.2-0.1-0.3-0.3-0.4-0.5c-0.1-0.2-0.1-0.3-0.1-0.5h0.7c0,0.2,0.1,0.3,0.2,0.5
		c0.1,0.1,0.2,0.2,0.4,0.3c0.1,0.1,0.3,0.1,0.4,0.1c0.2,0,0.3,0,0.5,0c0.3,0,0.7-0.1,1-0.2c0.2-0.1,0.4-0.3,0.6-0.6
		c0.1-0.2,0.2-0.5,0.2-0.8s0-0.6,0-0.9c-0.2,0.3-0.5,0.6-0.8,0.7c-0.3,0.2-0.7,0.2-1.1,0.2c-0.3,0-0.7-0.1-1-0.2s-0.5-0.3-0.7-0.6
		c-0.2-0.3-0.3-0.6-0.4-0.9c-0.1-0.3-0.1-0.7-0.1-1c0-0.4,0-0.7,0.1-1.1c0.1-0.3,0.2-0.6,0.4-0.9c0.2-0.2,0.4-0.4,0.7-0.6
		c0.3-0.1,0.7-0.2,1.1-0.2c0.2,0,0.3,0,0.5,0.1s0.3,0.1,0.5,0.2s0.3,0.2,0.4,0.3c0.1,0.1,0.2,0.3,0.3,0.4l0,0L167.1,77.3z
		 M167.1,79.9c0-0.3,0-0.6-0.1-0.9s-0.2-0.5-0.3-0.7s-0.3-0.4-0.6-0.5c-0.2-0.1-0.5-0.2-0.8-0.2c-0.2,0-0.5,0-0.7,0.1
		s-0.4,0.2-0.6,0.4c-0.2,0.2-0.3,0.4-0.4,0.6c-0.1,0.3-0.1,0.6-0.1,0.9s0,0.6,0.1,0.9s0.2,0.5,0.3,0.7s0.3,0.4,0.6,0.5
		s0.5,0.2,0.8,0.2s0.5-0.1,0.7-0.2s0.4-0.3,0.6-0.5c0.2-0.2,0.3-0.4,0.3-0.7C167,80.5,167.1,80.2,167.1,79.9z"/>
	<path class="st6" d="M169.5,80.1c0,0.3,0,0.5,0.1,0.8c0.1,0.2,0.2,0.5,0.3,0.7s0.3,0.3,0.5,0.4s0.5,0.2,0.8,0.2
		c0.4,0,0.7-0.1,1-0.3c0.3-0.2,0.5-0.5,0.6-0.9h0.7c-0.1,0.2-0.2,0.5-0.3,0.7s-0.3,0.4-0.4,0.6c-0.2,0.2-0.4,0.3-0.6,0.4
		c-0.6,0.2-1.3,0.2-1.9-0.1c-0.3-0.1-0.5-0.3-0.7-0.6c-0.2-0.3-0.4-0.5-0.4-0.9c-0.1-0.3-0.1-0.7-0.1-1.1s0.1-0.7,0.2-1.1
		c0.1-0.3,0.3-0.6,0.5-0.9c0.2-0.2,0.5-0.5,0.7-0.6c0.3-0.2,0.7-0.2,1-0.2c0.6,0,1.3,0.2,1.7,0.7c0.4,0.6,0.7,1.4,0.6,2.1
		L169.5,80.1z M172.9,79.6c0-0.2,0-0.5-0.1-0.7s-0.2-0.4-0.3-0.6s-0.3-0.3-0.5-0.4c-0.4-0.2-1-0.2-1.4,0c-0.2,0.1-0.4,0.2-0.5,0.4
		c-0.1,0.2-0.3,0.4-0.4,0.6c-0.1,0.2-0.1,0.5-0.2,0.7H172.9z"/>
	<path class="st6" d="M175.3,82.5h-0.6v-5.2h0.6V78c0.2-0.2,0.5-0.4,0.8-0.6s0.6-0.2,0.9-0.2c0.3,0,0.6,0.1,0.9,0.2
		c0.3,0.1,0.5,0.3,0.7,0.6c0.1,0.2,0.2,0.4,0.2,0.6s0,0.4,0,0.6v3.4h-0.6v-3.4c0-0.4-0.1-0.7-0.3-1c-0.3-0.3-0.6-0.4-1-0.3
		c-0.2,0-0.3,0-0.5,0.1c-0.1,0.1-0.3,0.1-0.4,0.2c-0.1,0.1-0.2,0.2-0.3,0.3c-0.1,0.1-0.1,0.2-0.2,0.4c-0.1,0.2-0.1,0.3-0.1,0.5
		s0,0.3,0,0.5L175.3,82.5L175.3,82.5z"/>
	<path class="st6" d="M183.9,79c-0.1-0.4-0.3-0.7-0.6-0.9c-0.3-0.2-0.6-0.3-1-0.3c-0.5,0-1,0.2-1.3,0.7c-0.1,0.2-0.2,0.5-0.3,0.7
		c-0.1,0.3-0.1,0.5-0.1,0.8s0,0.5,0.1,0.8s0.2,0.5,0.3,0.7s0.3,0.4,0.5,0.5s0.5,0.2,0.8,0.2c0.4,0,0.8-0.1,1.1-0.4s0.5-0.6,0.5-1
		h0.6c0,0.3-0.1,0.5-0.2,0.8c-0.1,0.2-0.3,0.4-0.4,0.6c-0.2,0.2-0.4,0.3-0.7,0.4s-0.6,0.1-0.9,0.1c-0.4,0-0.7-0.1-1.1-0.2
		c-0.3-0.1-0.5-0.3-0.7-0.6c-0.2-0.3-0.3-0.6-0.4-0.9c-0.1-0.3-0.1-0.7-0.1-1.1c0-0.3,0.1-0.7,0.2-1c0.1-0.3,0.2-0.6,0.4-0.9
		s0.5-0.5,0.8-0.6c0.3-0.2,0.7-0.2,1-0.2c0.5,0,1,0.1,1.5,0.4c0.4,0.3,0.6,0.8,0.7,1.3L183.9,79z"/>
	<path class="st6" d="M186.2,80.1c0,0.3,0,0.5,0.1,0.8c0.1,0.2,0.2,0.5,0.3,0.7s0.3,0.3,0.5,0.4s0.5,0.2,0.8,0.2
		c0.4,0,0.7-0.1,1-0.3c0.3-0.2,0.5-0.5,0.6-0.9h0.7c-0.1,0.2-0.2,0.5-0.3,0.7s-0.3,0.4-0.4,0.6c-0.2,0.2-0.4,0.3-0.6,0.4
		c-0.3,0.1-0.6,0.1-0.9,0.1c-0.4,0-0.7-0.1-1.1-0.2c-0.3-0.1-0.5-0.3-0.7-0.6c-0.2-0.3-0.3-0.6-0.4-0.9c-0.1-0.3-0.1-0.7-0.1-1.1
		s0.1-0.7,0.2-1.1c0.1-0.3,0.3-0.6,0.5-0.9c0.2-0.2,0.5-0.5,0.7-0.6c0.3-0.2,0.7-0.2,1-0.2c0.6,0,1.3,0.2,1.7,0.7
		c0.4,0.6,0.7,1.4,0.6,2.1L186.2,80.1z M189.6,79.6c0-0.2,0-0.5-0.1-0.7s-0.2-0.4-0.3-0.6s-0.3-0.3-0.5-0.4c-0.4-0.2-1-0.2-1.4,0
		c-0.2,0.1-0.4,0.2-0.5,0.4c-0.1,0.2-0.3,0.4-0.4,0.6c-0.1,0.2-0.1,0.5-0.2,0.7H189.6z"/>
	<path class="st6" d="M184.6,210l-0.3-1.1h1.1c0.3,0,0.4-0.1,0.4-0.4v-8h-7.5v9.6h-1.1v-10.6h9.8v9.4c0.1,0.6-0.3,1.1-0.9,1.2
		c-0.1,0-0.2,0-0.3,0L184.6,210z M180.7,205.9c-0.4,1-0.8,1.9-1.4,2.8l-0.7-0.9c0.6-0.9,1.1-1.9,1.4-3c-0.5-0.7-1-1.4-1.6-2l0.7-0.7
		c0.4,0.4,0.8,0.9,1.2,1.5c0.2-0.8,0.3-1.6,0.5-2.4l1,0.2c-0.2,1.1-0.4,2.2-0.7,3.3c0.4,0.6,0.8,1.2,1.3,1.9l-0.8,0.8
		C181.3,206.8,181,206.4,180.7,205.9z M184.1,206.2c-0.4,1-0.9,1.9-1.6,2.8l-0.7-0.9c0.6-0.9,1.2-1.9,1.6-3c-0.5-0.7-1-1.4-1.6-2.1
		l0.7-0.7c0.4,0.5,0.8,1,1.2,1.6c0.2-0.9,0.4-1.7,0.5-2.6l1,0.2c-0.2,1.2-0.5,2.4-0.8,3.6c0.4,0.7,0.9,1.4,1.4,2.2l-0.8,0.8
		C184.7,207.3,184.4,206.7,184.1,206.2L184.1,206.2z"/>
	<path class="st6" d="M191.7,199.4c-0.5,1.2-1,2.4-1.7,3.5c0.4,0,0.8-0.1,1.2-0.2l0.6-1.2l1,0.4c0,0.1-0.1,0.1-0.1,0.2
		c1-0.8,1.7-1.8,2-3l1.1,0.2c-0.1,0.3-0.2,0.5-0.3,0.8h3.1v0.8c-0.4,1-1,1.8-1.8,2.5c0.9,0.6,1.8,1,2.8,1.3l-0.6,0.9
		c-1.1-0.3-2.1-0.8-3-1.5c-0.9,0.7-1.9,1.2-3,1.6l-0.7-0.9c1-0.3,2-0.8,2.9-1.4c-0.4-0.4-0.7-0.8-1-1.2c-0.3,0.3-0.6,0.6-1,0.9
		l-0.6-0.9c-0.6,1.3-1.4,2.6-2.2,3.8c0.8-0.2,1.5-0.4,2.3-0.7v1c-1.2,0.4-2.4,0.7-3.6,0.9l-0.3-1c0.2-0.1,0.4-0.2,0.5-0.3
		c0.5-0.6,1-1.3,1.4-2.1l-1.7,0.3l-0.3-1c0.2-0.1,0.4-0.2,0.5-0.4c0.6-1.2,1.1-2.4,1.5-3.6L191.7,199.4z M192.9,208.6
		c-1.3,0.5-2.6,0.8-4,1.1l-0.1-1.1c1.4-0.2,2.8-0.5,4.1-1V208.6z M198.7,210h-1.1v-0.4h-2.9v0.4h-1.1v-4.5h5.1V210z M197.6,208.5v-2
		h-2.9v2H197.6z M196.1,202.7c0.5-0.5,1-1,1.4-1.6h-2.4l-0.1,0.2C195.2,201.8,195.6,202.3,196.1,202.7L196.1,202.7z"/>
	<path class="st6" d="M203.2,203.7c0,2.3-0.6,4.5-1.9,6.4l-0.8-0.9c1-1.7,1.6-3.7,1.5-5.7v-3.7c2.7,0,5.5-0.3,8.2-0.8l0.5,1
		c-2.5,0.5-5,0.7-7.5,0.8v1.8h7.1v1c-0.4,1.4-1.2,2.7-2.3,3.8c1.1,0.7,2.3,1.3,3.5,1.7l-0.6,1c-1.3-0.5-2.5-1.2-3.7-2
		c-1.2,0.9-2.6,1.5-4,2l-0.6-1c1.3-0.4,2.6-1,3.7-1.8c-1.1-1-1.9-2.3-2.4-3.7L203.2,203.7z M209.2,203.7h-4.1c0.4,1.2,1.1,2.2,2.1,3
		C208.1,205.9,208.8,204.9,209.2,203.7L209.2,203.7z"/>
	<path class="st6" d="M213.3,202.6l-0.9-0.7c0.6-0.7,1-1.6,1.1-2.6l1.1,0.2c-0.1,0.3-0.1,0.6-0.2,0.9h1.1V199h1.1v1.4h2.1v1h-2.1
		v1.3h2.5v1.1h-2.5v1h2.3v3.2c0.1,0.6-0.3,1.1-0.9,1.2c-0.1,0-0.2,0-0.3,0h-0.6l-0.3-1.1h0.5c0.3,0,0.5-0.1,0.5-0.4V206h-1.2v4.2
		h-1.1V206h-1.2v3.4h-1.1v-4.5h2.3v-1h-2.8v-1.1h2.8v-1.3h-1.4C213.9,202,213.6,202.3,213.3,202.6z M220.8,200.1v7.3h-1.1v-7.3
		H220.8z M220.2,210l-0.3-1.1c0.6,0.1,1.1,0.1,1.6,0.1c0.3,0,0.5-0.2,0.5-0.5v-9.4h1.1v9.7c0.1,0.6-0.3,1.1-0.9,1.2
		c-0.1,0-0.2,0-0.3,0H220.2z"/>
	<path class="st6" d="M164.5,232.9v-7.2h2.6c0.4,0,0.7,0,1.1,0.1c0.3,0.1,0.5,0.2,0.7,0.4s0.3,0.4,0.4,0.6c0.1,0.2,0.1,0.5,0.1,0.7
		s0,0.4-0.1,0.7c-0.1,0.2-0.1,0.3-0.3,0.5c-0.1,0.1-0.2,0.2-0.4,0.3c-0.1,0.1-0.3,0.1-0.4,0.1l0,0c0.4,0,0.8,0.3,1.1,0.6
		c0.2,0.3,0.4,0.8,0.4,1.2c0,0.3,0,0.6-0.2,0.9c-0.1,0.2-0.3,0.5-0.5,0.6c-0.2,0.2-0.5,0.3-0.7,0.4c-0.3,0.1-0.7,0.1-1,0.1
		L164.5,232.9z M165.1,228.9h1.7c0.3,0,0.6,0,0.9-0.1c0.2,0,0.4-0.1,0.6-0.3c0.1-0.1,0.3-0.3,0.3-0.4c0.1-0.2,0.1-0.4,0.1-0.6
		c0-0.2,0-0.4-0.1-0.6c-0.1-0.2-0.2-0.3-0.4-0.4c-0.2-0.1-0.4-0.2-0.6-0.2c-0.3-0.1-0.7-0.1-1-0.1H165L165.1,228.9z M165.1,232.3
		h1.7c0.3,0,0.7,0,1,0c0.2,0,0.5-0.1,0.7-0.2c0.2-0.1,0.3-0.3,0.4-0.4c0.1-0.2,0.1-0.5,0.1-0.8c0-0.2,0-0.5-0.1-0.7
		s-0.2-0.3-0.4-0.4c-0.2-0.1-0.4-0.2-0.7-0.2s-0.6-0.1-0.9-0.1h-1.8V232.3z"/>
	<path class="st6" d="M171.7,232.9h-0.6v-5.2h0.6v1l0,0c0.1-0.3,0.3-0.6,0.6-0.9c0.3-0.2,0.6-0.3,1-0.2v0.6c-0.3,0-0.6,0-0.8,0.2
		c-0.2,0.1-0.4,0.3-0.5,0.5s-0.2,0.4-0.3,0.7s-0.1,0.5-0.1,0.8L171.7,232.9z"/>
	<path class="st6" d="M174.7,230.4c0,0.3,0,0.5,0.1,0.8c0.1,0.2,0.2,0.5,0.3,0.6c0.1,0.2,0.3,0.3,0.5,0.4c0.2,0.1,0.5,0.2,0.8,0.2
		c0.4,0,0.7-0.1,1-0.3s0.5-0.5,0.6-0.9h0.7c-0.1,0.2-0.2,0.5-0.3,0.7s-0.3,0.4-0.4,0.6c-0.2,0.2-0.4,0.3-0.6,0.4
		c-0.3,0.1-0.6,0.1-0.9,0.1c-0.4,0-0.7-0.1-1.1-0.2c-0.3-0.1-0.5-0.3-0.7-0.6s-0.3-0.5-0.4-0.9c-0.1-0.3-0.1-0.7-0.1-1.1
		c0-0.4,0.1-0.7,0.2-1.1c0.1-0.3,0.3-0.6,0.5-0.9c0.2-0.2,0.5-0.5,0.7-0.6c0.3-0.1,0.7-0.2,1-0.2c0.6,0,1.3,0.2,1.7,0.7
		c0.4,0.6,0.7,1.4,0.6,2.1h-4.2V230.4z M178.1,229.9c0-0.2,0-0.5-0.1-0.7s-0.2-0.4-0.3-0.6c-0.5-0.5-1.3-0.7-1.9-0.4
		c-0.2,0.1-0.4,0.2-0.5,0.4s-0.3,0.4-0.4,0.6c-0.1,0.2-0.1,0.5-0.2,0.7H178.1z"/>
	<path class="st6" d="M182.3,229.9l0.4-0.1c0.1,0,0.3-0.1,0.4-0.1c0.1,0,0.2-0.1,0.2-0.2c0-0.1,0-0.2,0-0.3c0-0.3-0.1-0.6-0.3-0.8
		c-0.3-0.2-0.6-0.3-1-0.3c-0.2,0-0.4,0-0.6,0.1c-0.2,0-0.3,0.1-0.4,0.2c-0.1,0.1-0.2,0.2-0.3,0.4s-0.1,0.4-0.2,0.6h-0.6
		c0-0.3,0.1-0.5,0.2-0.8c0.1-0.2,0.3-0.4,0.5-0.5s0.4-0.2,0.7-0.3s0.5-0.1,0.8-0.1c0.2,0,0.5,0,0.7,0.1c0.2,0,0.4,0.1,0.6,0.3
		c0.2,0.1,0.3,0.3,0.4,0.5c0.1,0.2,0.2,0.5,0.1,0.8v2.8c0,0.2,0.1,0.4,0.1,0.4s0.2,0,0.5-0.1v0.5l-0.2,0.1c-0.1,0-0.2,0-0.3,0
		s-0.2,0-0.3,0s-0.2,0-0.2-0.1c-0.1-0.1-0.1-0.1-0.1-0.2c0-0.1-0.1-0.2-0.1-0.2c0-0.1,0-0.2,0-0.3c-0.2,0.3-0.5,0.5-0.9,0.6
		c-0.3,0.2-0.7,0.2-1.1,0.2c-0.2,0-0.4,0-0.6-0.1c-0.2-0.1-0.4-0.1-0.6-0.3c-0.2-0.1-0.3-0.3-0.4-0.5c-0.1-0.2-0.1-0.4-0.1-0.7
		c0-0.9,0.6-1.4,1.8-1.6L182.3,229.9z M183.3,230.2c-0.2,0.1-0.5,0.2-0.8,0.2s-0.5,0.1-0.8,0.1c-0.4,0-0.7,0.1-1.1,0.3
		c-0.3,0.2-0.4,0.5-0.4,0.8c0,0.1,0,0.3,0.1,0.4c0.1,0.1,0.1,0.2,0.2,0.3c0.1,0.1,0.2,0.1,0.4,0.2c0.1,0,0.3,0.1,0.4,0.1
		c0.2,0,0.5,0,0.7-0.1s0.4-0.1,0.6-0.3c0.4-0.3,0.6-0.7,0.6-1.1v-0.9H183.3z"/>
	<path class="st6" d="M189.2,229.3c-0.1-0.4-0.3-0.7-0.6-0.9s-0.6-0.3-1-0.3c-0.5,0-1,0.2-1.3,0.7c-0.1,0.2-0.2,0.5-0.3,0.7
		c-0.1,0.3-0.1,0.5-0.1,0.8s0,0.5,0.1,0.8s0.2,0.5,0.3,0.7s0.3,0.4,0.5,0.5s0.5,0.2,0.8,0.2c0.4,0,0.8-0.1,1.1-0.4
		c0.3-0.3,0.5-0.6,0.5-1h0.6c0,0.3-0.1,0.5-0.2,0.8c-0.1,0.2-0.3,0.4-0.4,0.6c-0.2,0.2-0.4,0.3-0.7,0.4c-0.3,0.1-0.6,0.1-0.9,0.1
		c-0.4,0-0.7-0.1-1.1-0.2c-0.3-0.1-0.5-0.3-0.7-0.6s-0.3-0.6-0.4-0.9c-0.1-0.3-0.1-0.7-0.1-1.1c0-0.3,0.1-0.7,0.2-1
		c0.1-0.3,0.2-0.6,0.4-0.9c0.2-0.3,0.5-0.5,0.8-0.6c0.3-0.2,0.7-0.2,1-0.2c0.5,0,1,0.1,1.5,0.4c0.4,0.3,0.6,0.8,0.7,1.3L189.2,229.3
		z"/>
	<path class="st6" d="M191.1,232.9v-7.2h0.6v2.7c0.2-0.2,0.5-0.4,0.8-0.6c0.3-0.2,0.6-0.2,0.9-0.2c0.3,0,0.6,0.1,0.9,0.2
		c0.3,0.1,0.5,0.3,0.7,0.6c0.1,0.2,0.2,0.4,0.2,0.6c0,0.2,0,0.4,0,0.6v3.4h-0.6v-3.4c0-0.4-0.1-0.7-0.3-1.1c-0.3-0.3-0.6-0.4-1-0.4
		c-0.2,0-0.3,0-0.5,0.1c-0.1,0.1-0.3,0.1-0.4,0.2c-0.1,0.1-0.2,0.2-0.3,0.3s-0.1,0.2-0.2,0.4c-0.1,0.2-0.1,0.3-0.1,0.5s0,0.3,0,0.5
		v2.8L191.1,232.9L191.1,232.9z"/>
	<path class="st6" d="M203.6,231c0.1-0.2,0.2-0.4,0.2-0.7c0-0.2,0.1-0.5,0.1-0.7h0.6c0,0.3,0,0.7-0.1,1s-0.2,0.6-0.4,0.9l1.2,1.4
		h-0.8l-0.7-0.9c-0.3,0.3-0.6,0.6-1,0.8s-0.8,0.2-1.3,0.2c-0.3,0-0.6,0-0.9-0.1c-0.3-0.1-0.5-0.2-0.7-0.4s-0.4-0.4-0.5-0.7
		s-0.2-0.6-0.2-0.9c0-0.3,0-0.5,0.1-0.7s0.2-0.4,0.4-0.6c0.2-0.2,0.3-0.3,0.5-0.5c0.2-0.1,0.4-0.3,0.7-0.4c-0.2-0.2-0.4-0.5-0.5-0.7
		c-0.2-0.3-0.2-0.6-0.2-0.9c0-0.4,0.2-0.8,0.5-1.1c0.2-0.1,0.3-0.2,0.5-0.3s0.4-0.1,0.6-0.1c0.2,0,0.4,0,0.6,0.1
		c0.2,0.1,0.3,0.2,0.5,0.3c0.1,0.1,0.2,0.3,0.3,0.4c0.1,0.2,0.1,0.3,0.1,0.5s0,0.4-0.1,0.6c-0.1,0.2-0.2,0.3-0.3,0.5
		c-0.1,0.1-0.3,0.3-0.5,0.4c-0.2,0.1-0.4,0.2-0.5,0.3L203.6,231z M201.2,229.1c-0.2,0.1-0.4,0.2-0.6,0.3c-0.2,0.1-0.3,0.3-0.4,0.4
		c-0.1,0.2-0.2,0.3-0.3,0.5s-0.1,0.4-0.1,0.6c0,0.2,0,0.4,0.1,0.6c0.1,0.2,0.2,0.3,0.3,0.5c0.1,0.1,0.3,0.2,0.5,0.3s0.4,0.1,0.6,0.1
		c0.4,0,0.7-0.1,1-0.3s0.6-0.4,0.8-0.7L201.2,229.1z M202.4,227.5c0.1-0.1,0.1-0.3,0.1-0.4c0-0.1-0.1-0.3-0.1-0.4
		c-0.1-0.1-0.2-0.2-0.3-0.3s-0.3-0.1-0.5-0.1c-0.1,0-0.2,0-0.4,0.1c-0.1,0-0.2,0.1-0.3,0.2c-0.1,0.1-0.2,0.2-0.2,0.3
		c-0.1,0.1-0.1,0.2-0.1,0.4c0,0.1,0,0.2,0.1,0.4c0.1,0.1,0.1,0.3,0.2,0.4l0.2,0.4l0.2,0.3c0.2-0.1,0.4-0.2,0.6-0.4
		C202.2,227.9,202.3,227.7,202.4,227.5L202.4,227.5z"/>
	<path class="st6" d="M208.3,232.9l2.8-7.2h0.8l2.8,7.2H214l-0.8-2.3h-3.3l-0.9,2.3H208.3z M210.1,230h2.8l-1.4-3.8L210.1,230z"/>
	<path class="st6" d="M217.3,232.9L217,233c-0.1,0-0.3,0-0.4,0c-0.2,0-0.5-0.1-0.7-0.2c-0.2-0.2-0.3-0.5-0.3-0.7v-3.8h-0.7v-0.5h0.7
		v-1.4h0.6v1.4h1v0.5h-1v3.6c0,0.1,0,0.2,0,0.3s0,0.2,0.1,0.2c0,0.1,0.1,0.1,0.2,0.1c0.1,0,0.2,0,0.3,0s0.2,0,0.2,0h0.2L217.3,232.9
		z"/>
	<path class="st6" d="M220.1,232.9l-0.3,0.1c-0.1,0-0.3,0-0.4,0c-0.2,0-0.5-0.1-0.7-0.2c-0.2-0.2-0.3-0.5-0.2-0.8v-3.8h-0.7v-0.5
		h0.7v-1.4h0.6v1.4h1v0.5h-1v3.6c0,0.1,0,0.2,0,0.3s0,0.2,0.1,0.2c0,0.1,0.1,0.1,0.2,0.1c0.1,0,0.2,0,0.3,0s0.2,0,0.2,0h0.2
		L220.1,232.9z"/>
	<path class="st6" d="M223.5,229.9l0.4-0.1c0.1,0,0.3-0.1,0.4-0.1c0.1,0,0.2-0.1,0.2-0.2c0-0.1,0-0.2,0-0.3c0-0.3-0.1-0.6-0.3-0.8
		c-0.3-0.2-0.6-0.3-1-0.3c-0.2,0-0.4,0-0.6,0.1c-0.2,0-0.3,0.1-0.4,0.2c-0.1,0.1-0.2,0.2-0.3,0.4s-0.1,0.4-0.2,0.6h-0.6
		c0-0.3,0.1-0.5,0.2-0.8c0.1-0.2,0.3-0.4,0.5-0.5s0.4-0.2,0.7-0.3s0.5-0.1,0.8-0.1c0.2,0,0.5,0,0.7,0.1c0.2,0,0.4,0.1,0.6,0.3
		c0.2,0.1,0.3,0.3,0.4,0.5c0.1,0.2,0.2,0.5,0.1,0.8v2.8c0,0.2,0,0.4,0.1,0.4s0.2,0,0.5-0.1v0.5l-0.2,0.1c-0.1,0-0.2,0-0.3,0
		s-0.2,0-0.3,0s-0.2,0-0.2-0.1c-0.1-0.1-0.1-0.1-0.1-0.2c0-0.1-0.1-0.2-0.1-0.2c0-0.1,0-0.2,0-0.3c-0.2,0.3-0.5,0.5-0.9,0.6
		c-0.3,0.2-0.7,0.2-1.1,0.2c-0.2,0-0.4,0-0.6-0.1c-0.2-0.1-0.4-0.1-0.6-0.3c-0.2-0.1-0.3-0.3-0.4-0.5c-0.1-0.2-0.1-0.4-0.1-0.7
		c0-0.9,0.6-1.4,1.8-1.6L223.5,229.9z M224.5,230.2c-0.2,0.1-0.5,0.2-0.8,0.2s-0.5,0.1-0.8,0.1c-0.4,0-0.7,0.1-1.1,0.3
		c-0.3,0.2-0.4,0.5-0.4,0.8c0,0.1,0,0.3,0.1,0.4c0.1,0.1,0.1,0.2,0.2,0.3c0.1,0.1,0.2,0.1,0.4,0.2c0.1,0,0.3,0.1,0.4,0.1
		c0.2,0,0.5,0,0.7-0.1s0.4-0.1,0.6-0.3c0.4-0.3,0.6-0.7,0.6-1.1v-0.9H224.5z"/>
	<path class="st6" d="M230.3,229.3c-0.1-0.4-0.3-0.7-0.6-0.9s-0.6-0.3-1-0.3c-0.5,0-1,0.2-1.3,0.7c-0.1,0.2-0.2,0.5-0.3,0.7
		c-0.1,0.3-0.1,0.5-0.1,0.8s0,0.5,0.1,0.8s0.2,0.5,0.3,0.7s0.3,0.4,0.5,0.5s0.5,0.2,0.8,0.2c0.4,0,0.8-0.1,1.1-0.4
		c0.3-0.3,0.5-0.6,0.5-1h0.6c0,0.3-0.1,0.5-0.2,0.8c-0.1,0.2-0.3,0.4-0.4,0.6c-0.2,0.2-0.4,0.3-0.7,0.4c-0.3,0.1-0.6,0.1-0.9,0.1
		c-0.4,0-0.7-0.1-1.1-0.2c-0.3-0.1-0.5-0.3-0.7-0.6s-0.3-0.6-0.4-0.9c-0.1-0.3-0.1-0.7-0.1-1.1c0-0.3,0.1-0.7,0.2-1
		c0.1-0.3,0.2-0.6,0.4-0.9c0.2-0.3,0.5-0.5,0.8-0.6c0.3-0.2,0.7-0.2,1-0.2c0.5,0,1,0.1,1.5,0.4c0.4,0.3,0.6,0.8,0.7,1.3L230.3,229.3
		z"/>
	<path class="st6" d="M232.1,232.9v-7.2h0.6v4.5l2.5-2.5h0.8l-1.9,1.9l2.2,3.3h-0.6l-2-2.9l-1,0.9v2H232.1z"/>
	<path class="st6" d="M178.1,242.7c0,0.3,0.1,0.6,0.2,0.8c0.1,0.2,0.3,0.4,0.4,0.5c0.2,0.1,0.4,0.3,0.6,0.3c0.3,0.1,0.5,0.1,0.8,0.1
		s0.6,0,0.8-0.1s0.4-0.2,0.6-0.3c0.1-0.1,0.3-0.3,0.3-0.5c0.1-0.2,0.1-0.4,0.1-0.6c0-0.2-0.1-0.5-0.2-0.7c-0.1-0.2-0.3-0.3-0.5-0.4
		c-0.2-0.1-0.5-0.2-0.7-0.3l-0.8-0.2c-0.3-0.1-0.5-0.1-0.8-0.2c-0.3-0.1-0.5-0.2-0.7-0.4c-0.2-0.1-0.4-0.3-0.5-0.6
		c-0.2-0.5-0.2-1.1,0-1.6c0.1-0.2,0.3-0.4,0.5-0.6c0.2-0.2,0.5-0.3,0.8-0.4c0.3-0.1,0.7-0.2,1.1-0.2c0.4,0,0.7,0.1,1.1,0.2
		c0.3,0.1,0.5,0.3,0.8,0.5c0.2,0.2,0.4,0.4,0.4,0.7c0.1,0.3,0.2,0.5,0.1,0.8h-0.6c0-0.2,0-0.5-0.1-0.7s-0.2-0.4-0.4-0.5
		s-0.4-0.2-0.6-0.3c-0.2-0.1-0.4-0.1-0.7-0.1s-0.6,0-0.9,0.1c-0.2,0.1-0.4,0.2-0.6,0.4c-0.1,0.1-0.2,0.3-0.3,0.5c0,0.2,0,0.4,0,0.6
		c0,0.2,0.1,0.4,0.3,0.6c0.2,0.1,0.3,0.3,0.5,0.4c0.2,0.1,0.5,0.2,0.7,0.2c0.3,0.1,0.5,0.1,0.8,0.2s0.5,0.1,0.8,0.2
		c0.2,0.1,0.5,0.2,0.7,0.4s0.4,0.3,0.5,0.6c0.4,0.8,0.1,1.8-0.5,2.4c-0.6,0.4-1.2,0.6-1.9,0.6c-0.3,0-0.7,0-1-0.1s-0.6-0.2-0.8-0.4
		s-0.4-0.4-0.5-0.7s-0.2-0.7-0.2-1L178.1,242.7z"/>
	<path class="st6" d="M183.9,238.6v-0.9h0.7v0.9H183.9z M183.9,244.9v-5.2h0.6v5.2H183.9z"/>
	<path class="st6" d="M186.6,244.9H186v-5.2h0.6v0.8l0,0c0.1-0.3,0.4-0.5,0.7-0.7s0.6-0.2,0.9-0.2c0.2,0,0.4,0,0.6,0.1
		c0.2,0.1,0.3,0.1,0.4,0.2c0.1,0.1,0.2,0.2,0.3,0.3s0.1,0.3,0.2,0.4c0.2-0.3,0.4-0.6,0.7-0.8s0.7-0.3,1-0.2c0.3,0,0.6,0,0.9,0.2
		c0.2,0.1,0.4,0.3,0.5,0.5s0.2,0.4,0.2,0.6c0,0.3,0.1,0.5,0.1,0.8v3.3h-0.6v-3.6c0-0.3-0.1-0.6-0.2-0.9c-0.2-0.2-0.6-0.4-0.9-0.3
		c-0.2,0-0.4,0.1-0.6,0.1c-0.2,0.1-0.4,0.3-0.5,0.4c-0.1,0.1-0.1,0.2-0.2,0.3c0,0.1-0.1,0.2-0.1,0.4s0,0.3,0,0.4s0,0.2,0,0.4v2.8
		h-0.6v-3.6c0-0.3-0.1-0.6-0.2-0.9c-0.2-0.2-0.6-0.4-0.9-0.3c-0.2,0-0.4,0.1-0.6,0.1c-0.2,0.1-0.4,0.3-0.5,0.4
		c-0.1,0.1-0.1,0.2-0.2,0.3c0,0.1-0.1,0.2-0.1,0.4s0,0.3-0.1,0.4s0,0.2,0,0.4L186.6,244.9z"/>
	<path class="st6" d="M197.9,239.7h0.6v5.2h-0.6v-0.7c-0.1,0.1-0.2,0.2-0.3,0.3s-0.2,0.2-0.3,0.3s-0.3,0.2-0.5,0.2
		c-0.2,0.1-0.4,0.1-0.6,0.1c-0.3,0-0.6,0-0.9-0.1c-0.2-0.1-0.4-0.2-0.6-0.4c-0.1-0.2-0.3-0.4-0.3-0.6c-0.1-0.2-0.1-0.5-0.1-0.8v-3.4
		h0.6v3.4c0,0.4,0.1,0.7,0.3,1c0.3,0.3,0.6,0.4,1,0.4c0.2,0,0.5,0,0.7-0.1s0.4-0.2,0.5-0.4s0.2-0.4,0.3-0.6c0.1-0.3,0.1-0.5,0.1-0.8
		L197.9,239.7z"/>
	<path class="st6" d="M200,244.9v-7.2h0.6v7.2H200z"/>
	<path class="st6" d="M204.5,241.9l0.4-0.1c0.1,0,0.3-0.1,0.4-0.1c0.1,0,0.2-0.1,0.2-0.2c0-0.1,0-0.2,0-0.3c0-0.3-0.1-0.6-0.3-0.8
		c-0.3-0.2-0.6-0.3-1-0.3c-0.2,0-0.4,0-0.6,0.1c-0.2,0-0.3,0.1-0.4,0.2c-0.1,0.1-0.2,0.2-0.3,0.4s-0.1,0.4-0.2,0.6h-0.6
		c0-0.3,0.1-0.5,0.2-0.8c0.1-0.2,0.3-0.4,0.5-0.5s0.4-0.2,0.7-0.3s0.5-0.1,0.8-0.1c0.2,0,0.5,0,0.7,0.1c0.2,0,0.4,0.1,0.6,0.3
		c0.2,0.1,0.3,0.3,0.4,0.5c0.1,0.2,0.2,0.5,0.1,0.8v2.8c0,0.2,0.1,0.4,0.1,0.4s0.2,0,0.5-0.1v0.5l-0.2,0.1c-0.1,0-0.2,0-0.3,0
		s-0.2,0-0.3,0s-0.2,0-0.2-0.1c-0.1-0.1-0.1-0.1-0.1-0.2c0-0.1-0.1-0.2-0.1-0.2c0-0.1,0-0.2,0-0.3c-0.2,0.3-0.5,0.5-0.9,0.6
		c-0.3,0.2-0.7,0.2-1.1,0.2c-0.2,0-0.4,0-0.6-0.1c-0.2-0.1-0.4-0.1-0.6-0.3c-0.2-0.1-0.3-0.3-0.4-0.5c-0.1-0.2-0.1-0.4-0.1-0.7
		c0-0.9,0.6-1.4,1.8-1.6L204.5,241.9z M205.5,242.2c-0.2,0.1-0.5,0.2-0.8,0.2s-0.5,0.1-0.8,0.1c-0.4,0-0.7,0.1-1.1,0.3
		c-0.3,0.2-0.4,0.5-0.4,0.8c0,0.1,0,0.3,0.1,0.4c0.1,0.1,0.1,0.2,0.2,0.3c0.1,0.1,0.2,0.1,0.4,0.2c0.1,0,0.3,0.1,0.4,0.1
		c0.2,0,0.5,0,0.7-0.1s0.4-0.1,0.6-0.3c0.4-0.3,0.6-0.7,0.6-1.1v-0.9H205.5z"/>
	<path class="st6" d="M209.5,244.9l-0.3,0.1c-0.1,0-0.3,0-0.4,0c-0.2,0-0.5-0.1-0.7-0.2c-0.2-0.2-0.3-0.5-0.2-0.8v-3.8h-0.7v-0.5
		h0.7v-1.4h0.6v1.4h1v0.5h-1v3.6c0,0.1,0,0.2,0,0.3s0,0.2,0.1,0.2c0,0.1,0.1,0.1,0.2,0.1c0.1,0,0.2,0,0.3,0s0.2,0,0.2,0h0.2
		L209.5,244.9z"/>
	<path class="st6" d="M210.6,238.6v-0.9h0.7v0.9H210.6z M210.6,244.9v-5.2h0.6v5.2H210.6z"/>
	<path class="st6" d="M214.8,245c-0.3,0-0.6-0.1-0.9-0.2c-0.3-0.1-0.5-0.3-0.8-0.5c-0.2-0.2-0.4-0.5-0.5-0.9s-0.2-0.8-0.2-1.2
		s0-0.7,0.1-1.1c0.1-0.3,0.2-0.6,0.4-0.9c0.2-0.2,0.5-0.4,0.8-0.6c0.7-0.3,1.4-0.3,2.1,0c0.3,0.1,0.6,0.3,0.8,0.6s0.4,0.5,0.4,0.9
		c0.1,0.3,0.1,0.7,0.1,1.1c0,0.4,0,0.8-0.2,1.1c-0.1,0.3-0.3,0.6-0.5,0.9c-0.2,0.2-0.5,0.4-0.8,0.6C215.5,244.9,215.1,245,214.8,245
		z M216.5,242.3c0-0.3,0-0.6-0.1-0.9c-0.1-0.2-0.2-0.5-0.3-0.7s-0.3-0.4-0.5-0.5c-0.3-0.1-0.5-0.2-0.8-0.2s-0.6,0.1-0.8,0.2
		c-0.2,0.1-0.4,0.3-0.6,0.5c-0.1,0.2-0.2,0.5-0.3,0.7c-0.1,0.3-0.1,0.5-0.1,0.8s0,0.6,0.1,0.9c0.1,0.2,0.2,0.5,0.3,0.7
		s0.3,0.3,0.6,0.4c0.2,0.1,0.5,0.2,0.8,0.2s0.6-0.1,0.8-0.2c0.2-0.1,0.4-0.3,0.5-0.5s0.3-0.4,0.3-0.7
		C216.5,242.8,216.5,242.5,216.5,242.3L216.5,242.3z"/>
	<path class="st6" d="M218.9,244.9h-0.6v-5.2h0.6v0.7c0.2-0.2,0.5-0.4,0.8-0.6c0.3-0.2,0.6-0.2,0.9-0.2c0.3,0,0.6,0.1,0.9,0.2
		c0.3,0.1,0.5,0.3,0.7,0.6c0.1,0.2,0.2,0.4,0.2,0.6c0,0.2,0,0.4,0,0.6v3.4h-0.6v-3.4c0-0.4-0.1-0.7-0.3-1.1c-0.3-0.3-0.6-0.4-1-0.4
		c-0.2,0-0.3,0-0.5,0.1c-0.1,0.1-0.3,0.1-0.4,0.2c-0.1,0.1-0.2,0.2-0.3,0.3s-0.1,0.2-0.2,0.4c-0.1,0.2-0.1,0.3-0.1,0.5s0,0.3,0,0.5
		L218.9,244.9z"/>
	<path class="st6" d="M41.5,105.7c0.3-0.6,0.7-1.2,1-1.8l1.2,0.3c-0.3,0.5-0.5,1-0.8,1.5h6v1.1h-2.4c-0.4,1-0.9,2-1.5,2.8
		c1.2,0.5,2.4,1.1,3.6,1.8l-0.8,1c-1.2-0.7-2.5-1.4-3.7-1.9c-1.5,1.2-3.4,1.9-5.3,1.9l-0.7-1.1c1.7,0.1,3.4-0.4,4.8-1.3
		c-1.1-0.4-2.2-0.9-3.2-1.2c0.4-0.7,0.8-1.3,1.2-1.9h-2.7v-1.1L41.5,105.7z M48.6,105.1h-1.1v-1.6h-7.9v1.6h-1.2v-2.7h4.5
		c-0.1-0.3-0.3-0.7-0.5-1l1.3-0.2c0.2,0.4,0.3,0.8,0.5,1.2h4.5L48.6,105.1z M41.4,108.3c0.8,0.2,1.7,0.5,2.5,0.8
		c0.6-0.7,1.1-1.5,1.4-2.3h-3C42,107.3,41.7,107.8,41.4,108.3z"/>
	<path class="st6" d="M55.9,101.3c1.5,1.5,3.2,2.8,5.2,3.7l-0.6,1c-0.6-0.3-1.1-0.6-1.7-0.9v1.1H56v1.8h3.4v1.1H56v1.9h4.5v1.1h-10
		V111H55v-2h-3.4v-1.1H55v-1.8h-2.8V105c-0.5,0.3-1.1,0.7-1.7,0.9l-0.5-1c2-0.9,3.7-2.2,5.2-3.7L55.9,101.3z M58.9,105
		c-1.2-0.7-2.3-1.7-3.3-2.7c-1,1.1-2.1,2-3.3,2.7H58.9z"/>
	<path class="st6" d="M62.3,102.9v-1.1h4.2v1.1h-1.8c-0.2,0.8-0.4,1.7-0.7,2.4h2.2v5.7h-2v0.9h-1.1v-4.6c-0.2,0.3-0.4,0.6-0.6,0.9
		l-0.6-1c0.9-1.3,1.5-2.8,1.7-4.3H62.3z M65.1,110.1v-3.7h-1v3.7H65.1z M69,107.1c-0.1,2.4-0.8,4.2-2.1,5.4l-0.8-0.8
		c1.3-1.2,1.9-2.9,1.9-4.7h-1.3v-1.1h1.2v-3.1h-1v-1.1h5.8v1.1h-1v3.1H73v1.1h-1.3v5.3h-1V107L69,107.1z M69,102.9v3.1h1.7v-3.1H69z
		"/>
	<path class="st6" d="M79.3,105.7v1v0.4h3.1v3.7c0,0.2,0.1,0.3,0.3,0.3h0.8c0.2,0,0.4-0.1,0.4-0.3c0-0.5,0.1-1,0.1-1.5l1.1,0.3
		c0,0.6-0.1,1.3-0.2,1.9c-0.1,0.5-0.6,0.7-1.3,0.7h-1c-0.8,0-1.2-0.4-1.2-1.2v-2.9h-2.1c-0.2,0.8-0.5,1.5-0.9,2.1
		c-0.9,1-2.1,1.6-3.3,1.9l-0.6-1c1.2-0.3,2.2-0.9,3.1-1.7c0.3-0.4,0.5-0.9,0.7-1.4h-2.9v-1.1h3.1v-0.4v-1L79.3,105.7z M80.1,102.3
		h4.4v2.6h-1.1v-1.5h-7.7v1.5h-1.2v-2.6h4.4c-0.1-0.3-0.3-0.6-0.5-0.9l1.3-0.2C79.9,101.6,80,101.9,80.1,102.3z M78.9,104.5
		c-1.1,1-2.3,1.8-3.7,2.3l-0.5-1c1.3-0.4,2.5-1.2,3.5-2.1L78.9,104.5z M84.2,105.9l-0.6,1c-1-0.9-2.2-1.7-3.4-2.3l0.6-0.8
		C82,104.4,83.2,105.1,84.2,105.9z"/>
	<path class="st6" d="M34.5,127.9h0.7l2.2,6.4l2.2-6.4h0.7l-2.5,7.2H37L34.5,127.9z"/>
	<path class="st6" d="M44.7,129.9h0.6v5.2h-0.6v-0.7l-0.3,0.3c-0.1,0.1-0.2,0.2-0.3,0.3s-0.3,0.2-0.5,0.2c-0.2,0.1-0.4,0.1-0.6,0.1
		c-0.3,0-0.6,0-0.9-0.1c-0.2-0.1-0.4-0.2-0.6-0.4c-0.1-0.2-0.3-0.4-0.3-0.6c-0.1-0.2-0.1-0.5-0.1-0.8V130h0.6v3.4
		c0,0.4,0.1,0.7,0.3,1c0.3,0.3,0.6,0.4,1,0.4c0.5,0,0.9-0.2,1.2-0.6c0.1-0.2,0.2-0.4,0.3-0.6c0.1-0.3,0.1-0.5,0.1-0.8L44.7,129.9z"
		/>
	<path class="st6" d="M46.8,135.1v-7.2h0.6v7.2H46.8z"/>
	<path class="st6" d="M49.5,135.1h-0.6v-5.2h0.6v0.7c0.2-0.2,0.5-0.4,0.8-0.6c0.3-0.2,0.6-0.3,0.9-0.2c0.3,0,0.6,0,0.9,0.2
		c0.3,0.1,0.5,0.3,0.7,0.6c0.1,0.2,0.2,0.4,0.2,0.6c0,0.2,0,0.4,0,0.6v3.4h-0.6v-3.4c0-0.4-0.1-0.7-0.3-1c-0.3-0.3-0.6-0.4-1-0.4
		c-0.2,0-0.3,0-0.5,0.1c-0.1,0.1-0.3,0.1-0.4,0.2c-0.2,0.2-0.4,0.4-0.5,0.7c-0.1,0.2-0.1,0.3-0.1,0.5c0,0.1,0,0.3,0,0.5L49.5,135.1z
		"/>
	<path class="st6" d="M54.9,132.7c0,0.3,0,0.5,0.1,0.8c0.1,0.2,0.2,0.5,0.3,0.6c0.1,0.2,0.3,0.3,0.5,0.4c0.2,0.1,0.5,0.2,0.8,0.2
		c0.4,0,0.7-0.1,1-0.3s0.5-0.5,0.6-0.9h0.7c-0.1,0.2-0.2,0.5-0.3,0.7s-0.3,0.4-0.5,0.6c-0.2,0.2-0.4,0.3-0.6,0.4
		c-0.3,0.1-0.6,0.1-0.9,0.1c-0.4,0-0.7-0.1-1.1-0.2c-0.3-0.1-0.5-0.3-0.7-0.6s-0.3-0.5-0.4-0.9c-0.1-0.3-0.1-0.7-0.1-1.1
		c0-0.4,0.1-0.7,0.2-1.1c0.1-0.3,0.3-0.6,0.5-0.9c0.2-0.2,0.5-0.5,0.7-0.6c0.3-0.1,0.7-0.2,1-0.2c0.6,0,1.3,0.2,1.7,0.7
		c0.4,0.6,0.7,1.4,0.6,2.1L54.9,132.7z M58.2,132.2c0-0.2,0-0.5-0.1-0.7s-0.2-0.4-0.3-0.6c-0.5-0.5-1.3-0.7-1.9-0.4
		c-0.2,0.1-0.4,0.2-0.5,0.4c-0.2,0.2-0.3,0.4-0.3,0.6c-0.1,0.2-0.1,0.5-0.2,0.7H58.2z"/>
	<path class="st6" d="M60.7,135.1h-0.6v-5.2h0.6v1l0,0c0.1-0.4,0.3-0.7,0.7-0.9c0.3-0.2,0.7-0.2,1-0.2v0.6c-0.3,0-0.6,0-0.8,0.2
		c-0.2,0.1-0.4,0.3-0.5,0.5s-0.2,0.4-0.3,0.7s-0.1,0.6-0.1,0.8L60.7,135.1z"/>
	<path class="st6" d="M65.8,132.1l0.4-0.1c0.1,0,0.3-0.1,0.4-0.1s0.2-0.1,0.2-0.2c0-0.1,0-0.2,0-0.3c0-0.3-0.1-0.6-0.3-0.8
		c-0.3-0.2-0.6-0.3-1-0.3c-0.2,0-0.4,0-0.6,0s-0.3,0.1-0.5,0.2c-0.1,0.1-0.2,0.2-0.3,0.4s-0.2,0.4-0.2,0.6h-0.6
		c0-0.3,0.1-0.5,0.2-0.8c0.1-0.2,0.3-0.4,0.5-0.5c0.2-0.1,0.4-0.2,0.7-0.3c0.3-0.1,0.5-0.1,0.8-0.1c0.2,0,0.5,0,0.7,0.1
		s0.4,0.1,0.6,0.3c0.2,0.1,0.3,0.3,0.4,0.5s0.1,0.5,0.1,0.8v2.8c0,0.2,0,0.4,0.1,0.4s0.2,0.1,0.5,0v0.5l-0.2,0.1c-0.1,0-0.2,0-0.3,0
		c-0.1,0-0.2,0-0.3,0c-0.1,0-0.2,0-0.2-0.1c-0.1,0-0.1-0.1-0.1-0.2c0-0.1-0.1-0.1-0.1-0.2c0-0.1,0-0.2,0-0.3
		c-0.2,0.3-0.5,0.5-0.9,0.6c-0.3,0.1-0.7,0.2-1.1,0.2c-0.2,0-0.4,0-0.7-0.1c-0.2-0.1-0.4-0.2-0.6-0.3c-0.2-0.1-0.3-0.3-0.4-0.5
		c-0.1-0.2-0.1-0.4-0.1-0.6c0-0.9,0.6-1.4,1.8-1.6L65.8,132.1z M66.8,132.4c-0.2,0.1-0.5,0.2-0.8,0.2l-0.8,0.1
		c-0.4,0-0.7,0.1-1.1,0.3c-0.3,0.2-0.4,0.5-0.4,0.8s0.1,0.5,0.3,0.7c0.1,0.1,0.2,0.1,0.4,0.2c0.1,0,0.3,0.1,0.4,0.1
		c0.2,0,0.5,0,0.7-0.1c0.2-0.1,0.4-0.2,0.6-0.3c0.2-0.1,0.3-0.3,0.4-0.5s0.2-0.4,0.2-0.7L66.8,132.4z"/>
	<path class="st6" d="M69.6,135.1H69v-7.2h0.6v2.9c0.2-0.3,0.5-0.6,0.8-0.7c0.3-0.2,0.7-0.2,1-0.2s0.7,0.1,1,0.2
		c0.3,0.1,0.5,0.3,0.7,0.6s0.3,0.6,0.4,0.9c0.1,0.3,0.1,0.7,0.1,1c0,0.4,0,0.7-0.1,1.1c-0.1,0.3-0.2,0.6-0.4,0.9
		c-0.2,0.2-0.4,0.4-0.7,0.6c-0.3,0.1-0.7,0.2-1.1,0.2c-0.2,0-0.3,0-0.5-0.1s-0.3-0.1-0.5-0.2c-0.2-0.1-0.3-0.2-0.4-0.3
		s-0.3-0.3-0.3-0.4l0,0V135.1z M69.6,132.5c0,0.3,0,0.6,0.1,0.9c0.1,0.3,0.2,0.5,0.3,0.7c0.3,0.4,0.8,0.7,1.3,0.6
		c0.2,0,0.5,0,0.7-0.1s0.4-0.2,0.6-0.4s0.3-0.4,0.4-0.6c0.1-0.3,0.1-0.6,0.1-0.9c0-0.3,0-0.6-0.1-0.9c-0.1-0.3-0.2-0.5-0.3-0.8
		c-0.1-0.2-0.3-0.4-0.6-0.5c-0.3-0.1-0.5-0.2-0.8-0.2s-0.5,0.1-0.7,0.2c-0.2,0.1-0.4,0.3-0.6,0.5s-0.3,0.4-0.3,0.7
		C69.6,131.9,69.6,132.2,69.6,132.5z"/>
	<path class="st6" d="M75.1,128.8v-0.9h0.7v0.9H75.1z M75.1,135.1v-5.2h0.6v5.2H75.1z"/>
	<path class="st6" d="M77.4,135.1v-7.2H78v7.2H77.4z"/>
	<path class="st6" d="M79.5,128.8v-0.9h0.7v0.9H79.5z M79.5,135.1v-5.2h0.6v5.2H79.5z"/>
	<path class="st6" d="M83.5,135.1c-0.1,0-0.2,0-0.3,0.1c-0.1,0-0.3,0.1-0.4,0.1c-0.2,0-0.5-0.1-0.7-0.2c-0.2-0.2-0.3-0.5-0.2-0.8
		v-3.8h-0.7V130h0.7v-1.4h0.6v1.4h1v0.5h-1v3.6c0,0.1,0,0.2,0,0.3s0,0.2,0.1,0.2c0,0.1,0.1,0.1,0.2,0.1s0.2,0,0.3,0h0.2l0.2-0.1
		L83.5,135.1z"/>
	<path class="st6" d="M84.4,136.5h0.3h0.2c0.2,0,0.3-0.1,0.4-0.2c0.1-0.1,0.2-0.2,0.3-0.4c0.1-0.2,0.1-0.3,0.2-0.5
		c0-0.1,0.1-0.3,0.2-0.4l-2-5.2h0.7l1.7,4.4l1.7-4.4h0.7l-2.1,5.2c-0.1,0.3-0.2,0.6-0.3,0.9c-0.1,0.2-0.2,0.5-0.3,0.7
		c-0.1,0.2-0.2,0.3-0.4,0.4c-0.2,0.1-0.3,0.2-0.5,0.1h-0.3h-0.3L84.4,136.5z"/>
	<path class="st6" d="M44.9,147.1v-7.2h4.8v0.6h-4.1v2.6h3.7v0.6h-3.7v2.9h4.1v0.6L44.9,147.1z"/>
	<path class="st6" d="M52.7,144.9l-1.6,2.2h-0.7l2-2.7l-1.8-2.5h0.7l1.4,2.1l1.5-2.1H55l-1.9,2.5l1.9,2.7h-0.7L52.7,144.9z"/>
	<path class="st6" d="M56.5,149.1h-0.6v-7.2h0.6v0.9l0,0c0.1-0.2,0.2-0.3,0.3-0.4c0.1-0.1,0.3-0.2,0.5-0.3s0.3-0.2,0.5-0.2
		s0.3-0.1,0.5-0.1c0.4,0,0.7,0.1,1.1,0.2c0.3,0.1,0.5,0.3,0.7,0.6s0.3,0.6,0.4,0.9c0.1,0.4,0.1,0.7,0.1,1.1c0,0.3-0.1,0.7-0.1,1
		c-0.1,0.3-0.2,0.6-0.4,0.9c-0.2,0.3-0.4,0.5-0.7,0.6c-0.3,0.2-0.7,0.2-1,0.2c-0.4,0-0.7-0.1-1.1-0.2c-0.3-0.2-0.6-0.4-0.8-0.7
		V149.1z M56.5,144.5c0,0.3,0,0.6,0.1,0.8s0.2,0.5,0.3,0.7s0.3,0.4,0.5,0.5s0.5,0.2,0.7,0.2c0.3,0,0.6-0.1,0.8-0.2
		c0.2-0.1,0.5-0.3,0.6-0.5s0.3-0.5,0.3-0.8c0.1-0.3,0.1-0.6,0.1-0.9c0-0.3,0-0.6-0.1-0.9c-0.1-0.2-0.2-0.4-0.4-0.6
		c-0.2-0.2-0.3-0.3-0.6-0.4c-0.2-0.1-0.5-0.1-0.7-0.1c-0.3,0-0.5,0.1-0.8,0.2c-0.2,0.1-0.4,0.3-0.5,0.5c-0.2,0.2-0.3,0.4-0.3,0.7
		C56.6,143.9,56.5,144.2,56.5,144.5z"/>
	<path class="st6" d="M62.1,147.1v-7.2h0.6v7.2H62.1z"/>
	<path class="st6" d="M66.3,147.2c-0.3,0-0.6-0.1-0.9-0.2c-0.6-0.2-1.1-0.7-1.3-1.4c-0.1-0.4-0.2-0.8-0.2-1.2s0-0.7,0.2-1.1
		c0.1-0.3,0.2-0.6,0.5-0.9c0.2-0.3,0.5-0.5,0.8-0.6c0.3-0.1,0.7-0.2,1.1-0.2s0.7,0.1,1.1,0.2c0.3,0.1,0.5,0.3,0.8,0.6
		c0.2,0.3,0.4,0.6,0.4,0.9c0.1,0.3,0.2,0.7,0.2,1.1c0,0.4-0.1,0.8-0.2,1.1s-0.3,0.6-0.5,0.9c-0.2,0.2-0.5,0.4-0.8,0.6
		C66.9,147.2,66.6,147.3,66.3,147.2z M68,144.5c0-0.3,0-0.6-0.1-0.9c-0.1-0.3-0.2-0.5-0.3-0.7c-0.1-0.2-0.3-0.4-0.5-0.5
		c-0.5-0.2-1.1-0.2-1.6,0c-0.2,0.1-0.4,0.3-0.5,0.5s-0.3,0.4-0.3,0.7c-0.1,0.3-0.1,0.5-0.1,0.8s0,0.6,0.1,0.9
		c0.1,0.3,0.2,0.5,0.3,0.7s0.3,0.3,0.5,0.4c0.2,0.1,0.5,0.2,0.8,0.2s0.6-0.1,0.8-0.2c0.2-0.1,0.4-0.3,0.6-0.5
		c0.1-0.2,0.2-0.5,0.3-0.7C68,145.1,68,144.8,68,144.5z"/>
	<path class="st6" d="M69.8,140.8v-0.9h0.7v0.9H69.8z M69.8,147.1v-5.2h0.6v5.2H69.8z"/>
	<path class="st6" d="M73.8,147.1c-0.1,0-0.2,0-0.3,0.1c-0.1,0-0.3,0-0.4,0.1c-0.3,0-0.5-0.1-0.7-0.2c-0.2-0.2-0.3-0.5-0.2-0.8v-3.8
		h-0.7V142h0.7v-1.4h0.6v1.4h1v0.5h-1v3.6c0,0.1,0,0.2,0,0.3s0,0.2,0.1,0.2c0,0.1,0.1,0.1,0.2,0.1s0.2,0,0.3,0h0.2l0.2-0.1
		L73.8,147.1z"/>
	<path class="st6" d="M75.1,145.5c0,0.4,0.2,0.7,0.5,0.9s0.6,0.3,1,0.3c0.2,0,0.4,0,0.6-0.1c0.1,0,0.3-0.1,0.4-0.2
		c0.1-0.1,0.2-0.2,0.2-0.3c0.1-0.1,0.1-0.2,0.1-0.4s-0.1-0.4-0.2-0.6c-0.2-0.1-0.4-0.2-0.6-0.3s-0.5-0.1-0.8-0.2
		c-0.3,0-0.5-0.1-0.8-0.2c-0.2-0.1-0.4-0.2-0.6-0.4s-0.3-0.5-0.2-0.8c0-0.4,0.2-0.8,0.5-1.1c0.4-0.3,0.9-0.4,1.3-0.4
		c0.5,0,1,0.1,1.4,0.4c0.4,0.3,0.6,0.8,0.6,1.3h-0.6c0-0.3-0.2-0.6-0.5-0.9c-0.3-0.2-0.6-0.3-0.9-0.2c-0.3,0-0.6,0.1-0.9,0.2
		c-0.2,0.2-0.3,0.4-0.3,0.6c0,0.2,0.1,0.4,0.2,0.5c0.2,0.1,0.4,0.2,0.6,0.3c0.3,0.1,0.5,0.2,0.8,0.2c0.3,0.1,0.5,0.1,0.8,0.2
		c0.2,0.1,0.4,0.3,0.6,0.4c0.2,0.2,0.3,0.5,0.2,0.8c0,0.2-0.1,0.4-0.2,0.6c-0.1,0.2-0.3,0.4-0.4,0.5c-0.2,0.1-0.4,0.2-0.7,0.3
		c-0.3,0.1-0.6,0.1-0.8,0.1c-0.3,0-0.6,0-0.8-0.1c-0.2-0.1-0.4-0.2-0.6-0.4s-0.3-0.3-0.4-0.6c-0.1-0.2-0.2-0.5-0.2-0.7L75.1,145.5z"
		/>
	<path class="st6" d="M75.5,199.5c-0.5,1.2-1.1,2.4-1.9,3.5c0.5,0,1-0.1,1.5-0.2c0.3-0.5,0.5-1,0.8-1.5l1,0.4
		c-0.8,1.5-1.7,3-2.8,4.4c0.8-0.2,1.7-0.5,2.5-0.8v1.1c-1.3,0.5-2.6,0.8-3.9,1l-0.3-1c0.2-0.1,0.4-0.2,0.5-0.3
		c0.6-0.7,1.1-1.4,1.6-2.2l-2,0.3l-0.3-1c0.2-0.1,0.4-0.3,0.5-0.4c0.7-1.1,1.2-2.3,1.7-3.6L75.5,199.5z M76.5,208.7
		c-1.3,0.5-2.6,0.8-4,1.1l-0.1-1.1c1.4-0.2,2.8-0.6,4.2-1.1L76.5,208.7z M77.1,200.9v-1.1H83v1.1h-2.4v7.6h2.7v1.1h-6.6v-1.1h2.7
		v-7.6H77.1z"/>
	<path class="st6" d="M88.5,199.4v0.9c-0.4,1-0.8,2.1-1.2,3.3c0.6,0.8,1.1,1.8,1.2,2.9c0,0.4-0.1,0.9-0.4,1.2
		c-0.5,0.4-1.2,0.5-1.8,0.5l-0.4-1.2c0.2,0,0.4,0.1,0.6,0.1s0.5,0,0.7-0.1c0.1-0.1,0.2-0.3,0.2-0.4c-0.1-1-0.5-2-1.2-2.7
		c0.5-1.1,0.9-2.1,1.3-3.2h-1.8v9.6h-1.1v-10.7h3.9V199.4z M92,199.1c0,1.2,0,2.3-0.1,3.3c0.5,2.5,1.7,4.8,3.5,6.6l-0.8,1
		c-1.3-1.5-2.4-3.3-3-5.2v0.1c-0.4,2-1.6,3.8-3.2,5.1l-0.8-0.9c1.4-1.1,2.4-2.6,2.8-4.4c0.4-1.9,0.6-3.8,0.6-5.7L92,199.1z"/>
	<path class="st6" d="M97.1,210.1l-0.9-0.8c0.5-1.3,0.8-2.6,0.7-4v-5.9h3.8v9.4c0,0.8-0.4,1.2-1.1,1.2h-0.9l-0.3-1
		c0.3,0,0.6,0.1,0.9,0.1s0.4-0.2,0.4-0.6v-2.4H98C98,207.5,97.7,208.8,97.1,210.1z M99.7,200.5H98v1.8h1.7V200.5z M98,205.1h1.7
		v-1.8H98V205.1z M102.6,210.1h-1.1v-10.7h5.1c0,1,0,2.1-0.2,3.1c-0.1,0.5-0.6,0.8-1.4,0.8h-1l-0.3-1h0.8c0.2,0,0.4,0,0.6-0.1
		c0.1-0.1,0.2-0.2,0.3-0.3c0.1-0.5,0.2-1,0.1-1.5h-2.9v3.4h4.1v1c-0.2,1.1-0.5,2.1-1.1,3c0.5,0.5,1.1,0.9,1.7,1.3l-0.6,1
		c-0.6-0.4-1.2-0.8-1.8-1.4c-0.5,0.6-1.1,1-1.8,1.4l-0.6-0.9L102.6,210.1z M102.6,209.1c0.6-0.3,1.1-0.8,1.6-1.3
		c-0.7-0.9-1.2-1.9-1.4-3h-0.2V209.1z M104.8,207c0.4-0.7,0.7-1.4,0.8-2.1h-2C103.9,205.6,104.3,206.4,104.8,207L104.8,207z"/>
	<path class="st6" d="M112.9,199.2c-0.1,0.3-0.2,0.5-0.4,0.8h5.1v0.9c-0.8,0.8-1.6,1.6-2.6,2.1c1.4,0.5,2.8,0.9,4.3,1l-0.5,1.1
		c-1.7-0.2-3.4-0.6-5-1.4c-1.6,0.7-3.3,1.2-5,1.4l-0.5-1.1c1.5-0.2,2.9-0.5,4.3-1c-0.6-0.3-1.1-0.7-1.6-1.1c-0.4,0.4-0.9,0.7-1.3,1
		L109,202c1.2-0.7,2.2-1.7,2.8-3L112.9,199.2z M114,204.4c0,0.4,0,0.8-0.1,1.2h4.1c0,2.1-0.2,3.4-0.5,3.8c-0.5,0.5-1.1,0.7-1.8,0.6
		c-0.4,0-0.9,0-1.5-0.1l-0.3-1l1.5,0.1c0.6,0,1-0.1,1.2-0.4c0.2-0.6,0.3-1.3,0.3-2h-3.2c-0.1,0.3-0.2,0.6-0.4,0.8
		c-0.6,1.1-2,2-4.2,2.7l-0.8-0.9c2-0.6,3.2-1.3,3.8-2.1c0.1-0.1,0.2-0.3,0.3-0.5H109v-1h3.7c0.1-0.4,0.1-0.8,0.1-1.2L114,204.4z
		 M115.9,201h-4.2l-0.1,0.1c0.6,0.5,1.3,1,2.1,1.4C114.5,202.1,115.2,201.6,115.9,201L115.9,201z"/>
	<path class="st6" d="M73.9,229.6v3.3h-0.7v-7.2H76c0.6,0,1.3,0.1,1.8,0.4c0.4,0.3,0.7,0.9,0.6,1.4c0,0.4-0.1,0.8-0.3,1.1
		c-0.2,0.3-0.5,0.5-0.9,0.7c0.2,0.1,0.4,0.2,0.5,0.3s0.2,0.3,0.3,0.5c0.1,0.2,0.1,0.4,0.1,0.6c0,0.2,0,0.4,0,0.6s0,0.5,0,0.7
		s0,0.3,0.1,0.4c0,0.1,0.1,0.2,0.1,0.3s0.1,0.1,0.1,0.1v0.1h-0.7c-0.1-0.2-0.1-0.3-0.2-0.5c0-0.2,0-0.4-0.1-0.7s0-0.5,0-0.7
		s0-0.4,0-0.5c0-0.2-0.1-0.3-0.2-0.5c-0.1-0.1-0.2-0.2-0.3-0.3c-0.1-0.1-0.3-0.1-0.4-0.1c-0.2,0-0.3,0-0.5,0L73.9,229.6z M76,229
		c0.2,0,0.5,0,0.7-0.1c0.2,0,0.4-0.1,0.6-0.2c0.2-0.1,0.3-0.3,0.4-0.4c0.1-0.2,0.1-0.4,0.1-0.6c0-0.2,0-0.5-0.2-0.7
		c-0.1-0.2-0.2-0.3-0.4-0.4c-0.2-0.1-0.4-0.2-0.6-0.2s-0.4-0.1-0.7-0.1h-2.2v2.8L76,229z"/>
	<path class="st6" d="M80.1,230.4c0,0.3,0,0.5,0.1,0.8c0.1,0.2,0.2,0.5,0.3,0.6c0.2,0.2,0.3,0.3,0.6,0.4c0.2,0.1,0.5,0.2,0.8,0.2
		c0.4,0,0.7-0.1,1-0.3s0.5-0.5,0.6-0.9h0.7c-0.1,0.2-0.2,0.5-0.3,0.7c-0.1,0.2-0.3,0.4-0.4,0.6c-0.2,0.2-0.4,0.3-0.6,0.4
		c-0.3,0.1-0.6,0.1-0.9,0.1c-0.4,0-0.7-0.1-1.1-0.2c-0.3-0.1-0.5-0.3-0.7-0.6s-0.3-0.5-0.4-0.9c-0.1-0.3-0.1-0.7-0.1-1.1
		c0-0.4,0.1-0.7,0.2-1.1c0.1-0.3,0.3-0.6,0.5-0.9c0.2-0.3,0.5-0.5,0.8-0.6s0.7-0.2,1-0.2c0.6,0,1.3,0.2,1.7,0.7
		c0.4,0.6,0.7,1.4,0.6,2.1h-4.4C80.1,230.2,80.1,230.4,80.1,230.4z M83.5,229.9c0-0.2,0-0.5-0.1-0.7c-0.1-0.4-0.4-0.8-0.8-1
		c-0.2-0.1-0.5-0.2-0.7-0.1c-0.2,0-0.5,0-0.7,0.1s-0.4,0.2-0.5,0.4s-0.3,0.4-0.3,0.6c-0.1,0.2-0.1,0.5-0.2,0.7H83.5z"/>
	<path class="st6" d="M89.3,225.7h0.6v7.2h-0.6V232l0,0c-0.1,0.2-0.2,0.3-0.3,0.5c-0.1,0.1-0.3,0.2-0.4,0.3
		c-0.2,0.1-0.3,0.2-0.5,0.2s-0.3,0.1-0.5,0.1c-0.4,0-0.7-0.1-1.1-0.2c-0.3-0.1-0.5-0.3-0.7-0.6s-0.3-0.6-0.4-0.9
		c-0.1-0.3-0.1-0.7-0.1-1.1c0-0.3,0-0.7,0.1-1s0.2-0.6,0.4-0.9c0.2-0.3,0.4-0.5,0.7-0.6c0.3-0.2,0.7-0.2,1-0.2s0.7,0.1,1,0.2
		c0.3,0.2,0.6,0.4,0.8,0.7V225.7z M89.3,230.3c0-0.3,0-0.6-0.1-0.8s-0.2-0.5-0.3-0.7c-0.1-0.2-0.3-0.4-0.6-0.5
		c-0.2-0.1-0.5-0.2-0.7-0.2c-0.3,0-0.6,0.1-0.8,0.2c-0.2,0.1-0.4,0.3-0.6,0.5s-0.3,0.5-0.3,0.8c-0.1,0.3-0.1,0.6-0.1,0.9
		c0,0.3,0,0.6,0.1,0.9c0.1,0.2,0.2,0.4,0.4,0.6c0.2,0.2,0.3,0.3,0.6,0.4c0.2,0.1,0.5,0.1,0.7,0.1c0.5,0,1-0.2,1.3-0.6
		c0.2-0.2,0.3-0.4,0.3-0.7C89.3,230.9,89.3,230.6,89.3,230.3z"/>
	<path class="st6" d="M93.7,230v0.6h-2.6V230H93.7z"/>
	<path class="st6" d="M94.2,225.7h5.2v0.6h-2.3v6.6h-0.7v-6.6h-2.3v-0.6H94.2z"/>
	<path class="st6" d="M100.7,230.4c0,0.3,0,0.5,0.1,0.8c0.1,0.2,0.2,0.5,0.3,0.6c0.2,0.2,0.3,0.3,0.6,0.4c0.2,0.1,0.5,0.2,0.8,0.2
		c0.4,0,0.7-0.1,1-0.3s0.5-0.5,0.6-0.9h0.7c-0.1,0.2-0.2,0.5-0.3,0.7c-0.1,0.2-0.3,0.4-0.4,0.6c-0.2,0.2-0.4,0.3-0.6,0.4
		c-0.3,0.1-0.6,0.1-0.9,0.1c-0.4,0-0.7-0.1-1.1-0.2c-0.3-0.1-0.5-0.3-0.7-0.6s-0.3-0.5-0.4-0.9c-0.1-0.3-0.1-0.7-0.1-1.1
		c0-0.4,0.1-0.7,0.2-1.1c0.1-0.3,0.3-0.6,0.5-0.9c0.2-0.3,0.5-0.5,0.8-0.6s0.7-0.2,1-0.2c0.6,0,1.3,0.2,1.7,0.7
		c0.4,0.6,0.7,1.4,0.6,2.1h-4.4V230.4z M104.1,229.9c0-0.2,0-0.5-0.1-0.7c-0.1-0.4-0.4-0.8-0.8-1c-0.2-0.1-0.5-0.2-0.7-0.1
		c-0.2,0-0.5,0-0.7,0.1s-0.4,0.2-0.5,0.4s-0.3,0.4-0.3,0.6c-0.1,0.2-0.1,0.5-0.2,0.7H104.1z"/>
	<path class="st6" d="M108.3,229.9l0.4-0.1c0.1,0,0.3-0.1,0.4-0.1s0.2-0.1,0.2-0.2c0-0.1,0-0.2,0-0.3c0-0.3-0.1-0.6-0.3-0.8
		c-0.3-0.2-0.6-0.3-1-0.3c-0.2,0-0.4,0-0.6,0.1c-0.3,0.1-0.6,0.3-0.8,0.6c-0.1,0.2-0.1,0.4-0.2,0.6h-0.6c0-0.3,0.1-0.5,0.2-0.8
		c0.1-0.2,0.3-0.4,0.5-0.5s0.4-0.2,0.7-0.3c0.3-0.1,0.5-0.1,0.8-0.1c0.2,0,0.5,0,0.7,0.1c0.2,0,0.4,0.1,0.6,0.3
		c0.2,0.1,0.3,0.3,0.4,0.5s0.2,0.5,0.2,0.8v2.8c0,0.2,0,0.4,0.1,0.4c0.1,0.1,0.2,0,0.5-0.1v0.5l-0.2,0.1c-0.1,0-0.2,0-0.3,0
		c-0.1,0-0.2,0-0.3,0c-0.1,0-0.2,0-0.2-0.1c-0.1-0.1-0.1-0.1-0.2-0.2c0-0.1-0.1-0.2-0.1-0.2c0-0.1,0-0.2,0-0.3
		c-0.2,0.3-0.5,0.5-0.9,0.6c-0.3,0.1-0.7,0.2-1.1,0.2c-0.2,0-0.4,0-0.7-0.1c-0.2-0.1-0.4-0.1-0.6-0.3c-0.2-0.1-0.3-0.3-0.4-0.5
		s-0.2-0.4-0.1-0.7c0-0.9,0.6-1.4,1.8-1.6L108.3,229.9z M109.3,230.2c-0.2,0.1-0.5,0.2-0.8,0.2s-0.5,0.1-0.8,0.1
		c-0.4,0-0.8,0.1-1.1,0.3c-0.3,0.2-0.4,0.5-0.4,0.8c0,0.1,0,0.3,0.1,0.4c0.1,0.1,0.1,0.2,0.2,0.3s0.2,0.1,0.4,0.2
		c0.1,0,0.3,0.1,0.4,0.1c0.2,0,0.5,0,0.7-0.1s0.4-0.1,0.6-0.3c0.2-0.1,0.3-0.3,0.4-0.5s0.2-0.4,0.2-0.7v-0.8H109.3z"/>
	<path class="st6" d="M112,232.9h-0.6v-5.2h0.6v0.8l0,0c0.1-0.3,0.4-0.5,0.7-0.7c0.3-0.2,0.6-0.2,0.9-0.2c0.2,0,0.4,0,0.6,0.1
		s0.3,0.1,0.4,0.2c0.1,0.1,0.2,0.2,0.3,0.3c0.1,0.1,0.1,0.3,0.2,0.4c0.1-0.3,0.4-0.6,0.7-0.8c0.3-0.2,0.7-0.3,1-0.2
		c0.3,0,0.6,0,0.8,0.2c0.2,0.1,0.4,0.3,0.5,0.5s0.2,0.4,0.2,0.6c0,0.3,0.1,0.5,0.1,0.8v3.3h-0.6v-3.6c0-0.3-0.1-0.6-0.2-0.9
		c-0.2-0.2-0.5-0.4-0.9-0.3c-0.5,0-0.9,0.2-1.2,0.6c-0.1,0.1-0.1,0.2-0.2,0.3c0,0.1-0.1,0.2-0.1,0.4c0,0.1,0,0.3-0.1,0.4
		c0,0.1,0,0.2,0,0.4v2.8h-0.6v-3.6c0-0.3-0.1-0.6-0.2-0.9c-0.2-0.2-0.5-0.4-0.9-0.3c-0.5,0-0.9,0.2-1.2,0.6
		c-0.1,0.1-0.1,0.2-0.2,0.3c0,0.1-0.1,0.2-0.1,0.4c0,0.1,0,0.3-0.1,0.4c0,0.1,0,0.2,0,0.4L112,232.9z"/>
	<path class="st6" d="M77.6,242.7c0,0.3,0.1,0.6,0.2,0.8s0.3,0.4,0.4,0.5c0.2,0.1,0.4,0.2,0.6,0.3c0.3,0.1,0.5,0.1,0.8,0.1
		s0.6,0,0.8-0.1c0.2-0.1,0.4-0.2,0.6-0.3c0.1-0.1,0.2-0.3,0.3-0.5c0.1-0.2,0.1-0.4,0.1-0.6c0-0.2-0.1-0.5-0.2-0.7s-0.3-0.3-0.5-0.4
		c-0.2-0.1-0.5-0.2-0.7-0.3l-0.8-0.2c-0.3-0.1-0.5-0.1-0.8-0.2c-0.3-0.1-0.5-0.2-0.7-0.4c-0.2-0.1-0.4-0.3-0.5-0.6s-0.2-0.6-0.2-0.9
		c0-0.2,0.1-0.5,0.2-0.7s0.3-0.4,0.5-0.6c0.2-0.2,0.5-0.3,0.8-0.4c0.3-0.1,0.7-0.2,1.1-0.2s0.7,0.1,1.1,0.2c0.3,0.1,0.5,0.3,0.8,0.5
		c0.2,0.2,0.4,0.4,0.4,0.7c0.1,0.3,0.2,0.5,0.2,0.8h-0.7c0-0.2,0-0.5-0.2-0.7c-0.1-0.2-0.2-0.4-0.4-0.5c-0.2-0.1-0.4-0.2-0.6-0.3
		s-0.4-0.1-0.7-0.1c-0.3,0-0.6,0-0.9,0.1c-0.2,0.1-0.4,0.2-0.6,0.4c-0.1,0.1-0.2,0.3-0.3,0.5c0,0.2,0,0.4,0,0.6
		c0,0.2,0.1,0.4,0.3,0.6c0.2,0.2,0.3,0.3,0.5,0.4c0.2,0.1,0.5,0.2,0.7,0.2l0.8,0.2c0.3,0.1,0.5,0.1,0.8,0.2c0.2,0.1,0.5,0.2,0.7,0.4
		s0.4,0.3,0.5,0.6c0.4,0.8,0.2,1.8-0.5,2.4c-0.6,0.4-1.2,0.6-1.9,0.6c-0.3,0-0.7,0-1-0.1s-0.6-0.2-0.8-0.4c-0.2-0.2-0.4-0.4-0.6-0.7
		c-0.1-0.3-0.2-0.7-0.2-1L77.6,242.7z"/>
	<path class="st6" d="M83.8,242.4c0,0.3,0,0.5,0.1,0.8c0.1,0.2,0.2,0.5,0.3,0.6c0.2,0.2,0.3,0.3,0.6,0.4c0.2,0.1,0.5,0.2,0.8,0.2
		c0.4,0,0.7-0.1,1-0.3s0.5-0.5,0.6-0.9h0.5c-0.1,0.2-0.2,0.5-0.3,0.7c-0.1,0.2-0.3,0.4-0.4,0.6c-0.2,0.2-0.4,0.3-0.6,0.4
		c-0.3,0.1-0.6,0.1-0.9,0.1c-0.4,0-0.7-0.1-1.1-0.2c-0.3-0.1-0.5-0.3-0.7-0.6s-0.3-0.5-0.4-0.9c-0.1-0.3-0.1-0.7-0.1-1.1
		c0-0.4,0.1-0.7,0.2-1.1c0.1-0.3,0.3-0.6,0.5-0.9c0.2-0.3,0.5-0.5,0.8-0.6s0.7-0.2,1-0.2c0.6,0,1.3,0.2,1.7,0.7
		c0.4,0.6,0.7,1.4,0.6,2.1h-4.2V242.4z M87.1,241.9c0-0.2,0-0.5-0.1-0.7c-0.1-0.4-0.4-0.8-0.8-1c-0.2-0.1-0.5-0.2-0.7-0.1
		c-0.2,0-0.5,0-0.7,0.1s-0.4,0.2-0.5,0.4S84,241,84,241.2c-0.1,0.2-0.1,0.5-0.2,0.7H87.1z"/>
	<path class="st6" d="M89.6,244.9H89v-5.2h0.6v1l0,0c0.1-0.3,0.3-0.6,0.6-0.9c0.3-0.2,0.7-0.3,1-0.2v0.6c-0.3,0-0.6,0-0.8,0.2
		c-0.2,0.1-0.4,0.3-0.5,0.5s-0.2,0.4-0.3,0.7c0,0.3-0.1,0.5-0.1,0.8L89.6,244.9z"/>
	<path class="st6" d="M91.7,239.7h0.7l1.7,4.4l1.7-4.4h0.7l-2,5.2h-0.8L91.7,239.7z"/>
	<path class="st6" d="M97.3,238.6v-0.9H98v0.9H97.3z M97.3,244.9v-5.2h0.6v5.2H97.3z"/>
	<path class="st6" d="M103.2,241.3c-0.1-0.3-0.3-0.7-0.6-0.9c-0.3-0.2-0.6-0.3-1-0.3c-0.3,0-0.5,0.1-0.8,0.2
		c-0.2,0.1-0.4,0.3-0.5,0.5s-0.3,0.5-0.3,0.7c-0.1,0.3-0.1,0.5-0.1,0.8s0,0.5,0.1,0.8c0.1,0.2,0.2,0.5,0.3,0.7
		c0.1,0.2,0.3,0.4,0.5,0.5s0.5,0.2,0.8,0.2c0.4,0,0.8-0.1,1.1-0.4c0.3-0.3,0.5-0.6,0.5-1h0.6c-0.1,0.3-0.1,0.5-0.3,0.8
		c-0.1,0.2-0.3,0.4-0.4,0.6c-0.2,0.2-0.4,0.3-0.7,0.4c-0.3,0.1-0.6,0.1-0.9,0.1c-0.4,0-0.7-0.1-1.1-0.2c-0.3-0.1-0.5-0.3-0.7-0.6
		s-0.4-0.6-0.4-0.9c-0.1-0.3-0.1-0.7-0.1-1.1c0-0.3,0.1-0.7,0.2-1s0.3-0.6,0.5-0.9c0.4-0.5,1.1-0.8,1.8-0.8c0.5,0,1,0.1,1.4,0.4
		c0.4,0.3,0.6,0.8,0.7,1.3L103.2,241.3z"/>
	<path class="st6" d="M105.4,242.4c0,0.3,0,0.5,0.1,0.8c0.1,0.2,0.2,0.5,0.3,0.6c0.2,0.2,0.3,0.3,0.6,0.4c0.2,0.1,0.5,0.2,0.8,0.2
		c0.4,0,0.7-0.1,1-0.3s0.5-0.5,0.6-0.9h0.7c-0.1,0.2-0.2,0.5-0.3,0.7c-0.1,0.2-0.3,0.4-0.4,0.6c-0.2,0.2-0.4,0.3-0.6,0.4
		c-0.3,0.1-0.6,0.1-0.9,0.1c-0.4,0-0.7-0.1-1.1-0.2c-0.3-0.1-0.5-0.3-0.7-0.6s-0.3-0.5-0.4-0.9c-0.1-0.3-0.1-0.7-0.1-1.1
		c0-0.4,0.1-0.7,0.2-1.1c0.1-0.3,0.3-0.6,0.5-0.9c0.2-0.3,0.5-0.5,0.8-0.6s0.7-0.2,1-0.2c0.6,0,1.3,0.2,1.7,0.7
		c0.4,0.6,0.7,1.4,0.6,2.1h-4.4C105.4,242.2,105.4,242.4,105.4,242.4z M108.8,241.9c0-0.2,0-0.5-0.1-0.7c-0.1-0.4-0.4-0.8-0.8-1
		c-0.2-0.1-0.5-0.2-0.7-0.1c-0.2,0-0.5,0-0.7,0.1s-0.4,0.2-0.5,0.4s-0.3,0.4-0.3,0.6c-0.1,0.2-0.1,0.5-0.2,0.7H108.8z"/>
	<path class="st6" d="M111,243.2c0,0.4,0.2,0.7,0.5,0.9s0.6,0.3,1,0.3c0.2,0,0.4,0,0.6-0.1c0.1,0,0.3-0.1,0.4-0.2
		c0.1-0.1,0.2-0.2,0.2-0.3c0.1-0.1,0.1-0.2,0.1-0.4s-0.1-0.4-0.2-0.6c-0.2-0.1-0.4-0.2-0.6-0.3s-0.5-0.1-0.8-0.2
		c-0.3,0-0.5-0.1-0.8-0.2c-0.2-0.1-0.5-0.2-0.6-0.4c-0.2-0.2-0.3-0.5-0.2-0.8c0-0.4,0.2-0.8,0.5-1.1c0.4-0.3,0.9-0.4,1.3-0.4
		c0.5,0,1,0.1,1.4,0.4c0.4,0.3,0.6,0.8,0.6,1.2h-0.7c0-0.3-0.2-0.6-0.5-0.8s-0.6-0.3-0.9-0.2c-0.3,0-0.6,0.1-0.9,0.2
		c-0.2,0.2-0.3,0.4-0.3,0.6c0,0.2,0.1,0.4,0.2,0.5c0.2,0.1,0.4,0.2,0.6,0.3s0.5,0.1,0.8,0.2c0.3,0.1,0.5,0.1,0.8,0.3
		c0.2,0.1,0.4,0.3,0.6,0.4c0.2,0.2,0.3,0.5,0.2,0.8c0,0.2-0.1,0.5-0.2,0.7s-0.3,0.3-0.4,0.5c-0.2,0.1-0.4,0.2-0.7,0.3
		c-0.3,0.1-0.6,0.1-0.8,0.1c-0.3,0-0.6,0-0.8-0.1c-0.2-0.1-0.4-0.2-0.6-0.4s-0.3-0.3-0.4-0.6c-0.1-0.2-0.2-0.5-0.2-0.7L111,243.2z"
		/>
	<path class="st6" d="M218.6,105.7c0.3-0.6,0.6-1.2,1-1.9l1.2,0.3c-0.3,0.5-0.6,1-0.8,1.5h6v1.1h-2.3c-0.4,1-0.9,2-1.6,2.8
		c1.2,0.5,2.4,1.1,3.6,1.8l-0.8,1c-1.2-0.7-2.5-1.4-3.7-1.9c-1.5,1.2-3.4,1.9-5.3,1.9l-0.7-1.1c1.7,0.1,3.4-0.4,4.8-1.3
		c-1.1-0.4-2.2-0.9-3.2-1.2c0.4-0.7,0.8-1.3,1.2-1.9h-2.7v-1.1L218.6,105.7z M225.7,105.1h-1.2v-1.6h-7.9v1.6h-1.2v-2.7h4.5
		c-0.1-0.3-0.3-0.7-0.5-1l1.3-0.2c0.2,0.4,0.3,0.8,0.5,1.2h4.5L225.7,105.1z M218.4,108.3c0.8,0.2,1.6,0.5,2.5,0.8
		c0.6-0.7,1.1-1.5,1.4-2.3h-3L218.4,108.3z"/>
	<path class="st6" d="M233,101.3c1.5,1.5,3.2,2.8,5.2,3.7l-0.6,1c-0.6-0.3-1.1-0.6-1.7-0.9v1.1h-2.8v1.8h3.4v1.1h-3.4v1.9h4.5v1.1
		h-10.1V111h4.4v-2h-3.4v-1.1h3.4v-1.8h-2.8V105c-0.6,0.3-1.1,0.7-1.7,0.9l-0.6-1c2-0.9,3.7-2.2,5.2-3.7L233,101.3z M235.9,105
		c-1.2-0.8-2.3-1.7-3.3-2.7c-1,1.1-2.1,2-3.3,2.7H235.9z"/>
	<path class="st6" d="M243.4,101.7v0.9c-0.4,1-0.8,2.1-1.2,3.2c0.6,0.9,1,1.9,1.2,2.9c0,0.4-0.1,0.9-0.4,1.2
		c-0.6,0.4-1.2,0.5-1.9,0.5l-0.4-1.2c0.2,0,0.4,0.1,0.6,0.1c0.2,0,0.5-0.1,0.7-0.2c0.1-0.1,0.2-0.3,0.2-0.4c-0.1-1-0.5-2-1.2-2.7
		c0.5-1.1,0.9-2.1,1.2-3.2h-1.7v9.6h-1.1v-10.7C239.4,101.7,243.4,101.7,243.4,101.7z M246.3,103c-0.2-0.6-0.4-1.1-0.5-1.5l1.2-0.2
		c0.2,0.5,0.4,1.1,0.5,1.7h2.5v1.1h-3.9c0,0.4,0,1.1-0.1,1.8h3.4c0,1.7-0.1,3.4-0.3,5.1c-0.2,0.8-0.9,1.3-1.7,1.2
		c-0.3,0-0.6,0-0.9-0.1l-0.4-1.1c0.5,0,0.9,0.1,1.2,0.1c0.5,0,0.8-0.4,0.9-0.8c0.1-1.1,0.1-2.2,0.1-3.3h-2.4
		c-0.1,0.9-0.3,1.8-0.7,2.6c-0.5,1-1.2,2-2,2.8l-0.9-0.8c0.9-0.8,1.5-1.8,2-2.9c0.3-1,0.5-2,0.5-3c0-0.7,0-1.2,0-1.6h-1.5V103H246.3
		z"/>
	<path class="st6" d="M254,104.8c-0.2,0.6-0.5,1.1-0.8,1.6v5.9h-1.1v-4.6c-0.2,0.2-0.5,0.5-0.7,0.7l-0.3-1.1c0.9-0.8,1.6-1.9,2-3
		L254,104.8z M253.7,101.9c-0.5,1.2-1.2,2.4-2.2,3.2l-0.3-1.1c0.7-0.7,1.2-1.6,1.6-2.6L253.7,101.9z M254.7,104.6l-1-0.6
		c0.6-0.8,1-1.8,1.2-2.8l1,0.2c-0.1,0.4-0.2,0.7-0.3,1.1h2.4v1h-1.2v1.7h1.4v1h-1.4v1.2h1.2v1h-1.2v1.7l1.4-0.4v1
		c-1.5,0.4-3,0.7-4.6,1l-0.3-1l0.6-0.1V107h1v3.5l0.7-0.1v-4.2h-1.8v-1h1.8v-1.7H255C255.1,103.9,254.9,104.3,254.7,104.6
		L254.7,104.6z M260.1,111l-0.3-1.1l0.6,0.1c0.2,0,0.3-0.1,0.3-0.4v-6.5h-1v9.3h-1.1V102h3.1v7.8c0,0.8-0.3,1.2-1,1.2H260.1z"/>
	<path class="st6" d="M198.8,135.1v-7.2h0.7v7.2H198.8z"/>
	<path class="st6" d="M201.4,135.1h-0.6v-5.2h0.6v0.7c0.2-0.2,0.5-0.4,0.7-0.6c0.3-0.2,0.6-0.2,0.9-0.2c0.3,0,0.6,0.1,0.9,0.2
		c0.3,0.1,0.5,0.3,0.7,0.6c0.1,0.2,0.2,0.4,0.2,0.6c0,0.2,0,0.4,0,0.6v3.4h-0.6v-3.4c0-0.4-0.1-0.7-0.3-1.1c-0.3-0.3-0.6-0.4-1-0.4
		c-0.2,0-0.3,0-0.5,0.1c-0.1,0.1-0.3,0.1-0.4,0.2c-0.1,0.1-0.2,0.2-0.3,0.3s-0.2,0.3-0.2,0.4c-0.1,0.2-0.1,0.3-0.1,0.5s0,0.3,0,0.5
		L201.4,135.1z"/>
	<path class="st6" d="M207.8,135.1l-0.3,0.1c-0.1,0-0.3,0.1-0.4,0.1c-0.2,0-0.5-0.1-0.7-0.2c-0.2-0.2-0.3-0.5-0.2-0.8v-3.8h-0.7V130
		h0.7v-1.4h0.6v1.4h1v0.5h-1v3.6c0,0.1,0,0.2,0,0.3s0,0.2,0.1,0.2c0,0.1,0.1,0.1,0.1,0.1c0.1,0,0.2,0,0.3,0s0.2,0,0.2,0l0.2-0.1
		L207.8,135.1z"/>
	<path class="st6" d="M208.8,132.6c0,0.3,0,0.5,0.1,0.8c0.1,0.2,0.2,0.5,0.3,0.6c0.2,0.2,0.3,0.3,0.6,0.4c0.2,0.1,0.5,0.2,0.8,0.2
		c0.4,0,0.7-0.1,1-0.3s0.5-0.5,0.6-0.9h0.6c-0.1,0.2-0.2,0.5-0.3,0.7s-0.3,0.4-0.4,0.6c-0.2,0.2-0.4,0.3-0.6,0.4
		c-0.6,0.2-1.3,0.2-1.9-0.1c-0.3-0.1-0.5-0.3-0.7-0.6s-0.3-0.5-0.4-0.9c-0.1-0.3-0.1-0.7-0.1-1.1c0-0.4,0-0.7,0.2-1.1
		c0.1-0.3,0.3-0.6,0.5-0.9c0.2-0.2,0.5-0.4,0.8-0.6c0.3-0.1,0.7-0.2,1-0.2c0.6,0,1.3,0.2,1.7,0.7c0.4,0.6,0.7,1.4,0.6,2.1h-4.4
		L208.8,132.6L208.8,132.6z M212.1,132.1c0-0.2,0-0.5-0.1-0.7s-0.2-0.4-0.3-0.6c-0.1-0.2-0.3-0.3-0.5-0.4c-0.5-0.2-1-0.2-1.4,0
		c-0.2,0.1-0.4,0.2-0.5,0.4s-0.3,0.4-0.3,0.6c-0.1,0.2-0.1,0.5-0.2,0.7H212.1z"/>
	<path class="st6" d="M217.5,129.9h0.6v4.7c0,0.3,0,0.7-0.1,1s-0.2,0.6-0.4,0.8c-0.2,0.3-0.4,0.5-0.7,0.6c-0.4,0.2-0.8,0.2-1.2,0.2
		c-0.3,0-0.7,0-1-0.1c-0.2-0.1-0.5-0.2-0.7-0.4c-0.2-0.1-0.3-0.3-0.4-0.5c-0.1-0.2-0.1-0.3-0.1-0.5h0.6c0,0.2,0.1,0.3,0.2,0.5
		c0.1,0.1,0.2,0.2,0.4,0.3c0.1,0.1,0.3,0.1,0.5,0.1s0.3,0,0.5,0c0.3,0,0.7-0.1,1-0.2c0.2-0.1,0.4-0.3,0.6-0.6
		c0.1-0.2,0.2-0.5,0.2-0.8s0.1-0.6,0.1-0.9c-0.2,0.3-0.5,0.6-0.8,0.7c-0.3,0.2-0.7,0.2-1,0.2s-0.7-0.1-1-0.2
		c-0.3-0.1-0.5-0.4-0.7-0.6c-0.2-0.3-0.3-0.6-0.4-0.9c-0.1-0.3-0.1-0.7-0.1-1c0-0.4,0-0.7,0.1-1.1c0.1-0.3,0.2-0.6,0.4-0.9
		c0.2-0.2,0.4-0.4,0.7-0.6c0.3-0.1,0.7-0.2,1.1-0.2c0.2,0,0.3,0,0.5,0.1s0.3,0.1,0.5,0.2c0.2,0.1,0.3,0.2,0.4,0.3
		c0.1,0.1,0.3,0.3,0.3,0.5l0,0L217.5,129.9z M217.5,132.5c0-0.3,0-0.6-0.1-0.9c-0.1-0.3-0.2-0.5-0.3-0.7c-0.3-0.4-0.8-0.7-1.3-0.6
		c-0.2,0-0.5,0-0.7,0.1s-0.4,0.2-0.6,0.4c-0.2,0.2-0.3,0.4-0.4,0.6c-0.1,0.3-0.1,0.6-0.1,0.9c0,0.3,0,0.6,0.1,0.9
		c0.1,0.3,0.2,0.5,0.3,0.7s0.3,0.4,0.6,0.5s0.5,0.2,0.8,0.2s0.5-0.1,0.7-0.2c0.2-0.1,0.4-0.3,0.6-0.5c0.2-0.2,0.3-0.4,0.4-0.7
		C217.5,133.1,217.5,132.8,217.5,132.5z"/>
	<path class="st6" d="M219.9,135.1h-0.6v-5.2h0.6v1l0,0c0.1-0.3,0.3-0.7,0.6-0.9s0.7-0.3,1-0.2v0.6c-0.3,0-0.6,0-0.8,0.2
		c-0.2,0.1-0.4,0.3-0.5,0.5s-0.2,0.4-0.3,0.7c0,0.3-0.1,0.5-0.1,0.8L219.9,135.1z"/>
	<path class="st6" d="M224.6,132.1l0.4-0.1c0.1,0,0.3-0.1,0.4-0.1c0.1,0,0.2-0.1,0.2-0.2c0-0.1,0-0.2,0-0.3c0-0.3-0.1-0.6-0.3-0.8
		c-0.3-0.2-0.6-0.3-1-0.3c-0.2,0-0.4,0-0.6,0.1c-0.2,0-0.3,0.1-0.5,0.2c-0.1,0.1-0.2,0.2-0.3,0.4s-0.1,0.4-0.2,0.6h-0.6
		c0-0.3,0.1-0.5,0.2-0.8c0.1-0.2,0.3-0.4,0.5-0.5s0.4-0.2,0.7-0.3s0.5-0.1,0.8-0.1c0.2,0,0.5,0,0.7,0.1s0.4,0.1,0.6,0.3
		c0.2,0.1,0.3,0.3,0.4,0.5c0.1,0.2,0.2,0.5,0.1,0.8v2.8c0,0.2,0,0.4,0.1,0.4s0.3,0.1,0.5,0v0.5h-0.2c-0.1,0-0.2,0-0.3,0h-0.3
		c-0.1,0-0.2,0-0.2-0.1c-0.1-0.1-0.1-0.1-0.1-0.2c0-0.1-0.1-0.2-0.1-0.2c0-0.1,0-0.2,0-0.3c-0.2,0.3-0.5,0.5-0.9,0.6
		c-0.3,0.1-0.7,0.2-1.1,0.2c-0.2,0-0.4,0-0.7-0.1c-0.2-0.1-0.4-0.1-0.6-0.3c-0.2-0.1-0.3-0.3-0.4-0.5c-0.1-0.2-0.1-0.4-0.1-0.6
		c0-0.9,0.6-1.4,1.8-1.6L224.6,132.1z M225.6,132.4c-0.2,0.1-0.5,0.2-0.8,0.2s-0.5,0.1-0.8,0.1c-0.4,0-0.8,0.1-1.1,0.3
		s-0.4,0.5-0.4,0.8c0,0.1,0,0.3,0.1,0.4c0.1,0.1,0.1,0.2,0.2,0.3c0.1,0.1,0.2,0.1,0.4,0.2c0.1,0,0.3,0,0.4,0c0.2,0,0.5,0,0.7-0.1
		s0.4-0.1,0.6-0.3c0.2-0.1,0.3-0.3,0.4-0.5c0.1-0.2,0.2-0.4,0.2-0.7L225.6,132.4z"/>
	<path class="st6" d="M229.2,135.1l-0.3,0.1c-0.1,0-0.3,0.1-0.4,0.1c-0.2,0-0.5-0.1-0.7-0.2c-0.2-0.2-0.3-0.5-0.2-0.8v-3.8h-0.7V130
		h0.7v-1.4h0.6v1.4h1v0.5h-1v3.6c0,0.1,0,0.2,0,0.3s0,0.2,0.1,0.2c0,0.1,0.1,0.1,0.1,0.1c0.1,0,0.2,0,0.3,0s0.2,0,0.2,0l0.2-0.1
		L229.2,135.1z"/>
	<path class="st6" d="M230.1,132.6c0,0.3,0,0.5,0.1,0.8c0.1,0.2,0.2,0.5,0.3,0.6c0.2,0.2,0.3,0.3,0.6,0.4c0.2,0.1,0.5,0.2,0.8,0.2
		c0.4,0,0.7-0.1,1-0.3s0.5-0.5,0.6-0.9h0.7c-0.1,0.2-0.2,0.5-0.3,0.7s-0.3,0.4-0.4,0.6c-0.2,0.2-0.4,0.3-0.6,0.4
		c-0.6,0.2-1.3,0.2-1.9-0.1c-0.3-0.1-0.5-0.3-0.7-0.6s-0.3-0.5-0.4-0.9c-0.1-0.3-0.1-0.7-0.1-1.1c0-0.4,0-0.7,0.2-1.1
		c0.1-0.3,0.3-0.6,0.5-0.9c0.2-0.2,0.5-0.4,0.8-0.6c0.3-0.1,0.7-0.2,1-0.2c0.6,0,1.3,0.2,1.7,0.7c0.4,0.6,0.7,1.4,0.6,2.1h-4.5
		L230.1,132.6L230.1,132.6z M233.5,132.1c0-0.2,0-0.5-0.1-0.7s-0.2-0.4-0.3-0.6c-0.1-0.2-0.3-0.3-0.5-0.4c-0.5-0.2-1-0.2-1.4,0
		c-0.2,0.1-0.4,0.2-0.5,0.4s-0.3,0.4-0.3,0.6c-0.1,0.2-0.1,0.5-0.2,0.7H233.5z"/>
	<path class="st6" d="M238.9,127.9h0.6v7.2h-0.6v-0.9l0,0c-0.1,0.2-0.2,0.3-0.3,0.5c-0.1,0.1-0.3,0.2-0.4,0.3
		c-0.2,0.1-0.3,0.2-0.5,0.2s-0.3,0.1-0.5,0.1c-0.4,0-0.7-0.1-1.1-0.2c-0.3-0.1-0.5-0.3-0.7-0.6s-0.3-0.6-0.4-0.9
		c-0.1-0.3-0.1-0.7-0.1-1.1c0-0.3,0.1-0.7,0.1-1c0.1-0.3,0.2-0.6,0.4-0.9c0.2-0.3,0.4-0.5,0.7-0.6c0.3-0.2,0.7-0.2,1-0.2
		s0.7,0.1,1,0.2c0.3,0.2,0.6,0.4,0.8,0.7V127.9z M238.9,132.5c0-0.3,0-0.6-0.1-0.8s-0.2-0.5-0.4-0.7c-0.1-0.2-0.3-0.4-0.6-0.5
		c-0.2-0.1-0.5-0.2-0.7-0.2c-0.3,0-0.6,0.1-0.8,0.2c-0.2,0.1-0.4,0.3-0.6,0.5c-0.2,0.2-0.3,0.5-0.3,0.8c-0.1,0.3-0.1,0.6-0.1,0.9
		c0,0.3,0,0.6,0.1,0.9c0.1,0.2,0.2,0.4,0.4,0.6c0.2,0.2,0.3,0.3,0.6,0.4c0.2,0.1,0.5,0.1,0.7,0.1c0.5,0,1-0.2,1.3-0.6
		c0.2-0.2,0.3-0.4,0.3-0.7C238.8,133.1,238.9,132.8,238.9,132.5L238.9,132.5z"/>
	<path class="st6" d="M242.4,135.1l2.8-7.2h0.8l2.8,7.2h-0.7l-0.8-2.3H244l-0.9,2.3H242.4z M244.2,132.3h2.8l-1.4-3.8L244.2,132.3z"
		/>
	<path class="st6" d="M253.2,127.9h0.6v7.2h-0.6v-0.9l0,0c-0.1,0.2-0.2,0.3-0.3,0.5c-0.1,0.1-0.3,0.2-0.5,0.3s-0.3,0.2-0.5,0.2
		s-0.3,0.1-0.5,0.1c-0.4,0-0.7-0.1-1.1-0.2c-0.3-0.1-0.5-0.3-0.7-0.6s-0.3-0.6-0.4-0.9c-0.1-0.3-0.1-0.7-0.1-1.1
		c0-0.3,0.1-0.7,0.1-1c0.1-0.3,0.2-0.6,0.4-0.9c0.2-0.3,0.4-0.5,0.7-0.6c0.3-0.2,0.7-0.2,1-0.2c0.4,0,0.7,0.1,1.1,0.2
		c0.3,0.2,0.6,0.4,0.8,0.7V127.9z M253.2,132.5c0-0.3,0-0.6-0.1-0.8s-0.2-0.5-0.4-0.7c-0.1-0.2-0.3-0.4-0.6-0.5
		c-0.2-0.1-0.5-0.2-0.7-0.2c-0.3,0-0.6,0.1-0.8,0.2c-0.2,0.1-0.4,0.3-0.6,0.5c-0.2,0.2-0.3,0.5-0.3,0.8c-0.1,0.3-0.1,0.6-0.1,0.9
		c0,0.3,0,0.6,0.1,0.9c0.1,0.2,0.2,0.4,0.4,0.6c0.2,0.2,0.3,0.3,0.6,0.4c0.2,0.1,0.5,0.1,0.7,0.1c0.5,0,1-0.2,1.3-0.6
		c0.2-0.2,0.3-0.4,0.3-0.7C253.2,133.1,253.2,132.8,253.2,132.5L253.2,132.5z"/>
	<path class="st6" d="M257.3,132.1l0.4-0.1c0.1,0,0.3-0.1,0.4-0.1s0.2-0.1,0.2-0.2c0-0.1,0-0.2,0-0.3c0-0.3-0.1-0.6-0.3-0.8
		c-0.3-0.2-0.6-0.3-1-0.3c-0.2,0-0.4,0-0.6,0.1c-0.2,0-0.3,0.1-0.5,0.2c-0.1,0.1-0.2,0.2-0.3,0.4s-0.1,0.4-0.2,0.6h-0.6
		c0-0.3,0.1-0.5,0.2-0.8c0.1-0.2,0.3-0.4,0.5-0.5s0.4-0.2,0.7-0.3c0.3-0.1,0.5-0.1,0.8-0.1c0.2,0,0.5,0,0.7,0.1
		c0.2,0.1,0.4,0.1,0.6,0.3c0.2,0.1,0.3,0.3,0.4,0.5s0.2,0.5,0.1,0.8v2.8c0,0.2,0,0.4,0.1,0.4s0.3,0.1,0.5,0v0.5h-0.2
		c-0.1,0-0.2,0-0.3,0h-0.3c-0.1,0-0.2,0-0.2-0.1c-0.1-0.1-0.1-0.1-0.1-0.2c0-0.1-0.1-0.2-0.1-0.2c0-0.1,0-0.2,0-0.3
		c-0.2,0.3-0.5,0.5-0.9,0.6c-0.3,0.1-0.7,0.2-1.1,0.2c-0.2,0-0.4,0-0.7-0.1c-0.2-0.1-0.4-0.1-0.6-0.3c-0.2-0.1-0.3-0.3-0.4-0.5
		c-0.1-0.2-0.1-0.4-0.1-0.6c0-0.9,0.6-1.4,1.8-1.6L257.3,132.1z M258.3,132.4c-0.2,0.1-0.5,0.2-0.8,0.2c-0.3,0-0.5,0.1-0.8,0.1
		c-0.4,0-0.8,0.1-1.1,0.3s-0.4,0.5-0.4,0.8c0,0.1,0,0.3,0.1,0.4c0.1,0.1,0.1,0.2,0.2,0.3c0.1,0.1,0.2,0.1,0.4,0.2c0.1,0,0.3,0,0.4,0
		c0.2,0,0.5,0,0.7-0.1c0.2-0.1,0.4-0.1,0.6-0.3c0.2-0.1,0.3-0.3,0.4-0.5s0.2-0.4,0.2-0.7L258.3,132.4z"/>
	<path class="st6" d="M260.8,137.1h-0.6v-7.2h0.6v0.9l0,0c0.1-0.2,0.2-0.3,0.3-0.5c0.1-0.1,0.3-0.2,0.5-0.3s0.3-0.1,0.5-0.2
		c0.2,0,0.3-0.1,0.5-0.1c0.4,0,0.8,0.1,1.1,0.2c0.3,0.1,0.5,0.3,0.7,0.6s0.3,0.5,0.4,0.9s0.1,0.7,0.1,1.1c0,0.3-0.1,0.7-0.1,1
		c-0.1,0.3-0.2,0.6-0.4,0.9c-0.2,0.3-0.4,0.5-0.7,0.6c-0.3,0.2-0.7,0.2-1,0.2c-0.4,0-0.7-0.1-1.1-0.2c-0.3-0.2-0.6-0.4-0.8-0.7
		V137.1z M260.8,132.5c0,0.3,0,0.6,0.1,0.8s0.2,0.5,0.3,0.7c0.1,0.2,0.3,0.4,0.5,0.5s0.5,0.2,0.7,0.2c0.3,0,0.6-0.1,0.8-0.2
		c0.2-0.1,0.4-0.3,0.6-0.5s0.3-0.5,0.3-0.7c0.1-0.3,0.1-0.6,0.1-0.9c0-0.3,0-0.6-0.1-0.9c-0.1-0.2-0.2-0.5-0.4-0.6
		c-0.2-0.2-0.3-0.3-0.6-0.4c-0.2-0.1-0.5-0.1-0.7-0.1c-0.5,0-1,0.2-1.3,0.6c-0.2,0.2-0.3,0.4-0.3,0.7
		C260.8,131.9,260.8,132.2,260.8,132.5z"/>
	<path class="st6" d="M267.6,135.1l-0.3,0.1c-0.1,0-0.3,0.1-0.4,0.1c-0.2,0-0.5-0.1-0.7-0.2c-0.2-0.2-0.3-0.5-0.2-0.8v-3.8h-0.7V130
		h0.7v-1.4h0.6v1.4h1v0.5h-1v3.6c0,0.1,0,0.2,0,0.3s0,0.2,0.1,0.2c0,0.1,0.1,0.1,0.1,0.1c0.1,0,0.2,0,0.3,0c0.1,0,0.2,0,0.2,0
		l0.2-0.1L267.6,135.1z"/>
	<path class="st6" d="M268.3,128.8v-0.9h0.7v0.9H268.3z M268.3,135.1v-5.2h0.6v5.2H268.3z"/>
	<path class="st6" d="M269.5,129.9h0.6l1.7,4.4l1.7-4.4h0.6l-2,5.2h-0.7L269.5,129.9z"/>
	<path class="st6" d="M275,132.6c0,0.3,0,0.5,0.1,0.8c0.1,0.2,0.2,0.5,0.3,0.6c0.2,0.2,0.3,0.3,0.5,0.4c0.2,0.1,0.5,0.2,0.8,0.2
		c0.4,0,0.7-0.1,1-0.3s0.5-0.5,0.6-0.9h0.7c-0.1,0.2-0.2,0.5-0.3,0.7c-0.1,0.2-0.3,0.4-0.5,0.6c-0.2,0.2-0.4,0.3-0.6,0.4
		c-0.6,0.2-1.3,0.1-1.9-0.1c-0.3-0.1-0.5-0.3-0.7-0.6s-0.3-0.5-0.4-0.9c-0.1-0.3-0.1-0.7-0.1-1.1c0-0.4,0-0.7,0.2-1.1
		c0.1-0.3,0.3-0.6,0.5-0.9c0.2-0.2,0.4-0.4,0.7-0.6c0.3-0.1,0.7-0.2,1-0.2c0.6,0,1.3,0.2,1.7,0.7c0.4,0.6,0.7,1.4,0.6,2.1L275,132.6
		z M278.4,132.1c0-0.2,0-0.5-0.1-0.7s-0.2-0.4-0.3-0.6c-0.1-0.2-0.3-0.3-0.5-0.4c-0.5-0.2-1-0.2-1.4,0c-0.2,0.1-0.4,0.2-0.5,0.4
		s-0.3,0.4-0.3,0.6c-0.1,0.2-0.1,0.5-0.2,0.7H278.4z"/>
	<path class="st6" d="M213.3,142c-0.1-0.5-0.4-1-0.8-1.3c-0.4-0.3-1-0.4-1.5-0.4c-0.4,0-0.8,0.1-1.1,0.2c-0.3,0.2-0.6,0.4-0.8,0.7
		s-0.4,0.6-0.5,1s-0.1,0.8-0.1,1.2s0,0.8,0.1,1.2s0.2,0.7,0.4,1s0.5,0.6,0.8,0.7c0.4,0.2,0.8,0.3,1.2,0.3c0.3,0,0.6-0.1,0.8-0.2
		c0.2-0.1,0.5-0.2,0.7-0.4s0.3-0.4,0.5-0.6c0.1-0.2,0.2-0.5,0.3-0.8h0.7c-0.1,0.3-0.2,0.7-0.4,1c-0.1,0.3-0.4,0.6-0.6,0.8
		c-0.3,0.2-0.6,0.4-0.9,0.6c-0.4,0.1-0.8,0.2-1.3,0.2s-1-0.1-1.4-0.3s-0.7-0.5-1-0.8c-0.3-0.4-0.4-0.8-0.5-1.2
		c-0.1-0.5-0.2-1-0.2-1.4c0-0.6,0.1-1.2,0.2-1.8c0.1-0.4,0.4-0.8,0.7-1.2c0.3-0.3,0.7-0.5,1.1-0.7c0.4-0.1,0.9-0.2,1.3-0.2
		c0.3,0,0.7,0,1,0.1s0.6,0.2,0.8,0.4s0.5,0.4,0.6,0.7c0.2,0.3,0.3,0.7,0.3,1L213.3,142z"/>
	<path class="st6" d="M214.9,148.5h0.2h0.3c0.2,0,0.3,0,0.4-0.1c0.1-0.1,0.2-0.2,0.3-0.4s0.1-0.3,0.2-0.5c0-0.1,0.1-0.3,0.2-0.4
		l-2-5.2h0.7l1.7,4.4l1.7-4.4h0.6l-1.9,5.1c-0.1,0.3-0.2,0.6-0.4,0.9c-0.1,0.2-0.2,0.5-0.4,0.7c-0.1,0.2-0.2,0.3-0.4,0.4
		c-0.2,0.1-0.3,0.1-0.5,0.1c-0.1,0-0.2,0-0.3,0L215,149v-0.5H214.9z"/>
	<path class="st6" d="M220.2,147.1h-0.6v-7.2h0.6v2.9c0.2-0.3,0.5-0.6,0.8-0.7c0.3-0.2,0.7-0.2,1.1-0.2c0.3,0,0.7,0.1,1,0.2
		c0.3,0.1,0.5,0.3,0.7,0.6s0.3,0.6,0.4,0.9c0.1,0.3,0.1,0.7,0.1,1c0,0.4,0,0.7-0.1,1.1c-0.1,0.3-0.2,0.6-0.4,0.9
		c-0.2,0.2-0.4,0.4-0.7,0.6c-0.3,0.1-0.7,0.2-1.1,0.2c-0.2,0-0.3,0-0.5-0.1c-0.2,0-0.3-0.1-0.5-0.2c-0.2-0.1-0.3-0.2-0.4-0.3
		c-0.1-0.1-0.3-0.3-0.3-0.5l0,0L220.2,147.1z M220.2,144.5c0,0.3,0,0.6,0.1,0.9c0.1,0.3,0.2,0.5,0.3,0.7c0.3,0.4,0.8,0.6,1.3,0.6
		c0.2,0,0.5,0,0.7-0.1s0.4-0.2,0.6-0.4c0.2-0.2,0.3-0.4,0.4-0.6c0.1-0.3,0.1-0.6,0.1-0.9c0-0.3,0-0.6-0.1-0.9
		c-0.1-0.3-0.2-0.5-0.3-0.8c-0.1-0.2-0.3-0.4-0.6-0.5c-0.2-0.1-0.5-0.2-0.8-0.2s-0.5,0.1-0.7,0.2c-0.2,0.1-0.4,0.3-0.6,0.5
		c-0.1,0.2-0.3,0.4-0.3,0.7C220.2,143.9,220.2,144.2,220.2,144.5z"/>
	<path class="st6" d="M225.6,144.6c0,0.3,0,0.5,0.1,0.8c0.1,0.2,0.2,0.5,0.3,0.6c0.2,0.2,0.3,0.3,0.6,0.4c0.2,0.1,0.5,0.2,0.8,0.2
		c0.4,0,0.7-0.1,1-0.3s0.5-0.5,0.6-0.9h0.7c-0.1,0.2-0.2,0.5-0.3,0.7s-0.3,0.4-0.4,0.6c-0.2,0.2-0.4,0.3-0.6,0.4
		c-0.6,0.2-1.3,0.2-1.9-0.1c-0.3-0.1-0.5-0.3-0.7-0.6s-0.3-0.5-0.4-0.9c-0.1-0.3-0.1-0.7-0.1-1.1c0-0.4,0.1-0.7,0.2-1.1
		c0.1-0.3,0.3-0.6,0.5-0.9c0.2-0.2,0.5-0.5,0.7-0.6c0.3-0.1,0.7-0.2,1-0.2c0.6,0,1.3,0.2,1.7,0.7c0.4,0.6,0.7,1.4,0.6,2.1h-4.4
		L225.6,144.6L225.6,144.6z M229,144.1c0-0.2,0-0.5-0.1-0.7s-0.2-0.4-0.3-0.6c-0.1-0.2-0.3-0.3-0.5-0.4c-0.2-0.1-0.5-0.2-0.7-0.1
		c-0.2,0-0.5,0-0.7,0.1s-0.4,0.2-0.5,0.4s-0.3,0.4-0.3,0.6c-0.1,0.2-0.1,0.5-0.2,0.7H229z"/>
	<path class="st6" d="M231,147.1h-0.6v-5.2h0.6v1l0,0c0.1-0.4,0.4-0.7,0.7-0.9s0.7-0.3,1.1-0.2v0.6c-0.3,0-0.6,0-0.8,0.2
		c-0.2,0.1-0.4,0.3-0.5,0.5s-0.2,0.4-0.3,0.7c0,0.3-0.1,0.5-0.1,0.8L231,147.1z"/>
	<path class="st6" d="M235.8,147.1v-7.2h2.5h0.6c0.2,0,0.4,0,0.6,0.1c0.2,0,0.4,0.1,0.5,0.2c0.2,0.1,0.4,0.2,0.5,0.3
		c0.2,0.2,0.4,0.4,0.6,0.6c0.2,0.2,0.3,0.5,0.4,0.8c0.1,0.3,0.2,0.6,0.2,0.8c0,0.3,0.1,0.5,0.1,0.8c0,0.2,0,0.5-0.1,0.7
		c0,0.2-0.1,0.5-0.1,0.7c-0.1,0.2-0.2,0.5-0.3,0.7s-0.2,0.4-0.4,0.6c-0.2,0.2-0.3,0.3-0.6,0.4c-0.2,0.1-0.4,0.2-0.6,0.3
		c-0.2,0.1-0.4,0.1-0.7,0.1c-0.2,0-0.5,0-0.7,0L235.8,147.1z M236.5,146.5h1.6c0.3,0,0.6,0,0.9-0.1c0.3,0,0.6-0.1,0.8-0.3
		c0.2-0.1,0.4-0.3,0.6-0.5c0.1-0.2,0.2-0.5,0.3-0.7s0.2-0.5,0.2-0.8s0.1-0.5,0.1-0.8s0-0.5,0-0.8s-0.1-0.5-0.2-0.8
		c-0.1-0.2-0.2-0.5-0.4-0.7s-0.4-0.4-0.6-0.5c-0.2-0.1-0.5-0.2-0.8-0.2s-0.6,0-0.9-0.1h-1.6L236.5,146.5z"/>
	<path class="st6" d="M242.9,144.6c0,0.3,0,0.5,0.1,0.8c0.1,0.2,0.2,0.5,0.3,0.6c0.2,0.2,0.3,0.3,0.6,0.4c0.2,0.1,0.5,0.2,0.8,0.2
		c0.4,0,0.7-0.1,1-0.3s0.5-0.5,0.6-0.9h0.7c-0.1,0.2-0.2,0.5-0.3,0.7s-0.3,0.4-0.4,0.6c-0.2,0.2-0.4,0.3-0.6,0.4
		c-0.6,0.2-1.3,0.2-1.9-0.1c-0.3-0.1-0.5-0.3-0.7-0.6s-0.3-0.5-0.4-0.9c-0.1-0.3-0.1-0.7-0.1-1.1c0-0.4,0-0.7,0.2-1.1
		c0.1-0.3,0.3-0.6,0.5-0.9c0.2-0.2,0.5-0.4,0.8-0.6c0.3-0.1,0.7-0.2,1-0.2c0.6,0,1.3,0.2,1.7,0.7c0.4,0.6,0.7,1.4,0.6,2.1h-4.5
		L242.9,144.6L242.9,144.6z M246.3,144.1c0-0.2,0-0.5-0.1-0.7s-0.2-0.4-0.3-0.6c-0.1-0.2-0.3-0.3-0.5-0.4c-0.5-0.2-1-0.2-1.4,0
		c-0.2,0.1-0.4,0.2-0.5,0.4s-0.3,0.4-0.3,0.6c-0.1,0.2-0.1,0.5-0.2,0.7H246.3z"/>
	<path class="st6" d="M247.2,142.4v-0.5h0.8v-0.8c0-0.4,0.1-0.7,0.2-1c0.2-0.3,0.5-0.4,0.9-0.4h0.3h0.2v0.6c-0.1,0-0.2,0-0.4,0
		c-0.1,0-0.3,0-0.4,0.1c-0.1,0.1-0.1,0.1-0.2,0.2c0,0.1-0.1,0.2-0.1,0.3s0,0.2,0,0.4v0.6h1v0.5h-1v4.7h-0.6v-4.7L247.2,142.4z"/>
	<path class="st6" d="M250.4,144.6c0,0.3,0,0.5,0.1,0.8c0.1,0.2,0.2,0.5,0.3,0.6c0.2,0.2,0.3,0.3,0.6,0.4c0.2,0.1,0.5,0.2,0.8,0.2
		c0.4,0,0.7-0.1,1-0.3s0.5-0.5,0.6-0.9h0.7c-0.1,0.2-0.2,0.5-0.3,0.7s-0.3,0.4-0.4,0.6c-0.2,0.2-0.4,0.3-0.6,0.4
		c-0.6,0.2-1.3,0.2-1.9-0.1c-0.3-0.1-0.5-0.3-0.7-0.6s-0.3-0.5-0.4-0.9c-0.1-0.3-0.1-0.7-0.1-1.1c0-0.4,0-0.7,0.2-1.1
		c0.1-0.3,0.3-0.6,0.5-0.9c0.2-0.2,0.5-0.4,0.8-0.6c0.3-0.1,0.7-0.2,1-0.2c0.6,0,1.3,0.2,1.7,0.7c0.4,0.6,0.7,1.4,0.6,2.1h-4.5
		L250.4,144.6L250.4,144.6z M253.8,144.1c0-0.2,0-0.5-0.1-0.7s-0.2-0.4-0.3-0.6c-0.1-0.2-0.3-0.3-0.5-0.4c-0.5-0.2-1-0.2-1.4,0
		c-0.2,0.1-0.4,0.2-0.5,0.4s-0.3,0.4-0.3,0.6c-0.1,0.2-0.1,0.5-0.2,0.7H253.8z"/>
	<path class="st6" d="M255.8,147.1h-0.6v-5.2h0.6v0.7c0.2-0.2,0.5-0.4,0.7-0.6c0.3-0.2,0.6-0.2,0.9-0.2s0.6,0.1,0.9,0.2
		c0.3,0.1,0.5,0.3,0.7,0.6c0.1,0.2,0.2,0.4,0.2,0.6c0,0.2,0,0.4,0,0.6v3.4h-0.5v-3.4c0-0.4-0.1-0.7-0.3-1.1c-0.3-0.3-0.6-0.4-1-0.4
		c-0.2,0-0.3,0-0.5,0.1c-0.1,0.1-0.3,0.1-0.4,0.2c-0.1,0.1-0.2,0.2-0.3,0.3s-0.2,0.3-0.2,0.4c-0.1,0.2-0.1,0.3-0.1,0.5s0,0.3,0,0.5
		L255.8,147.1z"/>
	<path class="st6" d="M260.7,145.5c0,0.4,0.2,0.7,0.5,1c0.3,0.2,0.7,0.3,1,0.3c0.2,0,0.4,0,0.6-0.1c0.1,0,0.3-0.1,0.4-0.2
		c0.1-0.1,0.2-0.2,0.2-0.3c0.1-0.1,0.1-0.2,0.1-0.4s-0.1-0.4-0.2-0.6c-0.2-0.1-0.4-0.2-0.6-0.3c-0.3-0.1-0.5-0.1-0.8-0.2
		c-0.3,0-0.5-0.1-0.8-0.2c-0.2-0.1-0.5-0.2-0.6-0.4c-0.2-0.2-0.3-0.5-0.2-0.8c0-0.4,0.2-0.8,0.5-1.1c0.4-0.3,0.9-0.4,1.4-0.4
		s1,0.1,1.4,0.4c0.4,0.3,0.6,0.8,0.6,1.2h-0.6c0-0.3-0.2-0.6-0.5-0.8s-0.6-0.3-0.9-0.2c-0.3,0-0.6,0.1-0.9,0.2
		c-0.2,0.2-0.3,0.4-0.3,0.6c0,0.2,0.1,0.4,0.2,0.5c0.2,0.1,0.4,0.2,0.6,0.3s0.5,0.1,0.8,0.2c0.3,0.1,0.5,0.1,0.8,0.2
		c0.2,0.1,0.4,0.3,0.6,0.4c0.2,0.2,0.3,0.5,0.2,0.8c0,0.2,0,0.5-0.2,0.7c-0.1,0.2-0.3,0.4-0.4,0.5c-0.2,0.1-0.4,0.2-0.7,0.3
		c-0.3,0.1-0.6,0.1-0.8,0.1c-0.3,0-0.6,0-0.8-0.1c-0.2-0.1-0.4-0.2-0.6-0.4s-0.3-0.3-0.4-0.6c-0.1-0.2-0.1-0.5-0.2-0.7L260.7,145.5z
		"/>
	<path class="st6" d="M265.3,144.6c0,0.3,0,0.5,0.1,0.8c0.1,0.2,0.2,0.5,0.3,0.6c0.2,0.2,0.3,0.3,0.5,0.4c0.2,0.1,0.5,0.2,0.8,0.2
		c0.4,0,0.7-0.1,1-0.3s0.5-0.5,0.6-0.9h0.7c-0.1,0.2-0.2,0.5-0.3,0.7c-0.1,0.2-0.3,0.4-0.5,0.6c-0.2,0.2-0.4,0.3-0.6,0.4
		c-0.6,0.2-1.3,0.2-1.9-0.1c-0.3-0.1-0.5-0.3-0.7-0.6s-0.3-0.5-0.4-0.9c-0.1-0.3-0.1-0.7-0.1-1.1c0-0.4,0-0.7,0.2-1.1
		c0.1-0.3,0.3-0.6,0.5-0.9c0.2-0.2,0.5-0.4,0.8-0.6c0.3-0.1,0.7-0.2,1-0.2c0.6,0,1.3,0.2,1.7,0.7c0.4,0.6,0.7,1.4,0.6,2.1h-4.3
		L265.3,144.6L265.3,144.6z M268.7,144.1c0-0.2,0-0.5-0.1-0.7s-0.2-0.4-0.3-0.6c-0.1-0.2-0.3-0.3-0.5-0.4c-0.5-0.2-1-0.2-1.4,0
		c-0.2,0.1-0.4,0.2-0.5,0.4s-0.3,0.4-0.3,0.6c-0.1,0.2-0.1,0.5-0.2,0.7H268.7z"/>
</g>
<g>
	<path class="st5" d="M47.8,52.4c0,0.8-0.3,1.7-1,2.3c-0.5,0.7-1.3,1.1-2.1,1.2c-1.1,0-2.1-0.4-2.9-1.2c-0.8-0.6-1.3-1.6-1.4-2.7
		c0-0.8,0.3-1.7,1-2.3c0.5-0.7,1.3-1.1,2.1-1.2c1.1-0.1,2.1,0.4,2.9,1.2C47.2,50.4,47.8,51.4,47.8,52.4z M46.4,52.4
		c-0.4-1.3-1.4-2.2-2.6-2.5c-0.5,0-1.1,0.2-1.4,0.6C42,50.9,41.9,51.4,42,52c0.4,1.3,1.4,2.2,2.6,2.5c0.5,0,1.1-0.2,1.4-0.6
		C46.4,53.5,46.5,52.9,46.4,52.4L46.4,52.4z"/>
	<path class="st5" d="M44.8,46.5l3.6-3.5l0.9,0.8l-2.6,2.4l1.2,1.1l2.2-2.2l0.9,0.8l-2.2,2.2l2.1,2l-1,1L44.8,46.5z"/>
	<path class="st5" d="M49.2,42.2l3.8-3.3l0.8,0.9L51,42.1l1.1,1.2l2.2-2.1l0.8,0.9L53,44.3l2,2.1l-1.1,1L49.2,42.2z"/>
	<path class="st5" d="M58.7,35.7L55.8,38l1,1.1l2.6-2.1l0.8,0.9l-2.6,2.2l1.2,1.4l3-2.4l0.8,1l-4.1,3.4L54,38l4-3.2L58.7,35.7z"/>
	<path class="st5" d="M59,33.8l1.2-1l5.2,2.2l-2.9-4l1.1-0.8l4.2,5.6l-1.2,0.9l-5.3-2.2l3,4l-1.1,0.8L59,33.8z"/>
	<path class="st5" d="M68.3,32.8c0.2,0.2,0.4,0.4,0.7,0.5c0.5,0.1,0.9-0.1,1.3-0.4c0.2-0.2,0.5-0.4,0.6-0.6c0.2-0.3,0.2-0.7,0-1
		c-0.1-0.2-0.3-0.3-0.6-0.3c-0.3,0-0.7,0.1-1,0.3l-0.7,0.3c-0.5,0.2-1,0.4-1.6,0.5c-0.6,0-1.1-0.3-1.4-0.8c-0.4-0.5-0.5-1.1-0.3-1.7
		c0.2-0.7,0.7-1.3,1.3-1.7c0.5-0.4,1.2-0.6,1.9-0.6s1.3,0.4,1.7,0.9L69.1,29c-0.2-0.3-0.6-0.5-1-0.4c-0.3,0.1-0.6,0.2-0.8,0.4
		c-0.3,0.2-0.5,0.4-0.6,0.7c-0.1,0.2-0.1,0.5,0.1,0.7c0.1,0.2,0.4,0.3,0.6,0.2c0.3-0.1,0.6-0.2,0.9-0.3l1.2-0.5
		c0.4-0.2,0.8-0.3,1.3-0.3s1,0.3,1.3,0.8c0.4,0.5,0.5,1.1,0.3,1.7c-0.2,0.7-0.7,1.3-1.3,1.7c-0.6,0.5-1.4,0.7-2.1,0.8
		c-0.7,0-1.3-0.4-1.6-0.9L68.3,32.8z"/>
	<path class="st5" d="M75.4,24.1L72.3,26l0.8,1.2l2.8-1.7l0.7,1l-2.8,1.8l1,1.5l3.2-2l0.7,1l-4.6,2.8l-3.7-6l4.4-2.7L75.4,24.1z"/>
	<path class="st5" d="M290.8,120.1c-0.1,0.5-0.3,1-0.6,1.3c-0.3,0.3-0.6,0.5-1,0.7s-0.7,0.3-1.1,0.4c-0.8,0.2-1.6,0.2-2.4-0.1
		c-0.9-0.3-1.6-1.1-1.8-2l-0.6-2.9l6.8-1.4l0.6,2.9C290.8,119.4,290.8,119.7,290.8,120.1z M289.2,117.7l-4.5,0.9l0.3,1.3
		c0.1,0.6,0.6,1.1,1.3,1.2c0.4,0.1,0.9,0,1.4-0.1c0.6-0.1,1.1-0.3,1.5-0.7c0.3-0.4,0.5-0.9,0.3-1.4L289.2,117.7z"/>
	<path class="st5" d="M291.1,128.5l-0.6-3.7L289,125l0.5,3.4l-1.2,0.2l-0.5-3.3l-1.8,0.3l0.6,3.8l-1.2,0.2l-0.8-5.2l6.9-1.1l0.8,5.1
		L291.1,128.5z"/>
	<path class="st5" d="M292.5,129.8l0.6,4.9l-1.2,0.1l-0.4-3.5l-1.6,0.2l0.4,3.1l-1.2,0.1l-0.4-3.1l-2.9,0.3l-0.2-1.4L292.5,129.8z"
		/>
	<path class="st5" d="M292.4,141.2l-0.3-3.7l-1.5,0.1l0.2,3.4l-1.2,0.1l-0.2-3.4l-1.8,0.1l0.3,3.9l-1.2,0.1l-0.4-5.3l7-0.5l0.4,5.1
		L292.4,141.2z"/>
	<path class="st5" d="M293.7,142.6v1.5l-4.8,2.9l4.9-0.1v1.4l-7,0.2V147l4.9-3l-5,0.1v-1.4L293.7,142.6z"/>
	<path class="st5" d="M289,150.9c-0.3,0-0.5,0.1-0.7,0.2c-0.3,0.3-0.5,0.8-0.5,1.2c0,0.3,0,0.6,0.1,0.9c0.1,0.4,0.4,0.6,0.8,0.6
		c0.2,0,0.4-0.1,0.5-0.3c0.2-0.3,0.3-0.7,0.4-1l0.2-0.8c0.1-0.5,0.3-1,0.6-1.5c0.4-0.5,0.9-0.7,1.5-0.7s1.2,0.3,1.5,0.7
		c0.4,0.6,0.6,1.3,0.6,2s-0.2,1.3-0.6,1.9c-0.4,0.5-1.1,0.8-1.7,0.8v-1.4c0.4,0,0.7-0.2,0.9-0.5c0.1-0.3,0.2-0.6,0.2-0.9
		c0-0.3,0-0.6-0.2-0.9c-0.1-0.2-0.4-0.4-0.6-0.4s-0.5,0.1-0.6,0.3c-0.1,0.3-0.2,0.6-0.3,0.9l-0.3,1.2c-0.1,0.4-0.3,0.8-0.5,1.2
		c-0.4,0.4-0.9,0.6-1.4,0.6c-0.6,0-1.2-0.3-1.6-0.8c-0.4-0.6-0.7-1.4-0.6-2.1c0-0.8,0.2-1.5,0.7-2.1c0.4-0.5,1.1-0.8,1.7-0.8
		L289,150.9z"/>
	<path class="st5" d="M292,161.7l0.2-3.7l-1.5-0.1l-0.2,3.4l-1.2-0.1l0.2-3.4l-1.8-0.1l-0.2,3.9l-1.3-0.1l0.4-5.3l7,0.5l-0.4,5.1
		L292,161.7z"/>
	<path class="st5" d="M61,267.2l-1.2-0.9l4.2-5.6l1.2,0.9L61,267.2z"/>
	<path class="st5" d="M66.1,262.4l1.3,0.9l-0.5,5.6l2.8-4l1.1,0.8l-3.9,5.8l-1.2-0.8l0.5-5.7l-2.8,4.1l-1.1-0.8L66.1,262.4z"/>
	<path class="st5" d="M76.1,268.9l-0.7,1l-1.8-1.1l-3,4.9l-1.2-0.8l3-4.9l-1.8-1.1l0.7-1L76.1,268.9z"/>
	<path class="st5" d="M80.6,272.9l-3.2-1.8l-0.7,1.3l3,1.7l-0.6,1.1l-3-1.7l-0.9,1.6l3.4,1.9l-0.7,1.1l-4.6-2.6l3.4-6.1l4.5,2.5
		L80.6,272.9z"/>
	<path class="st5" d="M82.3,272.4l1.3,0.6l-2.6,5.1l3.1,1.6l-0.6,1.1l-4.4-2.2L82.3,272.4z"/>
	<path class="st5" d="M87.5,275l1.3,0.6l-2.4,5.2l3.2,1.4l-0.5,1.1l-4.5-2L87.5,275z"/>
	<path class="st5" d="M91.3,284.3l-1.3-0.6l2.7-6.4l1.3,0.5L91.3,284.3z"/>
	<path class="st5" d="M98.8,282c0.1-0.4-0.1-0.9-0.4-1.2c-0.2-0.2-0.4-0.3-0.7-0.4c-0.5-0.2-1.1-0.2-1.5,0.1c-0.6,0.4-1,0.9-1.2,1.6
		c-0.3,0.6-0.3,1.3-0.1,1.9c0.2,0.5,0.6,0.8,1.1,1c0.4,0.2,0.9,0.2,1.3,0s0.7-0.5,0.9-0.8l-1.5-0.6l0.4-1.1l2.7,1l-1.3,3.5l-0.9-0.3
		l0.2-0.9c-0.3,0.2-0.6,0.3-1,0.4c-0.5,0.1-1,0-1.5-0.2c-0.8-0.3-1.5-0.9-1.8-1.7c-0.3-0.9-0.3-1.9,0.1-2.8c0.3-0.9,1-1.7,1.8-2.2
		c1.6-0.7,3.5-0.2,4.4,1.3c0.3,0.6,0.4,1.3,0.3,1.9L98.8,282z"/>
	<path class="st5" d="M106.8,283.6l-3.5-1.1l-0.4,1.4l3.2,1l-0.4,1.2l-3.2-1l-0.6,1.7l3.7,1.2l-0.4,1.2l-5-1.6l2.1-6.7l4.9,1.6
		L106.8,283.6z"/>
	<path class="st5" d="M108.1,282.8l1.5,0.4l1.4,5.4l1.3-4.7l1.3,0.4l-1.8,6.7l-1.4-0.4l-1.5-5.5l-1.3,4.8l-1.3-0.4L108.1,282.8z"/>
	<path class="st5" d="M115.3,285.4c0.7-0.5,1.5-0.6,2.3-0.4c1,0.1,1.8,0.8,2.2,1.7c0.2,0.4,0.3,0.9,0.2,1.4l-1.4-0.3
		c0-0.3-0.1-0.6-0.2-0.8c-0.2-0.4-0.6-0.6-1-0.7c-0.5-0.1-1,0-1.3,0.4c-0.4,0.5-0.7,1-0.8,1.7c-0.2,0.6-0.1,1.2,0.1,1.8
		c0.2,0.4,0.6,0.7,1.1,0.8c0.4,0.1,0.9,0,1.2-0.3c0.2-0.2,0.4-0.4,0.5-0.7l1.4,0.3c-0.2,0.7-0.7,1.2-1.3,1.6
		c-0.6,0.4-1.4,0.5-2.1,0.3c-0.9-0.1-1.6-0.7-2.1-1.4C113.3,288.9,113.8,286.7,115.3,285.4L115.3,285.4z"/>
	<path class="st5" d="M126.4,288l-3.6-0.6l-0.2,1.5l3.3,0.5l-0.2,1.2l-3.3-0.5l-0.3,1.8l3.8,0.6l-0.2,1.2l-5.2-0.9l1.1-6.9l5,0.8
		L126.4,288z"/>
	<g>
		<path class="st7" d="M148.8,6.3c-23.3,0-45.3,5.6-64.7,15.5l0.6,0.8c19.3-9.8,41.1-15.4,64.2-15.4c63.1,0,116.7,41.4,135,98.5
			l1-0.2C266.5,48.1,212.4,6.3,148.8,6.3z"/>
		<path class="st7" d="M7.1,149.1c0-32.9,11.3-63.3,30.2-87.4l-0.9-0.5C17.5,85.5,6.1,116,6.1,149.1c0,43.1,19.2,81.8,49.5,108
			l0.6-0.8C26,230.2,7.1,191.8,7.1,149.1z"/>
		<path class="st7" d="M288.8,172.1c-11,67.3-69.6,118.8-139.9,118.8c-4.3,0-8.6-0.2-12.9-0.6l0.1,1c4.2,0.4,8.5,0.6,12.8,0.6
			c70.9,0,129.9-52,140.9-119.8L288.8,172.1L288.8,172.1z"/>
	</g>
</g>
</svg>
