<?xml version="1.0" encoding="utf-8"?>
<!-- Generator: Adobe Illustrator 23.0.1, SVG Export Plug-In . SVG Version: 6.00 Build 0)  -->
<svg version="1.1" id="图层_1" xmlns="http://www.w3.org/2000/svg" xmlns:xlink="http://www.w3.org/1999/xlink" x="0px" y="0px"
	 viewBox="0 0 300 300" style="enable-background:new 0 0 300 300;" xml:space="preserve">
<style type="text/css">
	.st0{fill:#384248;}
	.st1{fill:#7ECCF2;}
	.st2{fill:#125486;}
	.st3{fill:#FFFFFF;}
	.st4{fill:#B2B2B3;}
</style>
<title>ico3</title>
<path class="st0" d="M9.7,162.1c1.4,0.1,2.7,0.4,4,0.8l0,0c0.5-0.3,0.8-0.5,0.8-0.7S14,162,13.1,162l0.5-1c0.5,0.1,1,0.2,1.4,0.3
	c0.5,0.2,0.7,0.4,0.7,0.7s-0.2,0.8-0.8,1.2l-0.2,0.1c0.5,0.3,0.9,0.6,1.2,1l-0.7,0.6c-0.4-0.5-1-0.8-1.5-1.1
	c-0.4,0.2-0.9,0.4-1.4,0.5c-1,0.3-2.1,0.6-3.1,0.7l0.4,3.8l1.9-0.2c1.7-0.2,3.4-0.2,5,0.2l-0.7,1c-1.4-0.3-2.8-0.4-4.3-0.2L8.7,170
	l-0.6-4.7c-0.3,0.1-0.7,0.1-1,0.1l-0.1-1l1-0.1v-0.8c-0.2,0.1-0.5,0.3-0.7,0.4L7.1,163c0.2-0.1,0.5-0.3,0.8-0.4L7.8,162l0.9-0.1
	l0.2,2.2c0.8-0.1,1.6-0.3,2.4-0.5c0.3-0.1,0.6-0.2,0.9-0.2c-0.9-0.2-1.9-0.4-2.8-0.4L9.7,162.1z M11,168.4l-0.9,0.1l-0.4-3.1
	l0.9-0.1l0.1,1.2c0.3,0,0.6,0.1,0.9,0.1l-0.2-1.5l0.8-0.1c0.6,0,1.2,0.2,1.8,0.4c0.1-0.2,0.2-0.4,0.3-0.6l0.8,0.4
	c-0.1,0.2-0.2,0.4-0.4,0.6c0.6,0.5,1.1,1.1,1.5,1.7l-0.8,0.6c-0.3-0.5-0.7-1-1.1-1.4c-0.2,0.4-0.4,0.8-0.5,1.3
	c-0.4-0.1-0.9-0.2-1.3-0.3l0.1,0.5l-0.9,0.1l-0.1-0.8l-0.9-0.1L11,168.4z M12.4,165.9l0.1,0.9l0.9,0.2c0.1-0.2,0.2-0.4,0.3-0.7
	C13.3,166.1,12.8,165.9,12.4,165.9L12.4,165.9z"/>
<path class="st0" d="M12.2,151.4l0.4,0.7c-0.9,0.2-1.7,0.4-2.4,0.6c2-0.1,3.3-0.1,3.9,0c0.7,0,1.3,0.6,1.2,1.3l0,0
	c0,0.2,0,0.5,0,0.9l-1,0.3c0-0.4,0-0.7,0-1s-0.3-0.6-0.7-0.6s-2.1,0-4.8,0.1v0.8h0.6c2.7-0.1,4.8,0.5,6.1,1.7l-0.7,0.8
	c-1.1-1.1-2.9-1.7-5.4-1.6H8.8l0.1,1.6h-1l-0.1-1.5l-1.5,0.1v-1l1.5-0.1l-0.1-1.8l2.2-0.1L9.8,152C10.5,151.8,11.3,151.6,12.2,151.4
	z M15.6,159.5l-0.7,0.9c-1-0.4-2.1-0.5-3.2-0.5l-4.8,0.2l-0.1-2.7l7.6-0.3c0.7,0,1.1,0.2,1.1,0.8v0.6l-0.9,0.3c0-0.2,0-0.4,0-0.6
	c0-0.1-0.2-0.2-0.5-0.2l-1.7,0.1v0.8C13.5,158.9,14.6,159.1,15.6,159.5L15.6,159.5z M7.8,158.3v0.8l1.4-0.1v-0.8L7.8,158.3z
	 M10.2,155.9c0.9,0,1.8,0.1,2.6,0.3l-0.2,0.9c-0.8-0.2-1.6-0.4-2.4-0.4L10.2,155.9z M11.5,159v-0.8l-1.4,0.1v0.8L11.5,159z"/>
<path class="st0" d="M10.5,144.4H11l0.1-2.1h0.8l-0.1,2.2h0.5l0.1-2.4h0.8l-0.1,2.4h0.7v1h-0.7v2.1h-0.9v-2.1h-0.5v1.8H11v-1.8h-0.5
	v1.6H9.6v-1.6H9.1v2.1H8.3l0.1-2.1H7.8v1.6H7v-1.6H6.4v-1H7l0.1-2h1.3v-0.6h0.8v0.6h1.4L10.5,144.4z M14.2,141.8l1,0.2l-0.1,2.8
	c0.1,1.3-0.2,2.7-0.9,3.8l-0.2,0.2c0.4,0.3,0.8,0.7,1.1,1.1l-0.9,0.6c-0.3-0.4-0.6-0.8-1-1.1c-0.6,0.4-1.3,0.7-2,0.8l-0.3-0.9
	c0.5-0.1,0.9-0.3,1.4-0.5c-0.6-0.3-1.3-0.4-1.9-0.5v1.7H9.7c-0.6-0.5-1.3-1-2-1.4v1.4h-1l0.1-2.5h0.8c0.7,0.4,1.4,0.8,2,1.3v-1.4
	h0.6c1.1,0,2.2,0.3,3.1,0.8c0.1-0.1,0.2-0.2,0.3-0.3c0.4-0.9,0.6-1.8,0.6-2.8C14.2,144.2,14.3,143,14.2,141.8z M8.3,144.4v-1.1H7.8
	v1.1H8.3z M9.7,144.4v-1.1H9.2v1.1H9.7z"/>
<path class="st0" d="M15.6,139l-0.1,0.9l-4.2-0.4c0.7,0.3,1.3,0.7,1.9,1.1l-1.2,0.3c-0.8-0.7-1.7-1.2-2.6-1.6l0,0l-0.1,1l-0.9-0.1
	l0.1-1L6.8,139l0.1-1l1.8,0.2l0.1-0.9l0.9,0.1l-0.1,0.9H10c0.5-0.4,1-0.7,1.6-1.1l0.8,0.6l-1.3,0.6L15.6,139z M7.6,136.2H7l0.1-0.9
	l0.7,0.1l0.1-1.2l-0.7-0.1l0.1-0.9H8l0.1-1.4l0.9,0.1l-0.1,1.4l0.6,0.1l-0.1,0.9L8.8,134l-0.1,1.3h0.6l-0.1,0.9H8.6l-0.1,1.3
	l-0.9-0.1V136.2z M14.6,135.7c0.6,0.7,1,1.6,1.1,2.5l-0.9,0.3c-0.1-0.8-0.4-1.5-0.9-2.1l-0.1-0.1l-0.2,2l-0.9-0.1l0.2-2.5l-0.5-0.2
	l-0.2,2l-3.1-0.3l0.5-4.8l3.1,0.3l-0.2,1.9c0.2,0,0.3,0.1,0.5,0.1l0.3-2.6l0.9,0.1l-0.2,2.1c0.6-0.6,1.1-1.3,1.5-2.1l0.7,0.8
	c-0.5,1-1.2,1.8-2.1,2.3C14.3,135.4,14.5,135.5,14.6,135.7L14.6,135.7z M10.8,133.4h-0.4l-0.3,3h0.4L10.8,133.4z M11.5,133.5l-0.3,3
	h0.4l0.3-3H11.5z"/>
<path class="st0" d="M62.4,42l-0.9-0.7c0-1.5-0.3-3-0.8-4.3l1-0.2c0.3,0.7,0.5,1.5,0.6,2.2l4,5.2l-0.8,0.6l-3-4
	C62.5,41.2,62.4,41.6,62.4,42z M64.2,35.9c-0.3-0.2-0.6-0.3-0.9-0.5l0.6-0.8c0.4,0.2,0.7,0.4,1,0.7l2.1-1.6l0.6,0.8l-5.1,3.9
	L62,37.6L64.2,35.9z M67.3,35.4l0.6,0.7L64.1,39l-0.5-0.7L67.3,35.4z M68.2,36.5l0.6,0.7L65,40l-0.6-0.7L68.2,36.5z M71.4,40.3
	l-0.8,0.6l-0.3-0.4l-2.5,1.9l0.3,0.4l-0.8,0.6l-2.2-2.8l4.1-3.1L71.4,40.3z M69.7,39.8l-0.7-1l-2.5,1.9l0.7,0.9L69.7,39.8z"/>
<path class="st0" d="M70.6,30.7c0-0.3-0.1-0.5-0.2-0.8l1-0.5c0.1,0.2,0.1,0.4,0.1,0.6l2.5-1.7l2.7,4.1L71.6,36l-2.7-4.1L70.6,30.7z
	 M74,30.2l-0.3-0.5l-3.6,2.4l0.3,0.5L74,30.2z M74.7,31.3l-0.3-0.5l-3.6,2.4l0.3,0.5L74.7,31.3z M72.3,36.4c0.3,0.8,0.5,1.6,0.5,2.5
	h-1c0-0.7-0.1-1.4-0.4-2.1L72.3,36.4z M75.2,32l-3.6,2.4l0.3,0.5l3.6-2.4L75.2,32z M74.9,37.7C74.5,38,74,38,73.6,37.6
	c-0.1-0.1-0.1-0.1-0.1-0.2l-1-1.5l0.9-0.6l0.8,1.3c0.1,0.1,0.2,0.2,0.3,0.1c0,0,0,0,0.1,0l1.7-1.1c0.1-0.1,0.2-0.2,0.2-0.3
	c-0.1-0.3-0.2-0.6-0.4-0.9l1-0.3c0.4,0.7,0.5,1.2,0.4,1.5s-0.3,0.5-0.6,0.7L74.9,37.7z M75.9,34.9l-0.3,0.8c-0.5-0.2-1-0.4-1.6-0.5
	l0.4-0.8C74.8,34.5,75.4,34.7,75.9,34.9L75.9,34.9z M79.2,33.8l-0.4,0.9c-0.7-0.4-1.4-0.7-2.2-1l0.4-0.8
	C77.7,33.1,78.5,33.5,79.2,33.8L79.2,33.8z"/>
<path class="st0" d="M83.5,23.3c-1.9,1.6-4,3-6.2,4.1l-0.7-0.7c2.1-1.2,4.2-2.5,6.1-4L83.5,23.3z M80,28.2L79.4,29
	c-0.5-0.4-1.1-0.8-1.7-1.1l0.7-0.8C78.9,27.4,79.5,27.8,80,28.2z M81.5,28.5l-0.4-0.7l0.9-0.5l0.4,0.7l3-1.7l0.5,0.9l-2.3,1.3
	c1.2,0.4,2.5,0.6,3.8,0.5l-0.2,1.2c-1.5,0-3-0.4-4.4-1.2l1.7,3.1l-0.9,0.5l-1.7-3c0,1.6-0.5,3.1-1.4,4.4l-1-0.5
	c0.8-1,1.4-2.2,1.6-3.5L79,31l-0.5-0.9L81.5,28.5z M82,26.8l-0.7,0.7c-0.4-0.4-0.9-0.8-1.4-1.1l0.7-0.7C81,26,81.5,26.3,82,26.8z
	 M83.8,24.1c0,0.9,0,1.7-0.2,2.6l-1-0.1c0.2-0.8,0.2-1.6,0.2-2.4L83.8,24.1z"/>
<path class="st0" d="M86.6,24.4L85.8,24c0.4-1,0.6-2,0.5-3.1l0.9-0.2c0,0.2,0,0.5,0,0.7l1.6-0.8c-0.2-0.2-0.4-0.3-0.7-0.5l0.9-0.6
	c0.2,0.2,0.5,0.4,0.7,0.6l2.7-1.3l0.4,0.8l-2.7,1.3l0.2,0.4l2.3-1.1l0.3,0.7L90.7,22l0.2,0.4l2.3-1.1l0.3,0.7l-2.3,1.1l0.2,0.4
	l2.8-1.3l0.3,0.8L88,26l-1.1-2.3C86.8,23.9,86.7,24.2,86.6,24.4z M89.2,21.4l-2,1l0.2,0.4l2-0.9L89.2,21.4z M87.8,27.7l-0.4-0.8
	l3.4-1.6L90.6,25l0.9-0.4l0.2,0.3l3.3-1.6l0.4,0.8l-2.3,1.1c1,0.1,2,0.1,2.9-0.1v1c-1.3,0.2-2.6,0.1-3.8-0.4h-0.1l1,2l-0.9,0.4
	l-1-2.1h-0.1c-0.4,1.2-1.1,2.4-2,3.2l-0.8-0.6c0.8-0.6,1.5-1.4,2-2.2L87.8,27.7z M89.8,22.4l-2,1l0.2,0.4l2-0.9L89.8,22.4z
	 M90.3,23.5l-2,1l0.2,0.4l2-1L90.3,23.5z"/>
<path class="st0" d="M64,260.2c-1,0.8-1.9,1.5-2.9,2.1l-0.5-0.9c1-0.6,2-1.3,2.9-2.1L64,260.2z M66.1,260c-1,1.4-2.3,2.6-3.8,3.4
	l-0.2-1c1.3-0.7,2.4-1.7,3.3-2.9l2.2-3l4.8,3.6L71,262l-4.1-3L66.1,260z M70.8,262.4l-0.5,0.7l-1.8-1.3l-0.3,0.4l1.8,1.3l-2.1,2.9
	c-0.2,0.3-0.6,0.4-0.9,0.2c0,0-0.1,0-0.1-0.1l-0.6-0.5l0.3-0.7l0.5,0.4c0.1,0.1,0.2,0.1,0.3,0l0,0l1-1.3l-0.6,0.1
	c0-0.3-0.1-0.7-0.2-1l0.6-0.1c0.1,0.3,0.2,0.7,0.2,1l0.5-0.7l-1-0.8l-2.1,2.8l-0.7-0.5l0.7-0.9l-0.6,0.1c0-0.4,0-0.7-0.1-1.1
	l0.6-0.1c0.1,0.3,0.1,0.7,0.1,1l0.7-0.9l-0.5,0.1c0-0.4-0.1-0.7-0.2-1.1l0.6-0.1c0.1,0.3,0.1,0.6,0.2,0.9l0.5-0.7l-1-0.7l-2.3,2.8
	l-0.7-0.5l2.7-3.5l1.6,1.2l0.3-0.4l-1.6-1.2l0.5-0.7L70.8,262.4z M65.1,258.9l-1,0.1c-0.1-0.6-0.2-1.3-0.4-1.9l0.9-0.1
	C64.9,257.6,65,258.2,65.1,258.9L65.1,258.9z M66.7,257.2l-0.9,0.1c-0.1-0.6-0.2-1.3-0.3-1.9l0.9-0.1
	C66.6,255.9,66.7,256.5,66.7,257.2L66.7,257.2z M67.5,265.3l-0.6,0.1c0-0.4-0.1-0.7-0.2-1.1l0.6-0.1C67.4,264.6,67.5,265,67.5,265.3
	L67.5,265.3z M67.8,257.6l-0.4,0.5l3.3,2.5l0.4-0.5L67.8,257.6z"/>
<path class="st0" d="M72.4,266.2c-1,0.8-2,1.5-3.1,2.1l-0.6-0.9c1.1-0.6,2.1-1.3,3.1-2L72.4,266.2z M73.8,271.2l0.3-1l0.9,0.6
	c0.3,0.2,0.5,0.2,0.6,0l3.4-5.3l-3.3-2.1l-4.1,6.5l-0.8-0.5l4.7-7.2l5,3.2l-4.1,6.4c-0.3,0.5-0.9,0.7-1.4,0.4
	c-0.1,0-0.1-0.1-0.2-0.1L73.8,271.2z M73.2,264.6l-1,0.2c-0.1-0.7-0.3-1.4-0.6-2l0.9-0.2C72.8,263.3,73,264,73.2,264.6L73.2,264.6z
	 M74.6,262.8l-1,0.2c-0.1-0.7-0.3-1.4-0.6-2l0.9-0.2C74.2,261.5,74.5,262.1,74.6,262.8L74.6,262.8z M77.2,267.1l-1.9,3l-2.3-1.5
	l1.9-3L77.2,267.1z M76,267.3l-0.8-0.5l-1,1.5l0.8,0.5L76,267.3z M78.3,265.8l-0.5,0.8l-2.6-1.7l0.5-0.8L78.3,265.8z"/>
<path class="st0" d="M80.3,270.2l0.5-0.9l5.2,2.8c-0.6,1.1-1.2,2-1.6,2.6c-0.3,0.5-0.7,0.9-1.2,1.2c-0.4,0.2-0.8,0.1-1.2-0.1
	l-1.6-0.9l0.2-1l1.4,0.8c0.3,0.2,0.8,0.2,1.1-0.1c0.6-0.6,1.1-1.4,1.5-2.2l-1.8-1c-0.5,0.7-1.2,1.2-1.9,1.6
	c-0.9,0.4-1.9,0.6-2.9,0.6l-0.2-1.1c0.8,0,1.7-0.1,2.5-0.4c0.6-0.3,1.2-0.8,1.6-1.3L80.3,270.2z M84.3,267.8
	c-0.7,0.4-1.4,0.8-2.1,1.1c-0.8,0.3-1.6,0.4-2.5,0.5l-0.1-1c0.7,0,1.5-0.1,2.2-0.4s1.4-0.6,2-1L84.3,267.8z M87.4,272.6l-1,0.4
	c-0.8-1.4-1.2-3.1-1-4.8h1C86.2,269.8,86.6,271.4,87.4,272.6z"/>
<path class="st0" d="M88,279l-0.9-0.4l1.8-4c-0.6,0.6-1.2,1.1-1.9,1.6l0.1-1.2c1-0.5,1.8-1.2,2.5-2l-1.1-0.5l0.4-0.9l1.2,0.5
	l0.8-1.6l0.9,0.4l-0.7,1.6l1.1,0.5l-0.4,0.9l-1.1-0.5l-0.2,0.4c0.2,0.6,0.4,1.2,0.6,1.9l-0.8,0.5c-0.1-0.5-0.2-1-0.2-1.4L88,279z
	 M97,274.2c-1.2-0.2-2.4-0.5-3.5-0.9l-0.6,1.3l3.5,1.6l-0.4,0.9l-1.2-0.5l-2.1,4.5l-0.9-0.4l2.1-4.5l-1.3-0.6
	c-0.7,1.6-1.9,3-3.5,3.9l-0.3-1c1.3-0.8,2.3-1.9,2.9-3.3l1.3-2.9c1.3,0.6,2.6,0.9,4,1.1V274.2z"/>
<path class="st0" d="M208.3,279.6l-1,0.4l-0.2-0.5l-4.3,1.7l0.2,0.5l-1,0.4l-2.9-7.3l1.9-0.8c0-0.4,0-0.8,0-1.2l1-0.2
	c0,0.3,0,0.7,0,1l3.3-1.3L208.3,279.6z M205.2,274.6l-0.4-1l-4.3,1.7l0.4,1L205.2,274.6z M206,276.6l-0.4-1.1l-4.3,1.7l0.4,1.1
	L206,276.6z M206.8,278.7l-0.5-1.2l-4.3,1.7l0.5,1.2L206.8,278.7z"/>
<path class="st0" d="M210.4,269.4l0.4,0.9l-3.3,1.6l-0.4-0.9L210.4,269.4z M211.8,271.6l0.4,0.9l-2,0.9c0.2,1,0.4,1.9,0.5,2.9
	c0.5-0.4,1-0.8,1.4-1.3c-0.4-0.3-0.8-0.6-1.1-0.9l0.6-0.7c0.7,0.5,1.5,1.1,2.3,1.8c0.1-1.5-0.3-3.1-1-4.5v-0.1l-1.1,0.5l-0.4-0.9
	l1.1-0.5l-0.8-1.7l0.9-0.4l0.8,1.7l1.9-0.9c1.4,2.9,2.2,4.7,2.4,5.4s-0.1,1.2-0.9,1.6c-0.1,0.1-0.4,0.2-0.8,0.3l-0.6-0.7
	c0.3-0.1,0.6-0.2,0.8-0.4c0.3-0.1,0.5-0.5,0.4-0.9l0,0c-0.1-0.4-0.8-1.8-1.9-4.1l-1,0.5v0.1c1.2,2.5,1.5,4.6,0.8,6.4l-1-0.3
	c0.1-0.4,0.2-0.8,0.3-1.1l-0.6,0.8l-0.5-0.4c-0.8,0.8-1.7,1.5-2.6,2.2l-0.6-0.8c0.1,0,0.1-0.1,0.1-0.2c0-1-0.1-2.1-0.4-3.1l-1.1,0.5
	l-0.4-0.9L211.8,271.6z"/>
<path class="st0" d="M218.4,265c0.1,0.9,0.1,1.7,0,2.6l3.2,5.6l-0.9,0.5l-2.6-4.5c-0.1,0.5-0.3,1-0.5,1.6l-0.8-0.8
	c0.6-1.5,0.8-3.2,0.6-4.8L218.4,265z M224.2,271.4c-0.5,0.4-1.2,0.3-1.5-0.2c-0.1-0.1-0.1-0.2-0.1-0.2l-1.3-2.3
	c-0.2,0.3-0.4,0.6-0.6,0.9l-0.9-0.6c0.3-0.5,0.6-0.9,0.9-1.4l-1.8-3.2l0.9-0.5l1.5,2.7c0.5-1,0.8-2,1.1-3l1,0.4
	c-0.3,1.3-0.9,2.6-1.5,3.7l1.5,2.7c0.1,0.2,0.3,0.3,0.5,0.2c0,0,0.1,0,0.1-0.1l1.2-0.7c0.2-0.1,0.3-0.2,0.3-0.4
	c-0.1-0.5-0.3-1-0.6-1.4l1-0.2c0.4,0.6,0.6,1.3,0.7,1.9c-0.1,0.4-0.4,0.7-0.7,0.8L224.2,271.4z"/>
<path class="st0" d="M226.1,261.7l-0.2,1c-0.7-0.2-1.4-0.3-2.2-0.2l0.2-0.9C224.7,261.5,225.4,261.6,226.1,261.7z M227.2,263.8
	l-0.2,1c-0.7-0.2-1.4-0.3-2.2-0.3l0.2-0.9C225.8,263.6,226.5,263.6,227.2,263.8L227.2,263.8z M228.5,261.8c0-0.2-0.1-0.4-0.2-0.6
	l-1.1,0.8l-0.7-0.5c0.4-0.8,0.5-1.6,0.6-2.5l1-0.3c0,0.7-0.2,1.3-0.4,1.9c0.6-0.4,1.1-0.8,1.7-1.3l-0.6-0.2l0.4-0.8
	c0.7,0.2,1.5,0.4,2.2,0.7l-0.4,1l-0.7-0.3l-1.2,0.9c0.1,0.2,0.1,0.4,0.2,0.6l2.6-1.8l0.5,0.8l-1.2,0.8c0.7,0.2,1.4,0.1,2.1-0.1
	l0.1,1c-1,0.2-2.1,0.1-3-0.4l-1,0.6c0,0.1,0,0.3,0,0.4c-0.1,0.9-0.4,1.8-0.9,2.5l-0.9-0.3c0.4-0.6,0.7-1.3,0.8-2l-1.3,0.9l-0.5-0.8
	L228.5,261.8z M228.2,265.2c0.3,1.2,0.6,2.4,0.8,3.6l-1,0.2c-0.2-1.2-0.4-2.4-0.7-3.6L228.2,265.2z M231,262.2
	c-0.1,1.1-0.5,2.2-1.2,3l-0.7-0.5c0.7-0.7,1-1.6,1.1-2.6L231,262.2z M232.2,262.4c-0.1,1.5-0.8,2.9-1.8,4l-0.8-0.5
	c0.9-1,1.5-2.2,1.7-3.5H232.2z M233.5,262.5c0.1,1.7-0.8,3.4-2.6,5.1l-0.9-0.4c1.8-1.6,2.6-3.2,2.6-4.6L233.5,262.5z"/>
<path class="st0" d="M234,256.3l-0.1,1c-0.7-0.2-1.5-0.3-2.2-0.3l0.1-0.9C232.5,256.1,233.3,256.2,234,256.3z M240.1,260.7
	c-0.4,0.3-0.9,0.6-1.3,0.8c-0.4,0.2-0.8,0.2-1.2,0.1c-0.2,0-0.4,0-0.4,0s-0.1,0.7,0,1.6l-1-0.1c-0.1-0.7-0.1-1.4,0.1-2l-1.6-2.1
	l-1,0.8l-0.6-0.7l1.8-1.4l2.2,2.9h0.1c0.3,0.1,0.6,0.1,0.9,0.1c0.4-0.1,0.8-0.3,1.2-0.6l1.6-1.2l1.1-0.9c0.4-0.3,0.7-0.5,0.9-0.7
	l0.4,0.9l-1.8,1.4L240.1,260.7z M237.4,254.8l0.8,1l-0.8,0.6l-0.8-1l0,0c0.1,0.9-0.2,1.9-0.6,2.7l-0.9-0.4c0.4-0.6,0.6-1.2,0.8-1.8
	l-1,0.8l-0.5-0.7l1.8-1.4l-0.2-0.3c-0.4,0.4-0.9,0.8-1.4,1.1l-0.7-0.4c1.2-0.9,2.3-1.9,3.3-3l0.8,0.3c-0.4,0.5-0.8,0.9-1.3,1.4
	l0.3,0.4l1.8-1.4l0.5,0.7l-1,0.8c0.7,0,1.4-0.1,2-0.4l0.2,0.9c-0.9,0.2-1.9,0.2-2.9,0L237.4,254.8z M239.2,255.3l0.3,0.4
	c0.1,0.2,0.2,0.4,0.2,0.6l1-0.7l0.3,0.4c0.4,0.5,0.6,1,0.7,1.6c-0.1,0.3-0.2,0.6-0.5,0.8l-0.9,0.8l-0.8-0.5c0.3-0.1,0.5-0.3,0.8-0.5
	c0.2-0.1,0.3-0.3,0.4-0.5c0.1-0.1,0-0.4-0.3-0.8l-1.1,0.9c-0.1-0.3-0.2-0.6-0.4-1l-0.9,0.6c0.6,1,0.6,2.3,0,3.4l-0.9-0.4
	c0.5-0.7,0.6-1.6,0.2-2.4l-0.6,0.5l-0.6-0.7L239.2,255.3z"/>
<g>
	<path class="st0" d="M288.5,121.2l-0.7-0.6c0.4-0.5,0.9-1,1.2-1.6l0.7,0.6C289.3,120.1,288.9,120.7,288.5,121.2z M286,122.6
		c-1.7,0.2-3.4,0.1-5.1-0.5l0.6-0.9c1.4,0.5,2.9,0.6,4.4,0.4l3.8-0.4l0.8,6l-2.4,0.3l-0.6-5.1L286,122.6z M288.9,122.3l-0.7,0.1
		l0.5,4.1l0.7-0.1L288.9,122.3z M286.1,121.2l-0.8-0.6c0.4-0.5,0.9-1,1.2-1.6l0.7,0.6C286.8,120.2,286.5,120.6,286.1,121.2
		L286.1,121.2z M287.4,127.8l-0.9,0.1l-0.3-2.2l-0.5,0.1l0.3,2.1l-3.6,0.4c-0.4,0.1-0.7-0.1-0.8-0.5c0-0.1,0-0.1,0-0.2l-0.1-0.8
		l0.8-0.3l0.1,0.7c0,0.1,0.1,0.2,0.2,0.2l1.6-0.2l-0.5-0.3c0.3-0.2,0.4-0.6,0.6-0.9l0.5,0.4c-0.2,0.3-0.3,0.6-0.6,0.8l0.9-0.1
		l-0.2-1.3l-3.5,0.4l-0.1-0.9l1.1-0.2l-0.5-0.3c0.3-0.2,0.5-0.6,0.7-0.8l0.5,0.4c-0.2,0.2-0.4,0.6-0.6,0.8l1.2-0.2l-0.5-0.3
		c0.3-0.2,0.5-0.6,0.7-0.9l0.5,0.4c-0.2,0.2-0.3,0.6-0.6,0.8l0.9-0.1l-0.2-1.2l-3.5,0.4l-0.1-0.8l4.3-0.5l0.3,2l0.5-0.1l-0.3-2
		l0.9-0.1L287.4,127.8z M284.4,121.3c-1.2-0.1-2.4-0.4-3.5-0.6l0.3-0.9c1.1,0.2,2.3,0.5,3.5,0.6L284.4,121.3z M283,127.3l-0.5-0.4
		c0.3-0.2,0.4-0.6,0.7-0.9l0.5,0.4C283.5,126.8,283.3,127.1,283,127.3L283,127.3z"/>
	<path class="st0" d="M289.7,131.3l-0.7-0.7c0.5-0.5,0.9-1.1,1.3-1.7l0.7,0.7C290.6,130.2,290.2,130.8,289.7,131.3z M282.4,135.5
		l1-0.3v1.1c0,0.3,0.1,0.5,0.4,0.5l6.4-0.3l-0.2-4l-7.7,0.4v-1l8.6-0.4l0.3,5.9l-7.5,0.4c-0.7,0-1.1-0.3-1.1-1.1L282.4,135.5z
		 M287.4,131.2l-0.7-0.6c0.5-0.5,1-1.1,1.3-1.7l0.7,0.7C288.3,130.1,287.9,130.7,287.4,131.2L287.4,131.2z M289.4,136.1h-0.9
		l-0.1-3.1l0.9-0.1L289.4,136.1z M287.8,135.9l-3.5,0.2l-0.1-2.7l3.5-0.2L287.8,135.9z M285.8,131.4c-1.2-0.4-2.4-0.8-3.5-1.3l0.4-1
		c1.1,0.5,2.3,1,3.5,1.4L285.8,131.4z M286.8,135v-0.9l-1.8,0.1v0.9L286.8,135z"/>
	<path class="st0" d="M289.5,139.6l0.6-0.8c0.5,0.6,1.2,1,1.9,1.2l-0.2,1l-0.5-0.2l0,2.4l-0.9,0l0-1.4c-0.2,0.2-0.4,0.2-0.7,0.4
		l-0.4-1c0.3-0.2,0.6-0.3,1-0.6l0.1-0.4C290.2,140.1,289.9,139.9,289.5,139.6z M287.4,147.3l0-1l1,0l0.1-6.4l-1,0l0-1l1.9,0
		l-0.1,3.7l0.4-0.2l0.1,0.8l0.1-0.2c0.5,0.5,1.2,0.8,1.9,1l-0.2,1l-0.4-0.2l0,2.6l-0.9,0l0-1.5c-0.2,0.2-0.3,0.3-0.5,0.3l-0.3-0.9
		c0.3-0.2,0.6-0.3,0.9-0.5l0.1-0.4c-0.3-0.1-0.6-0.4-0.8-0.5l0.3-0.5l-0.5,0.1l-0.1,3.6L287.4,147.3z M286.1,145.9l0.1-4.6l-0.5-0.1
		l-0.1,5.1l-2.6,0l0-1l0.3,0l0-4.1l-0.3,0l0-1l5.1,0.1l0,5.6L286.1,145.9z M286.8,144.9l0.5,0l0.1-3.7l-0.5,0L286.8,144.9z
		 M284.1,145.4l0.6,0l0-4.1l-0.6,0L284.1,145.4z"/>
	<path class="st0" d="M283,148.3l1-0.2c-0.1,0.2-0.1,0.5-0.1,0.7c-0.1,0.2,0,0.3,0.2,0.4l0.1,0l1.9,0.1c-0.1-0.3-0.2-0.7-0.2-1
		l1.1-0.1c0.1,0.4,0.2,0.9,0.3,1.3l1.9,0.1l0.1-1.1l1,0.1l-0.1,1.1l1.7,0.2l-0.1,1l-1.7-0.2l-0.1,0.7l-1-0.1l0.1-0.7l-1.5-0.1
		l0.3,0.8l-1-0.1l-0.3-0.8l-2.6-0.2c-0.5,0.1-0.9-0.4-0.9-0.9c0-0.1,0.1-0.2,0.1-0.2L283,148.3z M290.3,155.1l-0.2,2.2l-2-0.1l0-0.9
		l1.1,0.1l0.3-3.7l-1.1-0.1l0-0.9l2,0.1l-0.2,2.2c0.3-0.1,0.7-0.2,0.9-0.4l0.1,1.1C291.1,154.9,290.8,155,290.3,155.1L290.3,155.1z
		 M288.7,154.1c-0.8-0.4-1.6-1-2.1-1.8l0.7-0.6c0.4,0.7,1,1.3,1.7,1.6L288.7,154.1z M286.9,156.9l-0.4-0.9c0.8-0.3,1.6-0.8,2.2-1.3
		l0.3,0.9C288.3,156,287.6,156.4,286.9,156.9L286.9,156.9z M285.6,151.5l0.9,0l-0.4,5.2l-0.9,0l0.1-2l-1.7-0.2l-0.1,2.4l-1-0.1
		l0.4-5.9l1,0.1l-0.1,2.4l1.6,0.1L285.6,151.5z"/>
</g>
<path class="st1" d="M38.2,86.6l47,26c13.1-22.6,37-36.8,63.2-37.3V21.5C102.7,22,60.7,46.8,38.2,86.6z"/>
<path class="st2" d="M151.6,21.5v53.7c25.9,0.5,49.6,14.4,62.8,36.7l46.8-26.3C238.5,46.4,196.9,22,151.6,21.5z"/>
<path class="st1" d="M278.5,150c0-21.5-5.4-42.7-15.7-61.6L216,114.7c11.8,22.1,11.8,48.7-0.1,70.8l46.7,26.5
	C273.1,193,278.6,171.7,278.5,150z"/>
<path class="st1" d="M150,224.8L150,224.8c-25.8,0-49.7-13.2-63.4-35.1l-45.8,28.1c23.4,37.7,64.7,60.7,109.2,60.7h0.8L150,224.8z"
	/>
<path class="st2" d="M75.2,150c0-12.1,2.9-23.9,8.5-34.6l-47-26c-21.1,39.5-20.1,87.1,2.5,125.7L85,187
	C78.5,175.7,75.2,162.9,75.2,150z"/>
<path class="st2" d="M261,214.9l-46.7-26.5c-12.9,21.6-35.8,35.3-61,36.4l0.8,53.7C198.3,277.1,238.7,253,261,214.9z"/>
<path class="st0" d="M120,146.6V137h2v3.7h3.8V137h2v9.7h-2v-4.3H122v4.3L120,146.6z"/>
<path class="st0" d="M132.9,137h2.1v5.9c0,0.5,0.1,1,0.2,1.4c0.3,0.6,0.9,0.9,1.6,0.8c0.6,0.1,1.3-0.2,1.6-0.8
	c0.2-0.5,0.3-1,0.2-1.4V137h2.1v5.9c0,0.8-0.1,1.7-0.5,2.4c-0.6,1.1-1.7,1.6-3.4,1.6s-2.8-0.5-3.4-1.6c-0.3-0.7-0.5-1.6-0.5-2.4
	L132.9,137z"/>
<path class="st0" d="M148.6,137h2.3l3.4,9.7h-2.2l-0.6-2h-3.6l-0.7,2h-2.1L148.6,137z M148.5,143h2.5l-1.2-3.8L148.5,143z"/>
<path class="st0" d="M158.8,137h2.1v5.9c0,0.5,0.1,1,0.2,1.4c0.3,0.6,0.9,0.9,1.6,0.8c0.6,0.1,1.3-0.2,1.6-0.8
	c0.2-0.5,0.3-1,0.2-1.4V137h2v5.9c0,0.8-0.1,1.7-0.5,2.4c-0.6,1.1-1.7,1.6-3.4,1.6s-2.8-0.5-3.4-1.6c-0.4-0.7-0.5-1.6-0.5-2.4
	L158.8,137z"/>
<path class="st0" d="M171.6,137h2.1l3.8,6.7V137h1.9v9.7h-2l-3.9-6.9v6.9h-1.9L171.6,137z"/>
<path class="st0" d="M107.1,159.8c0,0.4,0.2,0.7,0.4,1c0.5,0.4,1.1,0.7,1.7,0.6c0.4,0,0.8,0,1.2-0.2c0.5-0.1,0.9-0.6,0.9-1.1
	c0-0.3-0.2-0.6-0.4-0.7c-0.4-0.2-0.9-0.4-1.3-0.4l-1-0.2c-0.7-0.1-1.5-0.4-2.1-0.7c-0.7-0.5-1.1-1.3-1-2.1c0-0.8,0.4-1.6,1-2.1
	c0.8-0.6,1.8-0.9,2.8-0.9c0.9,0,1.9,0.3,2.6,0.8c0.7,0.6,1.2,1.4,1.1,2.4h-2c0-0.5-0.3-1-0.8-1.2c-0.4-0.2-0.8-0.3-1.2-0.2
	c-0.4,0-0.9,0.1-1.3,0.3c-0.3,0.2-0.5,0.5-0.5,0.9c0,0.3,0.2,0.6,0.5,0.8c0.4,0.2,0.8,0.3,1.3,0.4l1.7,0.4c0.6,0.1,1.2,0.3,1.7,0.7
	c0.6,0.5,0.9,1.2,0.9,2s-0.3,1.7-1,2.2c-0.8,0.6-1.9,0.9-2.9,0.9c-1.1,0.1-2.1-0.2-3-0.9c-0.7-0.6-1.1-1.4-1.1-2.4L107.1,159.8z"/>
<path class="st0" d="M124.9,154.8h-5.1v2h4.7v1.7h-4.7v2.5h5.3v1.7h-7.3V153h7.1V154.8z"/>
<path class="st0" d="M130.9,154.1c1.8-1.7,4.7-1.6,6.3,0.2c0,0.1,0.1,0.1,0.1,0.2c0.4,0.5,0.6,1.2,0.7,1.8h-2
	c-0.1-0.4-0.3-0.7-0.5-1.1c-0.9-0.8-2.2-0.8-3.1,0c-0.1,0.1-0.1,0.2-0.2,0.2c-0.5,0.8-0.7,1.6-0.6,2.5c-0.1,0.9,0.2,1.7,0.7,2.4
	c0.4,0.5,1,0.8,1.7,0.8c0.6,0,1.2-0.2,1.6-0.7c0.2-0.3,0.4-0.7,0.5-1.1h2c-0.1,1-0.6,1.9-1.3,2.6c-0.7,0.7-1.7,1-2.7,1
	c-1.2,0.1-2.4-0.4-3.2-1.3c-0.8-1-1.3-2.3-1.2-3.7C129.4,156.6,129.9,155.2,130.9,154.1z"/>
<path class="st0" d="M142.9,153.1h2v5.9c0,0.5,0.1,1,0.2,1.4c0.6,0.9,1.8,1.1,2.7,0.5c0.2-0.1,0.3-0.3,0.5-0.5
	c0.2-0.5,0.3-1,0.2-1.4v-5.9h2.1v5.9c0,0.8-0.1,1.7-0.5,2.4c-0.6,1.1-1.7,1.6-3.4,1.6s-2.8-0.5-3.4-1.6c-0.4-0.7-0.5-1.6-0.5-2.4
	L142.9,153.1z"/>
<path class="st0" d="M162,153.3c0.4,0.1,0.7,0.4,0.9,0.7c0.2,0.2,0.4,0.5,0.5,0.8s0.2,0.7,0.2,1c0,0.5-0.1,0.9-0.4,1.4
	c-0.2,0.5-0.6,0.8-1.1,0.9c0.4,0.1,0.7,0.4,0.9,0.8c0.2,0.5,0.3,1,0.3,1.5v0.6c0,0.3,0,0.6,0,0.9c0,0.2,0.2,0.4,0.4,0.6v0.2h-2.2
	c-0.1-0.2-0.1-0.4-0.1-0.5c-0.1-0.3-0.1-0.6-0.1-0.8v-0.9c0-0.4-0.1-0.9-0.3-1.2c-0.3-0.2-0.7-0.4-1.1-0.3h-2v3.8h-2v-9.7h4.6
	C160.9,153,161.5,153.1,162,153.3z M157.8,154.8v2.6h2.2c0.3,0,0.7,0,1-0.2c0.4-0.2,0.6-0.6,0.6-1.1c0.1-0.5-0.2-0.9-0.6-1.2
	c-0.3-0.1-0.6-0.2-0.9-0.2L157.8,154.8L157.8,154.8z"/>
<path class="st0" d="M170.5,162.8h-2v-9.7h2V162.8z"/>
<path class="st0" d="M182.7,153.1v1.7h-2.9v7.9h-2v-7.9h-2.9v-1.7H182.7z"/>
<path class="st0" d="M192.6,153.1h2.3l-3.2,6v3.6h-2v-3.6l-3.3-6h2.4l2,4.2L192.6,153.1z"/>
<path class="st3" d="M99.8,234.1c-0.4,0.1-0.8,0.1-1.2,0.1l0,0c-0.6,0-1.1-0.2-1.6-0.4c-0.5-0.3-0.9-0.7-1.2-1.3
	c-0.2-0.5-0.3-1-0.3-1.6c0.1-1.3,0.7-2.5,1.7-3.4c1.2-1.1,2.6-1.9,4.2-2.4c1.2-0.3,2.4-0.4,3.6-0.3c1.2,0.1,2.4,0.5,3.5,1
	c0.8,0.4,1.6,1,2.1,1.7s0.9,1.5,1.2,2.4c0.4,0.9,0.5,1.9,0.3,2.9l0,0c-0.2,0.6-0.7,1-1.3,1.1c-0.1,0.9-0.5,1.7-1.2,2.2
	c-0.4,0.3-0.8,0.5-1.2,0.7c-0.4,0.2-0.9,0.3-1.4,0.3c-0.3,0-0.5,0-0.8-0.1l0.7,1.2c0.1,0.2,0,0.4-0.2,0.5s-0.4,0-0.5-0.1l-1.6-2.8
	c-0.1-0.1-0.1-0.1-0.2-0.2c-0.3,0.2-0.6,0.3-0.9,0.4h-0.1l1.3,2.2c0.1,0.2,0,0.4-0.1,0.5c-0.2,0.1-0.4,0-0.5-0.1l-1.5-2.5h-0.3
	c-0.2,0-0.4-0.1-0.7-0.1c-0.5-0.1-1-0.4-1.4-0.9C100.1,234.8,99.9,234.5,99.8,234.1L99.8,234.1z M107.2,231L107.2,231
	c0-0.2,0.1-0.4,0.3-0.4c0.2,0,0.4,0.1,0.4,0.3v0.1c0,0.4,0.1,0.7,0.2,1.1c0.1,0.3,0.3,0.6,0.6,0.9c0.3,0,0.5,0,0.8,0h0.5h0.1
	c0.5-0.1,0.8-0.2,0.9-0.4l0,0c0.1-0.7,0-1.4-0.3-2l0,0c-0.2-0.7-0.5-1.4-1-2s-1-1-1.7-1.3c-1-0.5-2-0.7-3.1-0.8
	c-0.4,0-0.8-0.1-1.2-0.1c-0.3,0.1-0.6,0.3-0.8,0.6c-0.5,0.5-0.8,1.2-0.8,1.9c0,0.2-0.2,0.4-0.4,0.4l0,0c-0.2,0-0.4-0.2-0.4-0.4l0,0
	c0-0.9,0.3-1.7,0.9-2.3l-0.3,0.1c-1.1,0.3-2.1,0.8-3,1.5c-0.1,0.3-0.2,0.5-0.2,0.8c0,0.4,0,0.7,0.1,1.1c0.1,0.2-0.1,0.4-0.3,0.5
	c-0.2,0.1-0.4-0.1-0.5-0.3l0,0c-0.1-0.4-0.1-0.8-0.1-1.2c-0.6,0.6-0.9,1.3-1,2.1c0,0.4,0.1,0.7,0.2,1.1c0.1,0.3,0.3,0.5,0.6,0.7
	c0.3,0.2,0.6,0.3,1,0.3c0.5,0,1-0.1,1.4-0.3c-0.2-0.2-0.3-0.5-0.4-0.8c-0.2-0.4-0.3-0.9-0.3-1.4c0-0.2,0.2-0.4,0.4-0.4l0,0
	c0.2,0,0.4,0.2,0.4,0.4c0,0.4,0.1,0.7,0.2,1.1c0.1,0.3,0.3,0.5,0.4,0.7c0.8-0.9,2-1.3,3.2-1.2c2.3,0,1.9-1.3,1.9-1.3
	c-0.1-0.2,0-0.4,0.2-0.5l0,0c0.2-0.1,0.4,0,0.5,0.2l0,0c0,0,0.7,2.3-2.7,2.3c-2.4,0-2.8,1.3-2.9,1.5l0,0l0,0l0,0c0,0.1,0,0.2,0,0.2
	c0,0.3,0.1,0.5,0.2,0.7c0.2,0.2,0.5,0.4,0.7,0.4c0.1,0,0.3,0.1,0.4,0.1c0.3,0,0.6,0,0.8-0.1c0.3-0.1,0.5-0.2,0.7-0.4
	c0.8-0.6,1.8-1,2.8-1.2c0.4-0.1,0.7-0.1,1.1-0.2c-0.1-0.2-0.3-0.4-0.4-0.6C107.3,232,107.2,231.5,107.2,231L107.2,231z M105.2,228.4
	L105.2,228.4c0.7-0.2,1.5-0.1,2.1,0.3c0.6,0.4,1.1,1,1.3,1.7c0.1,0.2,0.3,0.3,0.5,0.3c0.2-0.1,0.3-0.3,0.3-0.5
	c-0.5-1.9-2.4-3-4.3-2.5l0,0c-0.2,0.1-0.3,0.3-0.3,0.5S105,228.5,105.2,228.4z M109.5,234.2L109.5,234.2c-0.9,0-1.7,0.1-2.6,0.3
	c-0.5,0.1-0.9,0.2-1.4,0.4c0.3,0.6,0.8,1,1.5,1c0.3,0,0.6-0.1,0.9-0.2c0.3-0.1,0.6-0.3,0.8-0.5C109.1,234.9,109.4,234.6,109.5,234.2
	L109.5,234.2z"/>
<path class="st3" d="M110.3,243.2c1.7-1.8,3.1-3.8,4.2-6c1.1-2.3,1.2-5,0.4-7.4c-0.7-2.4-2.1-4.5-4.1-6s-4.4-2.3-6.8-2.4
	c-2.4-0.2-4.8,0.3-7,1.3c-1.9,0.9-3.4,2.5-4.2,4.5c-0.3,0.6-0.5,1.2-0.6,1.9c-0.2,0.6-0.2,1.2-0.1,1.8c0,0.1,0.1,0.3,0.1,0.4
	c0,0.2,0.1,0.4,0.1,0.5c0,0.2,0.1,0.4,0.1,0.6c0,0.2,0,0.5,0,0.7c-0.1,0.2-0.2,0.5-0.3,0.6l0,0c-0.2,0.4-0.5,0.7-0.8,1.1l0,0L91,235
	c-0.5,0.6-0.9,1.3-1.1,2v0.1c0,0.3,0.2,0.6,0.4,0.9l0,0c0.2,0.2,0.5,0.3,0.8,0.4l0,0h0.2l-0.1,0.1c-0.2,0.4-0.3,0.7-0.3,1.1
	c0,0.4,0.1,0.8,0.4,1.1l0.1,0.1c-0.2,0.3-0.2,0.6-0.2,0.9c0.1,0.4,0.2,0.7,0.4,1l0,0c0.1,0.1,0.2,0.2,0.2,0.3l0,0l0.3,0.4
	c0.1,0.1,0.1,0.3,0,0.4c-0.1,0.3-0.2,0.5-0.2,0.8l0,0l0,0c-0.1,0.3,0,0.7,0.2,1c0.2,0.4,0.5,0.7,0.9,0.9c1.1,0.6,2.3,0.9,3.6,0.9
	c1.2,0,2.1,0,2.3,2.9c0.1,0.8,0.1,1.6,0.1,2.5c0,0.4,0.4,0.7,0.9,0.7c0.4,0,0.6-0.3,0.7-0.7c0-0.9,0-1.7-0.1-2.6
	c-0.4-4.2-1.8-4.2-3.8-4.3c-1,0-1.9-0.2-2.8-0.7c-0.1-0.1-0.2-0.2-0.3-0.3v-0.1c0-0.2,0.1-0.3,0.1-0.4c0.4-0.6,0.3-1.4-0.1-1.9
	c-0.1-0.2-0.2-0.3-0.4-0.5l0,0c-0.1-0.1-0.1-0.1-0.2-0.2c-0.1-0.1-0.1-0.2-0.1-0.3c0.1-0.1,0.2-0.3,0.2-0.4c0.1-0.2,0.1-0.4,0-0.6
	c0-0.1-0.1-0.3-0.1-0.4c-0.1-0.1-0.1-0.2-0.2-0.3s-0.1-0.2-0.1-0.4c0-0.1,0-0.2,0.1-0.3V239c0.7-1.2,0.8-1.6-0.1-2l0,0
	c-0.2-0.1-0.4-0.2-0.7-0.2l0,0l-0.4-0.1l0.7-0.9l0.2-0.2l0,0c0.3-0.4,0.6-0.9,0.9-1.2v-0.1c0.3-0.4,0.4-0.8,0.5-1.3
	c0-0.3,0-0.6,0-0.9s0-0.6-0.1-0.8c0-0.2-0.1-0.5-0.1-0.7s-0.1-0.3-0.1-0.5c0-0.3,0.1-0.7,0.1-1c0.1-0.5,0.3-1.1,0.5-1.6
	c0.7-1.6,1.9-2.8,3.5-3.6c2-0.9,4.1-1.3,6.3-1.1c4.4,0,8.3,3,9.5,7.3c0.7,2.1,0.5,4.4-0.4,6.4c-1,2.1-2.3,4-3.9,5.6
	c-0.4,0.4-0.6,0.8-0.8,1.3c-0.1,0.6-0.1,1.2,0,1.8c0.2,1.3,0.5,2.7,0.8,4s0.8,2.6,1.1,3.9c0.1,0.4,0.6,0.6,1,0.5l0,0
	c0.4-0.1,0.7-0.6,0.5-1l0,0c-0.4-1.3-0.8-2.6-1.2-3.9c-0.3-1.3-0.6-2.5-0.8-3.8c-0.1-0.4-0.1-0.8,0-1.2
	C110.1,243.5,110.2,243.4,110.3,243.2z"/>
<path class="st3" d="M61.2,161.9c1,0,1.9,0.4,2.7,1.1l0,0c0.7,0.7,1,1.6,1.1,2.6c0,1-0.4,2-1.1,2.7c-0.7,0.7-1.7,1.1-2.7,1.1
	s-2-0.4-2.7-1.1l0,0c-0.7-0.7-1.1-1.7-1.1-2.7C57.4,163.5,59,161.8,61.2,161.9C61.1,161.8,61.1,161.8,61.2,161.9L61.2,161.9z
	 M39.5,140.2L39.5,140.2c1,0,2,0.4,2.7,1.1v0.1c0.7,0.7,1.1,1.6,1.1,2.6c0,2.1-1.7,3.8-3.7,3.8c-2.1,0-3.8-1.7-3.8-3.7
	S37.4,140.3,39.5,140.2C39.5,140.3,39.5,140.3,39.5,140.2L39.5,140.2z M41,142.5L41,142.5c-0.4-0.4-0.9-0.6-1.5-0.6
	c-1.2-0.1-2.2,0.8-2.3,2s0.8,2.2,2,2.3c0.1,0,0.2,0,0.3,0c1.2,0,2.1-0.9,2.1-2.1C41.6,143.4,41.4,142.9,41,142.5L41,142.5L41,142.5z
	 M39.5,161.9L39.5,161.9c1,0,2,0.4,2.7,1.1l0,0c0.7,0.7,1.1,1.6,1.1,2.6c0,2.1-1.6,3.7-3.7,3.8c0,0,0,0-0.1,0c-1,0-2-0.4-2.7-1.1
	l0,0c-0.7-0.7-1.1-1.7-1.1-2.7C35.7,163.5,37.4,161.8,39.5,161.9L39.5,161.9z M41,164.1L41,164.1c-0.4-0.4-0.9-0.6-1.5-0.6
	s-1.1,0.2-1.5,0.6c-0.4,0.4-0.6,1-0.6,1.5c0,0.6,0.2,1.1,0.6,1.5l0,0c0.4,0.4,0.9,0.6,1.5,0.6s1.1-0.2,1.5-0.6
	c0.4-0.4,0.6-0.9,0.6-1.5C41.6,165.1,41.4,164.6,41,164.1L41,164.1L41,164.1z M61.2,140.2L61.2,140.2c1,0,1.9,0.4,2.7,1.1v0.1
	c0.7,0.7,1.1,1.6,1.1,2.6s-0.4,2-1.1,2.7c-1.5,1.5-3.8,1.5-5.3,0s-1.5-3.8,0-5.3C59.2,140.7,60.2,140.3,61.2,140.2L61.2,140.2z
	 M62.7,142.5L62.7,142.5c-0.4-0.4-0.9-0.6-1.5-0.6c-1.2,0-2.2,0.9-2.2,2.1l0,0c0,0.6,0.2,1.1,0.6,1.5c0.4,0.4,0.9,0.6,1.5,0.6
	s1.1-0.2,1.5-0.6C63.5,144.7,63.5,143.3,62.7,142.5C62.6,142.5,62.6,142.5,62.7,142.5L62.7,142.5L62.7,142.5z M62.7,164.1
	L62.7,164.1c-0.4-0.4-0.9-0.6-1.5-0.6s-1.1,0.2-1.5,0.6c-0.4,0.4-0.6,0.9-0.6,1.5s0.2,1.1,0.6,1.5l0,0c0.4,0.4,0.9,0.6,1.5,0.6
	s1.1-0.2,1.5-0.6c0.4-0.4,0.6-0.9,0.6-1.5C63.3,165.1,63.1,164.6,62.7,164.1L62.7,164.1L62.7,164.1z"/>
<rect x="42.2" y="143.4" class="st3" width="16.9" height="1.4"/>
<rect x="42.2" y="164.9" class="st3" width="16.9" height="1.4"/>
<rect x="39" y="146.9" class="st3" width="1.4" height="16.1"/>
<rect x="60.5" y="146.9" class="st3" width="1.4" height="16.1"/>
<path class="st3" d="M92,55.1c-0.5,0.2-1,0.5-1.5,0.8c-0.4,0.3-0.9,0.7-1.2,1.1c-0.4,0.4-0.7,0.8-1,1.3s-0.6,0.9-0.8,1.5
	c-0.2,0.4,0,0.8,0.4,0.9l0,0c0.4,0.2,0.8,0,1-0.3l0,0c0.2-0.4,0.4-0.8,0.7-1.2c0.2-0.4,0.5-0.8,0.8-1.1s0.7-0.6,1.1-0.9
	c0.4-0.3,0.8-0.5,1.2-0.7c0.4-0.1,0.6-0.5,0.4-0.9v-0.1C92.8,55.1,92.4,54.9,92,55.1L92,55.1z"/>
<path class="st3" d="M105.6,71.6c3.2-3.8,4-9,2.1-13.6v-0.1c-0.7-1.6-1.6-3-2.8-4.3l-0.1-0.1c-1.2-1.2-2.7-2.2-4.3-2.9
	c-1.6-0.7-3.4-1-5.1-1C90,49.7,85.1,53,83.1,58c-0.7,1.6-1,3.3-1,5.1c0,1.7,0.3,3.4,1,5v0.1c0.7,1.6,1.7,3.1,2.9,4.3
	c1.2,1.2,2.7,2.2,4.3,2.9l0,0c3.3,1.4,6.9,1.4,10.2,0c1.2-0.5,2.4-1.2,3.4-2.1l5.3,5.3c0.5,0.4,1.3,0.4,1.7-0.1
	c0.4-0.5,0.4-1.2,0-1.6L105.6,71.6z M103.1,70.7L103.1,70.7C98.8,75,92,75,87.7,70.7l0,0c-1-1-1.8-2.2-2.4-3.5v-0.1
	c-1.1-2.6-1.1-5.6,0-8.2c0.6-1.3,1.4-2.5,2.4-3.5c4.2-4.2,11.1-4.2,15.4,0l0,0h0.1c1,1,1.8,2.2,2.3,3.5V59c0.5,1.3,0.8,2.7,0.8,4.1
	c0,1.4-0.3,2.8-0.8,4.2C104.9,68.5,104.1,69.7,103.1,70.7z"/>
<path class="st3" d="M103.3,62.3c-0.4,0-0.7,0.3-0.7,0.7c0,0.9-0.2,1.9-0.5,2.7l0,0c-1.1,2.7-3.7,4.4-6.6,4.4
	c-0.4,0-0.7,0.4-0.6,0.8c0,0.3,0.3,0.6,0.6,0.6c1.1,0,2.2-0.2,3.3-0.6c1-0.4,2-1.1,2.8-1.9s1.4-1.7,1.9-2.8l0,0
	c0.4-1.1,0.7-2.2,0.7-3.4C104,62.6,103.7,62.3,103.3,62.3z"/>
<path class="st3" d="M203.6,234.8H202c0-0.1-0.1-0.3-0.2-0.4l0,0c-0.1-0.1-0.1-0.3-0.2-0.4l1.1-1.1l0,0c0.3-0.3,0.3-0.7,0-0.9
	l-1.7-1.8l0,0c-0.3-0.3-0.7-0.3-0.9,0l0,0l-1.1,1.1c-0.1-0.1-0.3-0.2-0.5-0.2l-0.5-0.2v-1.6c0-0.4-0.3-0.7-0.6-0.7l0,0h-2.5
	c-0.4,0-0.7,0.3-0.7,0.7v1.6l-0.5,0.2c-0.2,0.1-0.3,0.1-0.4,0.2l-1.1-1.1l0,0c-0.3-0.3-0.7-0.3-1,0l0,0l-1.8,1.8l0,0
	c-0.3,0.3-0.3,0.7,0,0.9l0,0l1.1,1.1c-0.1,0.1-0.1,0.3-0.2,0.4l0,0c-0.1,0.2-0.1,0.3-0.2,0.5h-1.6c-0.4,0-0.7,0.3-0.7,0.7v2.5
	c0,0.4,0.3,0.7,0.6,0.7l0,0h1.6c0,0.1,0.1,0.3,0.2,0.4l0,0c0.1,0.2,0.1,0.3,0.2,0.4l-1.1,1.1l0,0c-0.3,0.3-0.3,0.7,0,0.9l0,0
	l1.8,1.8l0,0c0.3,0.3,0.7,0.3,0.9,0l0,0l1.1-1.1l0.4,0.2l0,0l0.5,0.2v1.6c0,0.4,0.3,0.7,0.7,0.7l0,0h2.5c0.4,0,0.7-0.3,0.7-0.6l0,0
	v-1.5l0.5-0.2c0.2-0.1,0.3-0.1,0.5-0.2l1.1,1.1l0,0c0.3,0.3,0.7,0.3,0.9,0l0,0l1.8-1.8l0,0c0.3-0.3,0.3-0.7,0-0.9l0,0l-1.1-1.1
	c0.1-0.1,0.1-0.3,0.2-0.4s0.1-0.3,0.2-0.5h1.6c0.4,0,0.7-0.3,0.7-0.6l0,0v-2.5C204.2,235.1,203.9,234.8,203.6,234.8L203.6,234.8z
	 M202.9,237.3h-1.4c-0.3,0-0.6,0.2-0.7,0.6c-0.1,0.2-0.1,0.5-0.2,0.7c-0.1,0.2-0.2,0.5-0.4,0.7c-0.2,0.3-0.1,0.6,0.1,0.8l0,0l1,1
	l-0.8,0.9l-1-1c-0.2-0.2-0.6-0.3-0.9-0.1c-0.2,0.1-0.4,0.2-0.7,0.4c-0.3,0.1-0.5,0.2-0.8,0.2c-0.3,0.1-0.5,0.3-0.5,0.6v1.4h-1.2
	v-1.4c0-0.3-0.2-0.6-0.6-0.6c-0.3-0.1-0.5-0.1-0.7-0.2l0,0c-0.2-0.1-0.5-0.2-0.7-0.4c-0.3-0.2-0.6-0.1-0.8,0.1l0,0l-1,1l-0.8-0.8
	l1-1c0.2-0.2,0.3-0.6,0.1-0.8c-0.1-0.2-0.3-0.5-0.4-0.7l0,0c-0.1-0.2-0.2-0.5-0.2-0.7c-0.1-0.3-0.3-0.5-0.6-0.5h-1.4v-1.2h1.4
	c0.3,0,0.6-0.2,0.7-0.6c0.1-0.2,0.1-0.5,0.2-0.7l0,0c0.1-0.2,0.2-0.5,0.4-0.7c0.2-0.3,0.1-0.6-0.1-0.8l0,0l-1-1l0.8-0.8l1,1
	c0.2,0.2,0.6,0.3,0.8,0.1c0.2-0.1,0.5-0.3,0.7-0.4c0.3-0.1,0.5-0.2,0.8-0.2c0.3-0.1,0.5-0.3,0.5-0.6l0,0v-1.5h1.2v1.4
	c0,0.3,0.2,0.6,0.6,0.7c0.2,0.1,0.5,0.1,0.7,0.2c0.3,0.1,0.5,0.2,0.7,0.4c0.3,0.2,0.6,0.1,0.8-0.1l1-1l0.9,0.8l-1,1
	c-0.2,0.2-0.3,0.6-0.1,0.8c0.1,0.2,0.3,0.5,0.4,0.7l0,0c0.1,0.2,0.2,0.5,0.2,0.7c0.1,0.3,0.3,0.5,0.6,0.5h1.4V237.3L202.9,237.3z
	 M196.1,234L196.1,234c-1.5,0-2.8,1.3-2.8,2.8l0,0c0,0.7,0.3,1.5,0.8,2c1.1,1.1,2.9,1.1,4,0c0.5-0.5,0.8-1.2,0.8-2
	C198.9,235.2,197.6,234,196.1,234z M197.5,238.2L197.5,238.2c-0.4,0.4-0.9,0.6-1.4,0.6c-1.1,0-2-0.9-2-2s0.9-2,2-2s2,0.9,2,2
	C198.1,237.3,197.9,237.8,197.5,238.2L197.5,238.2z"/>
<path class="st3" d="M215.4,245.9h-1.2c0-0.1-0.1-0.2-0.1-0.3l0,0c0-0.1-0.1-0.2-0.2-0.3l0.9-0.8l0,0c0.2-0.2,0.2-0.5,0-0.7
	l-1.4-1.4l0,0c-0.2-0.2-0.5-0.2-0.7,0l-0.9,0.9l-0.4-0.2L211,243v-1.3c0-0.3-0.2-0.5-0.5-0.5h-1.9c-0.3,0-0.5,0.2-0.5,0.5v1.2
	l-0.4,0.1l-0.4,0.2l-0.8-0.8l0,0c-0.2-0.2-0.5-0.2-0.7,0l-1.4,1.4l0,0c-0.2,0.2-0.2,0.5,0,0.7l0,0l0.9,0.9c-0.1,0.1-0.1,0.2-0.1,0.3
	l0,0c-0.1,0.1-0.1,0.2-0.1,0.4h-1.2c-0.3,0-0.5,0.2-0.5,0.5l0,0v1.9c0,0.3,0.2,0.5,0.5,0.5l0,0h1.2c0,0.1,0.1,0.2,0.1,0.3l0,0
	c0,0.1,0.1,0.2,0.2,0.3l-0.8,0.8l0,0c-0.2,0.2-0.2,0.5,0,0.7l0,0l1.3,1.4l0,0c0.2,0.2,0.5,0.2,0.7,0l0.9-0.9l0.3,0.1l0,0
	c0.1,0.1,0.2,0.1,0.4,0.1v1.3c0,0.3,0.2,0.5,0.5,0.5h1.9c0.3,0,0.5-0.2,0.5-0.5V252l0.4-0.1l0.4-0.2l0.8,0.9l0,0
	c0.2,0.2,0.5,0.2,0.7,0l1.4-1.4l0,0c0.2-0.2,0.2-0.5,0-0.7l-0.9-0.9c0.1-0.1,0.1-0.2,0.2-0.3c0.1-0.1,0.1-0.2,0.1-0.4h1.2
	c0.3,0,0.5-0.2,0.5-0.5l0,0v-1.9C215.8,246.2,215.6,245.9,215.4,245.9L215.4,245.9L215.4,245.9z M214.9,247.9h-1.1
	c-0.3,0-0.5,0.2-0.5,0.4s-0.1,0.4-0.2,0.6c-0.1,0.2-0.2,0.4-0.3,0.6c-0.1,0.2-0.1,0.5,0.1,0.6l0,0l0.8,0.8l-0.6,0.7l-0.8-0.8
	c-0.2-0.2-0.5-0.2-0.7-0.1c-0.2,0.1-0.3,0.2-0.5,0.3s-0.4,0.1-0.6,0.2c-0.2,0.1-0.4,0.3-0.4,0.5v1.1h-0.9v-1.1
	c0-0.2-0.2-0.5-0.4-0.5s-0.4-0.1-0.6-0.2l0,0c-0.2-0.1-0.4-0.2-0.5-0.3c-0.2-0.1-0.5-0.1-0.6,0.1l0,0l-0.8,0.8l-0.6-0.7l0.8-0.8
	c0.2-0.2,0.2-0.4,0.1-0.6c-0.1-0.2-0.2-0.4-0.3-0.6l0,0c-0.1-0.2-0.1-0.4-0.2-0.6c-0.1-0.2-0.3-0.4-0.5-0.4h-1.1V247h1.1
	c0.3,0,0.5-0.2,0.5-0.4s0.1-0.4,0.2-0.6l0,0c0.1-0.2,0.2-0.4,0.3-0.5c0.1-0.2,0.1-0.5-0.1-0.6l0,0l-0.8-0.8l0.6-0.6l0.8,0.8
	c0.2,0.2,0.4,0.2,0.6,0.1c0.2-0.1,0.4-0.2,0.6-0.3c0.2-0.1,0.4-0.1,0.6-0.2c0.2,0,0.4-0.3,0.4-0.5l0,0v-1.1h0.9v1.1
	c0,0.3,0.2,0.5,0.4,0.5s0.4,0.1,0.6,0.2c0.2,0.1,0.4,0.2,0.6,0.3c0.2,0.1,0.5,0.1,0.6-0.1l0.8-0.8l0.6,0.6l-0.8,0.8
	c-0.2,0.2-0.2,0.5-0.1,0.7c0.1,0.2,0.2,0.4,0.3,0.5l0,0c0.1,0.2,0.1,0.4,0.2,0.6c0.1,0.2,0.3,0.4,0.5,0.4h1.1L214.9,247.9
	L214.9,247.9z M209.6,245.3L209.6,245.3c-0.6,0-1.1,0.2-1.5,0.6c-0.4,0.4-0.6,0.9-0.6,1.5c0,1.2,1,2.1,2.2,2.1s2.1-1,2.1-2.2
	C211.7,246.2,210.7,245.3,209.6,245.3L209.6,245.3z M210.7,248.5L210.7,248.5c-0.6,0.6-1.6,0.6-2.2,0c-0.3-0.3-0.4-0.7-0.4-1.1
	c0-0.4,0.2-0.8,0.4-1.1c0.6-0.6,1.6-0.6,2.2,0c0.3,0.3,0.4,0.7,0.4,1.1C211.1,247.8,211,248.2,210.7,248.5z"/>
<path class="st3" d="M214.1,225.2h-1c0-0.1-0.1-0.2-0.1-0.3l0,0c0-0.1-0.1-0.2-0.1-0.3l0.7-0.7l0,0c0.2-0.2,0.2-0.4,0-0.6l0,0
	l-1.1-1.1l0,0c-0.2-0.2-0.4-0.2-0.6,0l0,0l-0.7,0.7l-0.3-0.1l-0.3-0.1v-1c0-0.2-0.2-0.4-0.4-0.4l0,0h-1.6c-0.2,0-0.4,0.2-0.4,0.4
	l0,0v1l-0.3,0.1l-0.3,0.1l-0.7-0.7l0,0c-0.2-0.2-0.4-0.2-0.6,0l0,0l-1.1,1.1l0,0c-0.2,0.2-0.2,0.4,0,0.6l0,0l0.7,0.7l-0.1,0.2l0,0
	c0,0.1-0.1,0.2-0.1,0.3h-1c-0.2,0-0.4,0.2-0.4,0.4l0,0v1.6c0,0.2,0.2,0.4,0.4,0.4l0,0h1c0,0.1,0.1,0.2,0.1,0.3l0,0
	c0,0.1,0.1,0.2,0.1,0.3l-0.7,0.7l0,0c-0.2,0.2-0.2,0.4,0,0.6l0,0l1.1,1.1l0,0c0.2,0.2,0.4,0.2,0.6,0l0.7-0.7l0.3,0.1l0,0l0.3,0.1v1
	c0,0.2,0.2,0.4,0.4,0.4l0,0h1.6c0.2,0,0.4-0.2,0.4-0.4l0,0v-1l0.3-0.1l0.3-0.1l0.7,0.7l0,0c0.2,0.2,0.4,0.2,0.6,0l1.1-1.1l0,0
	c0.2-0.2,0.2-0.4,0-0.6l0,0l-0.7-0.7c0-0.1,0.1-0.2,0.1-0.3s0.1-0.2,0.1-0.3h1c0.2,0,0.4-0.2,0.4-0.4l0,0v-1.5
	C214.5,225.4,214.3,225.2,214.1,225.2L214.1,225.2z M213.7,226.7h-0.9c-0.2,0-0.4,0.1-0.4,0.4c0,0.1-0.1,0.3-0.1,0.4
	c-0.1,0.2-0.1,0.3-0.2,0.4c-0.1,0.2-0.1,0.4,0.1,0.5l0,0l0.6,0.6l-0.5,0.5l-0.6-0.6c-0.2-0.1-0.4-0.1-0.5,0s-0.3,0.2-0.4,0.2
	c-0.2,0.1-0.3,0.1-0.5,0.2c-0.2,0-0.3,0.2-0.3,0.4v0.9h-0.7v-0.9c0-0.2-0.1-0.4-0.3-0.4s-0.3-0.1-0.4-0.2l0,0
	c-0.1-0.1-0.3-0.1-0.4-0.2c-0.2-0.1-0.4-0.1-0.5,0.1l-0.6,0.6l-0.5-0.5l0.6-0.6c0.1-0.1,0.2-0.3,0.1-0.5c-0.1-0.1-0.2-0.3-0.2-0.5
	l0,0c-0.1-0.2-0.1-0.3-0.1-0.5s-0.2-0.3-0.4-0.3h-0.9V226h0.9c0.2,0,0.4-0.1,0.4-0.3s0.1-0.3,0.1-0.4l0,0c0.1-0.1,0.1-0.3,0.2-0.4
	c0.1-0.2,0.1-0.4-0.1-0.5l0,0l-0.6-0.6l0.5-0.5l0.6,0.6c0.1,0.1,0.4,0.1,0.5,0s0.3-0.2,0.4-0.2c0.2-0.1,0.3-0.1,0.5-0.1
	s0.3-0.2,0.3-0.4l0,0v-0.9h0.7v0.9c0,0.2,0.1,0.4,0.4,0.4c0.1,0,0.3,0.1,0.4,0.1c0.2,0.1,0.3,0.1,0.4,0.2c0.2,0.1,0.4,0.1,0.5-0.1
	l0.6-0.6l0.5,0.5l-0.6,0.6c-0.1,0.2-0.1,0.4,0,0.5s0.2,0.3,0.2,0.4l0,0c0.1,0.1,0.1,0.3,0.1,0.5s0.2,0.3,0.4,0.3h0.9L213.7,226.7z"
	/>
<path class="st3" d="M209.4,224.6c-0.9,0-1.7,0.8-1.7,1.7l0,0c0,0.9,0.7,1.7,1.7,1.7l0,0c0.9,0,1.7-0.7,1.7-1.7l0,0
	C211.2,225.4,210.4,224.6,209.4,224.6z M210.3,227.2c-0.2,0.2-0.6,0.4-0.9,0.4c-0.3,0-0.6-0.1-0.9-0.4c-0.2-0.2-0.4-0.6-0.4-0.9
	c0-0.3,0.1-0.6,0.4-0.9c0.2-0.2,0.5-0.4,0.9-0.4c0.7,0,1.2,0.5,1.2,1.2l0,0C210.7,226.7,210.5,227,210.3,227.2z"/>
<path class="st3" d="M245.4,154.9c-0.4,0-0.7-0.3-0.7-0.6l0,0c0-0.4,0.3-0.7,0.7-0.7h4.3c0.4,0,0.7,0.3,0.7,0.6l0,0
	c0,0.4-0.3,0.7-0.7,0.7l0,0H245.4z M259.3,156.6L259.3,156.6l2.4,4.2c0.2,0.3,0.1,0.7-0.2,0.9l0,0c-0.1,0.1-0.3,0.1-0.5,0.1
	l-1.9-0.5l-0.5,1.9c-0.1,0.4-0.5,0.6-0.8,0.5c-0.2-0.1-0.3-0.2-0.4-0.4l-1.5-2.6l-1.6,2.7c-0.2,0.3-0.6,0.4-0.9,0.2
	c-0.1-0.1-0.3-0.2-0.3-0.4l-0.5-1.9l-1.9,0.5c-0.4,0.1-0.7-0.1-0.8-0.5l0,0c0-0.2,0-0.4,0.1-0.5l2.4-4.2c-0.2-0.4-0.3-0.9-0.3-1.4
	c0-2.1,1.7-3.8,3.8-3.8s3.8,1.7,3.8,3.8C259.6,155.6,259.5,156.1,259.3,156.6L259.3,156.6z M253.7,156.5L253.7,156.5L253.7,156.5
	c0.8,1.2,2.3,1.5,3.4,0.7c0.1-0.1,0.2-0.2,0.4-0.3l0,0l0,0c0.4-0.5,0.7-1.1,0.7-1.7c0-0.7-0.2-1.3-0.7-1.8c-1-1-2.5-1-3.5,0
	c-0.5,0.5-0.7,1.1-0.7,1.7C253.3,155.7,253.4,156.1,253.7,156.5L253.7,156.5z M258.5,157.8L258.5,157.8c-0.6,0.5-1.3,0.9-2,1l0,0
	l0,0l0,0v0.1l1.3,2.3l0.3-1c0.1-0.4,0.5-0.6,0.8-0.5l0,0l1,0.3L258.5,157.8L258.5,157.8z M253.1,157.8L253.1,157.8l-1.3,2.2l1-0.3
	l0,0c0.4-0.1,0.7,0.1,0.8,0.5l0,0l0.3,1l1.3-2.3v-0.1l0,0C254.4,158.8,253.7,158.4,253.1,157.8L253.1,157.8z M242.2,137.3h13.3
	c0.3,0,0.6,0.1,0.8,0.3l8.1,8.1c0.2,0.2,0.4,0.5,0.3,0.8v16.9c0,0.8-0.3,1.6-0.9,2.1l0,0l0,0c-0.6,0.5-1.3,0.8-2.1,0.8h-19.6
	c-0.8,0-1.6-0.3-2.1-0.9l0,0c-0.6-0.6-0.9-1.3-0.9-2.1v-23.1c0-0.8,0.3-1.6,0.9-2.1C240.7,137.6,241.4,137.3,242.2,137.3
	L242.2,137.3z M254.8,139.5h-12.6c-0.2,0-0.4,0.1-0.5,0.2c-0.1,0.1-0.2,0.3-0.2,0.5v23.2c0,0.2,0.1,0.4,0.2,0.5l0,0
	c0.1,0.1,0.3,0.2,0.5,0.2h19.5c0.2,0,0.4-0.1,0.5-0.2l0,0c0.1-0.1,0.2-0.3,0.2-0.5v-16.2h-5.1c-0.7,0-1.3-0.3-1.8-0.8l0,0
	c-0.5-0.5-0.7-1.1-0.7-1.8L254.8,139.5L254.8,139.5z M261.4,145.8L261.4,145.8l-5.2-5.2v4c0,0.3,0.1,0.6,0.3,0.8l0,0
	c0.2,0.2,0.5,0.3,0.9,0.4H261.4z M245.4,148.8h13.3l0,0h0.2l0,0l0,0l0,0l0,0l0,0l0,0l0,0l0,0l0,0l0,0l0,0l0,0l0,0l0,0l0,0l0,0l0,0
	l0,0l0,0l0,0l0,0l0,0l0,0v0.1l0,0l0,0l0,0l0,0l0,0l0,0l0,0v0.1l0,0l0,0l0,0l0,0l0,0l0,0l0,0l0,0l0,0l0,0l0,0l0,0l0,0l0,0l0,0l0,0
	l0,0l0,0l0,0l0,0l0,0l0,0l0,0l0,0h-0.1l0,0l0,0l0,0h-0.1l0,0h-13.4l0,0h-0.1l0,0l0,0l0,0H245l0,0l0,0l0,0l0,0l0,0l0,0l0,0l0,0l0,0
	l0,0l0,0l0,0l0,0l0,0l0,0l0,0l0,0l0,0l0,0l0,0l0,0l0,0l0,0l0,0v-0.1l0,0l0,0l0,0l0,0l0,0l0,0l0,0v-0.1l0,0l0,0l0,0l0,0l0,0l0,0l0,0
	l0,0l0,0l0,0l0,0l0,0l0,0l0,0l0,0l0,0l0,0l0,0l0,0l0,0l0,0l0,0l0,0h0.2l0,0H245.4L245.4,148.8z M245.4,145.4L245.4,145.4
	c-0.4,0-0.7-0.3-0.7-0.7s0.3-0.7,0.7-0.7l0,0h7.2c0.4,0,0.7,0.3,0.7,0.7s-0.3,0.7-0.7,0.7H245.4z"/>
<path class="st3" d="M213,70.5c-0.6,0-1.1,0.5-1.1,1.1s0.5,1.1,1.1,1.1s1.1-0.5,1.1-1.1l0,0C214.1,71,213.6,70.5,213,70.5z"/>
<path class="st3" d="M210.7,78.2c0-0.4-0.3-0.6-0.6-0.6l0,0h-6v-1.4h12c0.6,0,1.1-0.5,1.1-1.1V56.3c0-0.6-0.5-1.1-1.1-1.1H216h-26.2
	c-0.6,0-1.1,0.5-1.1,1.1v18.8c0,0.6,0.5,1.1,1.1,1.1h12v1.2v0.1h-6.1c-0.4,0-0.6,0.3-0.6,0.6l0,0c0,0.4,0.3,0.7,0.6,0.7H210
	C210.4,78.8,210.7,78.6,210.7,78.2L210.7,78.2z M190.9,74.1V57.4h24V74L190.9,74.1z"/>
<path class="st3" d="M194.9,60h9.7c0.2,0,0.4,0.2,0.4,0.4l0,0l0,0v8.5c0,0.2-0.2,0.4-0.4,0.4h-9.7c-0.2,0-0.4-0.2-0.4-0.4l0,0v-8.5
	C194.4,60.1,194.6,60,194.9,60L194.9,60z M200.3,63.8h2.1c0.1,0,0.2,0.1,0.2,0.2l0,0l0,0v2.1c0,0.1-0.1,0.2-0.2,0.2l0,0h-2.1
	c-0.1,0-0.2-0.1-0.2-0.2l0,0l0,0V64C200,63.9,200.1,63.8,200.3,63.8L200.3,63.8L200.3,63.8z M202.2,64.3h-1.6V66h1.6V64.3z
	 M199.4,63.8L199.4,63.8c0.1,0,0.2,0.1,0.2,0.2l0,0c0,0.1-0.1,0.2-0.2,0.2l0,0H197c-0.1,0-0.2-0.1-0.2-0.2l0,0
	c0-0.1,0.1-0.2,0.2-0.2l0,0C197,63.8,199.4,63.8,199.4,63.8z M199.4,64.9L199.4,64.9c0.1,0,0.2,0.1,0.2,0.2l0,0
	c0,0.1-0.1,0.2-0.2,0.2l0,0H197c-0.1,0-0.2-0.2-0.2-0.3c0-0.1,0.1-0.2,0.2-0.2h2.4V64.9z M199.4,66L199.4,66c0.1,0,0.2,0.1,0.2,0.2
	s-0.1,0.2-0.2,0.2H197c-0.1,0-0.2-0.1-0.2-0.2s0.1-0.2,0.2-0.2H199.4z M202.4,67L202.4,67c0.1,0,0.2,0.1,0.2,0.2l0,0
	c0,0.1-0.1,0.2-0.2,0.2l0,0H197c-0.1,0-0.2-0.1-0.2-0.2l0,0c0-0.1,0.1-0.2,0.2-0.2l0,0H202.4z M203.5,61.2L203.5,61.2
	c0.2,0,0.4,0.2,0.4,0.4s-0.2,0.4-0.4,0.4s-0.4-0.2-0.4-0.4S203.3,61.2,203.5,61.2L203.5,61.2z M202.5,61.2L202.5,61.2
	c0.2,0,0.4,0.2,0.4,0.4s-0.1,0.4-0.3,0.5s-0.4-0.1-0.5-0.3v-0.1C202.1,61.4,202.3,61.2,202.5,61.2L202.5,61.2z M201.5,61.2
	L201.5,61.2c0.2,0,0.4,0.2,0.4,0.4l0,0c0,0.2-0.1,0.4-0.3,0.5s-0.4-0.1-0.5-0.3v-0.1C201.1,61.4,201.3,61.2,201.5,61.2z M195.3,62.4
	h8.9v-1.7h-8.9V62.4z M204.2,62.9h-8.9v5.5h8.9V62.9z"/>
<path class="st4" d="M149.1,11.2c-16.8,0-33.5,3-49.2,9l0.3,1c30.5-11.6,64.2-11.9,95-1l0.4-0.9C180.7,13.9,164.9,11.2,149.1,11.2z"
	/>
<path class="st4" d="M248.9,53.7l-0.6,0.8c15.7,16.3,27.1,36.1,33.3,57.9h1C276.4,90.3,264.8,70.1,248.9,53.7z"/>
<path class="st4" d="M14.6,180l-0.9,0.4c6.2,27.7,20.8,52.8,41.8,72l0.9-0.5C35.4,232.8,20.8,207.7,14.6,180z"/>
<path class="st4" d="M54.5,49.9l-0.7-0.8c-20.5,19.3-34.6,44.4-40.5,72l1,0.1C20.2,93.9,34.2,69,54.5,49.9z"/>
<path class="st4" d="M193.9,281.4l-0.4-0.9c-29.5,10-61.5,9.8-90.8-0.7l-0.2,1C132,291.3,164.2,291.5,193.9,281.4L193.9,281.4z"/>
<path class="st4" d="M286.7,168.1l-1-0.1c-4.2,31.7-19.3,61-42.8,82.8l0.7,0.7C267.3,229.5,282.5,200,286.7,168.1z"/>
<g>
	<polygon class="st4" points="18.1,118.7 11.5,116.7 13,123.4 	"/>
	<polygon class="st4" points="252.4,52.8 245.8,50.8 247.4,57.5 	"/>
	<polygon class="st4" points="59.6,255.4 57.3,249.4 53.2,254.4 	"/>
	<polygon class="st4" points="289,172.4 286.7,166.4 282.6,171.4 	"/>
	<polygon class="st4" points="195.7,281 189.3,278.8 190.5,285.4 	"/>
	<polygon class="st4" points="98.2,21.5 104.6,22.6 102.3,16.4 	"/>
</g>
<g>
	<path class="st0" d="M210.7,25.1c-0.7,0.8-1.4,1.4-2.1,1.9l-0.5-0.9c0.7-0.4,1.3-1,1.8-1.6L210.7,25.1z M216.2,21.4
		c-0.2,0.3-0.4,0.5-0.6,0.7l3.2,1.7l-0.5,0.9l-2.6-1.4c0,1,0.6,2.2,2,3.6l-0.9,0.5c-1.5-1.7-2.2-3.2-2-4.5c-0.4,0.4-0.9,0.6-1.4,0.8
		c0.2,0.4,0.4,0.9,0.6,1.5l-1,0.3c-0.2-0.5-0.3-1.1-0.6-1.6c-0.8,0.1-1.8,0-2.9-0.3l0.1-1c1.4,0.3,2.4,0.4,3.3,0.1
		c0.3-0.1,0.5-0.2,0.8-0.4l-2.6-1.4l0.5-0.9l2.9,1.6c0.2-0.2,0.4-0.5,0.6-0.8L216.2,21.4z M210.7,28.4c-0.7-0.3-0.8-0.9-0.4-1.5
		l0.9-1.8l0.9,0.5l-0.8,1.6c-0.1,0.2-0.1,0.4,0.2,0.5l1.7,0.9c0.1,0.1,0.3,0.1,0.4,0c0.1,0,0.3-0.3,0.6-0.8l0.7,0.7
		c-0.5,0.8-0.9,1.1-1.1,1.2c-0.2,0.1-0.5,0-0.9-0.2L210.7,28.4z M213.7,27.8l-1-0.1c0.1-0.7,0.1-1.3,0.1-1.9l0.9,0.2
		C213.7,26.6,213.7,27.2,213.7,27.8z M216.1,30.2l-1-0.1c0.1-1,0.1-1.9,0.1-2.7l1,0.2C216.2,28.4,216.2,29.3,216.1,30.2z"/>
	<path class="st0" d="M223.6,28.6c0.2-0.2,0.4-0.4,0.5-0.6l-0.9-0.5l0.5-0.8l0.9,0.6l0.5-0.7l0.8,0.5l-0.5,0.7l1.5,0.9l-1.1,1.8
		c-0.4,0.7-0.6,1.1-0.5,1.1s0.3-0.2,0.8-0.8l0.5,0.8c-0.4,0.5-0.8,0.8-1,0.9c-0.3,0.1-0.6,0.1-0.8-0.1c-0.3-0.2-0.4-0.4-0.4-0.8
		c0-0.4,0.2-0.9,0.7-1.7l0.6-1l-0.7-0.5c-0.3,0.4-0.5,0.7-0.8,0.9c0.2,0.3,0.3,0.7,0.5,1l-0.9,0.4c-0.1-0.3-0.3-0.6-0.4-0.9
		c-0.5,0.2-1,0.4-1.5,0.4l0.5,0.3c-0.1,0.1-0.3,0.3-0.4,0.4l2.9,1.8c-0.8,1.2-1.4,1.9-1.7,2.2c-0.4,0.2-0.9,0.2-1.4-0.2
		c-0.4-0.3-0.7-0.5-1-0.7l0.3-1c0.4,0.3,0.8,0.6,1.1,0.8c0.3,0.1,0.5,0.1,0.7-0.1c0.2-0.2,0.4-0.5,0.6-0.8l-2.3-1.5
		c-0.4,0.2-0.8,0.4-1.2,0.5c-0.8,0.2-1.9,0-3.3-0.5l0.2-1c1.2,0.4,2.1,0.6,2.8,0.5c0.2,0,0.4-0.1,0.5-0.1l-2.4-1.5l0.5-0.8l2.9,1.8
		c0.2-0.1,0.3-0.3,0.4-0.4l0.3,0.2l-0.2-0.9c0.5,0,1-0.1,1.5-0.3c-0.2-0.3-0.3-0.5-0.5-0.8l0.8-0.4
		C223.3,28.2,223.5,28.4,223.6,28.6z M221.7,25.5l0.5-0.7l0.8,0.5l-0.5,0.7l0.9,0.6l-0.5,0.8l-0.9-0.6l-0.3,0.5
		c0.3,0.1,0.7,0.3,1,0.4l-0.5,0.8c-0.3-0.1-0.6-0.3-1-0.4l-0.5,0.8c-0.3,0.5-0.8,0.6-1.3,0.3l-0.8-0.5l0.3-0.9
		c0.2,0.2,0.4,0.3,0.6,0.5c0.1,0.1,0.3,0.1,0.4-0.1l0.3-0.5c-0.4-0.2-0.7-0.3-1.1-0.5l0.3-0.9c0.4,0.2,0.8,0.4,1.3,0.6l0.4-0.7
		l-1.1-0.7l0.5-0.8L221.7,25.5z"/>
	<path class="st0" d="M227.3,35.6c-0.7,0.6-1.5,1.1-2.3,1.3l-0.4-1c0.7-0.3,1.4-0.6,2-1.1L227.3,35.6z M235.3,35.8l-1.7-1.2
		c-0.3,0.5-0.5,0.9-0.7,1.2c-0.1,0.2-0.2,0.4-0.2,0.5c0.5-0.2,1-0.5,1.5-0.9l0.4,0.8c-0.8,0.6-1.5,0.9-2.2,1.2c0,0.3,0,0.6,0.1,0.7
		c0.1,0.1,0.5-0.1,1-0.6l0.4,0.9c-0.9,0.6-1.5,0.8-1.9,0.5c-0.3-0.2-0.5-0.6-0.5-1.1v-0.1c-0.4,0.1-0.8,0.1-1.2,0.1v-0.9
		c0.4,0,0.8,0,1.2-0.1c0.1-0.3,0.2-0.7,0.3-1c0.2-0.5,0.5-1.1,0.9-1.7l-3-2.2l-0.6,0.9c-0.8,1.1-1.7,1.7-2.7,2l-0.2-1
		c0.8-0.2,1.5-0.7,2.1-1.6l1.2-1.6l3.8,2.8c0.1-0.2,0.3-0.4,0.5-0.6l0.8,0.6c-0.2,0.2-0.3,0.4-0.5,0.6l0.6,0.4
		c0.1-0.2,0.2-0.4,0.2-0.6l0.8,0.4c-0.1,0.2-0.2,0.5-0.3,0.7l0.5,0.3L235.3,35.8z M226.9,38.5c-0.5-0.4-0.6-0.9-0.2-1.5l1-1.4
		l0.8,0.6l-0.9,1.2c-0.1,0.2-0.2,0.4,0,0.5l1.6,1.2c0.1,0.1,0.2,0.1,0.3,0.1s0.3-0.3,0.6-0.6l0.6,0.8c-0.5,0.6-0.9,0.9-1.2,0.9
		c-0.2,0-0.5-0.1-0.8-0.3L226.9,38.5z M231.5,35.2l-1.3,1.7l-2.3-1.7l1.3-1.7L231.5,35.2z M229.8,38.4h-0.9c0-0.5,0-1,0-1.6l0.9,0.1
		C229.8,37.4,229.8,37.9,229.8,38.4z M230.3,35.2l-0.8-0.6l-0.4,0.5l0.8,0.6L230.3,35.2z M232.4,34.3l-0.5,0.7l-2.6-1.9l0.5-0.7
		L232.4,34.3z M232,41.1h-1c0.1-0.6,0.1-1.3,0-2.1l1,0.1C232,39.8,232,40.5,232,41.1z"/>
	<path class="st0" d="M236,38.6l-0.3-1c1.1-0.3,2-0.7,2.9-1.4l0.6,0.8c-0.3,0.2-0.6,0.4-0.9,0.6l2,1.7l-0.6,0.7l-1-0.8
		c-0.4,0.4-0.7,0.8-1.1,1.2l1.1,1l-0.6,0.7l-1.2-1l-0.5,0.4c0.1,0.8,0.1,1.7,0.1,2.6l-1.1,0.3c0.1-1,0.2-1.8,0.2-2.4
		c-0.9,0.5-2,0.7-3.2,0.6v-1.1c1.2,0.1,2.3-0.2,3.3-0.8l0.4-0.3l-1.4-1.2l0.6-0.7l1.5,1.3c0.4-0.3,0.7-0.7,1.1-1.1l-0.5-0.4
		C237,38.3,236.5,38.5,236,38.6z M238.6,47.5l-0.8-0.6l0.3-0.4l-1.2-1l-0.3,0.4l-0.7-0.6l4.9-5.8l2.7,2.3L238.6,47.5z M238.8,45.8
		l3.4-4l-1.2-1l-3.4,4L238.8,45.8z"/>
</g>
</svg>
